G04 Layer_Color=65535*
%FSLAX44Y44*%
%MOMM*%
G71*
G01*
G75*
%ADD42C,0.2540*%
%ADD43C,0.1524*%
%ADD46C,0.1270*%
%ADD56C,0.3000*%
%ADD57C,0.6000*%
%ADD58C,0.2500*%
%ADD59C,0.5000*%
%ADD60C,0.2000*%
%ADD61C,0.0229*%
D42*
X633854Y123059D02*
X631315Y125598D01*
X626236D01*
X623697Y123059D01*
Y112902D01*
X626236Y110363D01*
X631315D01*
X633854Y112902D01*
X638932Y110363D02*
Y125598D01*
X649089Y110363D01*
Y125598D01*
X654167Y110363D02*
X659246D01*
X656706D01*
Y125598D01*
X654167Y123059D01*
X341754D02*
X339215Y125598D01*
X334136D01*
X331597Y123059D01*
Y112902D01*
X334136Y110363D01*
X339215D01*
X341754Y112902D01*
X346832Y110363D02*
Y125598D01*
X356989Y110363D01*
Y125598D01*
X372224Y110363D02*
X362067D01*
X372224Y120520D01*
Y123059D01*
X369685Y125598D01*
X364606D01*
X362067Y123059D01*
D43*
X735330Y137157D02*
Y129540D01*
X739139D01*
X740408Y130810D01*
Y135888D01*
X739139Y137157D01*
X735330D01*
X742947Y129540D02*
X745487D01*
X744217D01*
Y137157D01*
X742947Y135888D01*
X749296D02*
X750565Y137157D01*
X753104D01*
X754374Y135888D01*
Y130810D01*
X753104Y129540D01*
X750565D01*
X749296Y130810D01*
Y135888D01*
X308610Y243838D02*
X311149D01*
X309880D01*
Y236220D01*
X308610D01*
X311149D01*
X320036Y242568D02*
X318767Y243838D01*
X316227D01*
X314958Y242568D01*
Y237490D01*
X316227Y236220D01*
X318767D01*
X320036Y237490D01*
X326384Y236220D02*
Y243838D01*
X322575Y240029D01*
X327654D01*
X544990Y411948D02*
Y405600D01*
X546260Y404330D01*
X548799D01*
X550068Y405600D01*
Y411948D01*
X552607Y404330D02*
X555147D01*
X553877D01*
Y411948D01*
X552607Y410678D01*
X300228Y77467D02*
X305306D01*
X302767D01*
Y69850D01*
X307845D02*
Y77467D01*
X311654D01*
X312924Y76198D01*
Y73659D01*
X311654Y72389D01*
X307845D01*
X320541Y69850D02*
X315463D01*
X320541Y74928D01*
Y76198D01*
X319272Y77467D01*
X316733D01*
X315463Y76198D01*
X375922Y411478D02*
X374652Y410209D01*
Y407670D01*
X375922Y406400D01*
X377192D01*
X378461Y407670D01*
Y410209D01*
X379731Y411478D01*
X381000D01*
X382270Y410209D01*
Y407670D01*
X381000Y406400D01*
X374652Y414017D02*
X382270D01*
X379731Y416557D01*
X382270Y419096D01*
X374652D01*
X382270Y425444D02*
X374652D01*
X378461Y421635D01*
Y426713D01*
X140970Y562610D02*
X133352D01*
Y566419D01*
X134622Y567688D01*
X137161D01*
X138431Y566419D01*
Y562610D01*
Y565149D02*
X140970Y567688D01*
X134622Y570228D02*
X133352Y571497D01*
Y574036D01*
X134622Y575306D01*
X135892D01*
X137161Y574036D01*
Y572767D01*
Y574036D01*
X138431Y575306D01*
X139700D01*
X140970Y574036D01*
Y571497D01*
X139700Y570228D01*
X140970Y581654D02*
X133352D01*
X137161Y577845D01*
Y582923D01*
X54610Y387350D02*
X46993D01*
Y391159D01*
X48262Y392428D01*
X50801D01*
X52071Y391159D01*
Y387350D01*
Y389889D02*
X54610Y392428D01*
X48262Y394967D02*
X46993Y396237D01*
Y398776D01*
X48262Y400046D01*
X49532D01*
X50801Y398776D01*
Y397507D01*
Y398776D01*
X52071Y400046D01*
X53340D01*
X54610Y398776D01*
Y396237D01*
X53340Y394967D01*
X48262Y402585D02*
X46993Y403855D01*
Y406394D01*
X48262Y407663D01*
X49532D01*
X50801Y406394D01*
Y405124D01*
Y406394D01*
X52071Y407663D01*
X53340D01*
X54610Y406394D01*
Y403855D01*
X53340Y402585D01*
X853440Y523240D02*
X845823D01*
Y527049D01*
X847092Y528318D01*
X849631D01*
X850901Y527049D01*
Y523240D01*
Y525779D02*
X853440Y528318D01*
X847092Y530858D02*
X845823Y532127D01*
Y534666D01*
X847092Y535936D01*
X848362D01*
X849631Y534666D01*
Y533397D01*
Y534666D01*
X850901Y535936D01*
X852170D01*
X853440Y534666D01*
Y532127D01*
X852170Y530858D01*
X853440Y543553D02*
Y538475D01*
X848362Y543553D01*
X847092D01*
X845823Y542284D01*
Y539745D01*
X847092Y538475D01*
X871220Y374748D02*
Y382365D01*
X875029D01*
X876298Y381096D01*
Y378556D01*
X875029Y377287D01*
X871220D01*
X873759D02*
X876298Y374748D01*
X878838Y381096D02*
X880107Y382365D01*
X882646D01*
X883916Y381096D01*
Y379826D01*
X882646Y378556D01*
X881377D01*
X882646D01*
X883916Y377287D01*
Y376017D01*
X882646Y374748D01*
X880107D01*
X878838Y376017D01*
X886455Y374748D02*
X888994D01*
X887725D01*
Y382365D01*
X886455Y381096D01*
X871220Y354330D02*
Y361948D01*
X875029D01*
X876298Y360678D01*
Y358139D01*
X875029Y356869D01*
X871220D01*
X873759D02*
X876298Y354330D01*
X878838Y360678D02*
X880107Y361948D01*
X882646D01*
X883916Y360678D01*
Y359408D01*
X882646Y358139D01*
X881377D01*
X882646D01*
X883916Y356869D01*
Y355600D01*
X882646Y354330D01*
X880107D01*
X878838Y355600D01*
X886455Y360678D02*
X887725Y361948D01*
X890264D01*
X891533Y360678D01*
Y355600D01*
X890264Y354330D01*
X887725D01*
X886455Y355600D01*
Y360678D01*
X854710Y427990D02*
X847093D01*
Y431799D01*
X848362Y433068D01*
X850901D01*
X852171Y431799D01*
Y427990D01*
Y430529D02*
X854710Y433068D01*
Y440686D02*
Y435607D01*
X849632Y440686D01*
X848362D01*
X847093Y439416D01*
Y436877D01*
X848362Y435607D01*
X853440Y443225D02*
X854710Y444495D01*
Y447034D01*
X853440Y448303D01*
X848362D01*
X847093Y447034D01*
Y444495D01*
X848362Y443225D01*
X849632D01*
X850901Y444495D01*
Y448303D01*
X871220Y331470D02*
Y339087D01*
X875029D01*
X876298Y337818D01*
Y335279D01*
X875029Y334009D01*
X871220D01*
X873759D02*
X876298Y331470D01*
X883916D02*
X878838D01*
X883916Y336548D01*
Y337818D01*
X882646Y339087D01*
X880107D01*
X878838Y337818D01*
X886455D02*
X887725Y339087D01*
X890264D01*
X891533Y337818D01*
Y336548D01*
X890264Y335279D01*
X891533Y334009D01*
Y332740D01*
X890264Y331470D01*
X887725D01*
X886455Y332740D01*
Y334009D01*
X887725Y335279D01*
X886455Y336548D01*
Y337818D01*
X887725Y335279D02*
X890264D01*
X871220Y308610D02*
Y316227D01*
X875029D01*
X876298Y314958D01*
Y312419D01*
X875029Y311149D01*
X871220D01*
X873759D02*
X876298Y308610D01*
X883916D02*
X878838D01*
X883916Y313688D01*
Y314958D01*
X882646Y316227D01*
X880107D01*
X878838Y314958D01*
X886455Y316227D02*
X891533D01*
Y314958D01*
X886455Y309880D01*
Y308610D01*
X858520Y116840D02*
X850902D01*
Y120649D01*
X852172Y121918D01*
X854711D01*
X855981Y120649D01*
Y116840D01*
Y119379D02*
X858520Y121918D01*
Y129536D02*
Y124458D01*
X853442Y129536D01*
X852172D01*
X850902Y128266D01*
Y125727D01*
X852172Y124458D01*
X850902Y137153D02*
X852172Y134614D01*
X854711Y132075D01*
X857250D01*
X858520Y133345D01*
Y135884D01*
X857250Y137153D01*
X855981D01*
X854711Y135884D01*
Y132075D01*
X871220Y287020D02*
Y294638D01*
X875029D01*
X876298Y293368D01*
Y290829D01*
X875029Y289559D01*
X871220D01*
X873759D02*
X876298Y287020D01*
X883916D02*
X878838D01*
X883916Y292098D01*
Y293368D01*
X882646Y294638D01*
X880107D01*
X878838Y293368D01*
X891533Y294638D02*
X886455D01*
Y290829D01*
X888994Y292098D01*
X890264D01*
X891533Y290829D01*
Y288290D01*
X890264Y287020D01*
X887725D01*
X886455Y288290D01*
X871220Y264160D02*
Y271777D01*
X875029D01*
X876298Y270508D01*
Y267969D01*
X875029Y266699D01*
X871220D01*
X873759D02*
X876298Y264160D01*
X883916D02*
X878838D01*
X883916Y269238D01*
Y270508D01*
X882646Y271777D01*
X880107D01*
X878838Y270508D01*
X890264Y264160D02*
Y271777D01*
X886455Y267969D01*
X891533D01*
X365760Y461010D02*
X358143D01*
Y464819D01*
X359412Y466088D01*
X361951D01*
X363221Y464819D01*
Y461010D01*
Y463549D02*
X365760Y466088D01*
Y473706D02*
Y468628D01*
X360682Y473706D01*
X359412D01*
X358143Y472436D01*
Y469897D01*
X359412Y468628D01*
Y476245D02*
X358143Y477515D01*
Y480054D01*
X359412Y481323D01*
X360682D01*
X361951Y480054D01*
Y478784D01*
Y480054D01*
X363221Y481323D01*
X364490D01*
X365760Y480054D01*
Y477515D01*
X364490Y476245D01*
X386080Y462280D02*
X378462D01*
Y466089D01*
X379732Y467358D01*
X382271D01*
X383541Y466089D01*
Y462280D01*
Y464819D02*
X386080Y467358D01*
Y474976D02*
Y469897D01*
X381002Y474976D01*
X379732D01*
X378462Y473706D01*
Y471167D01*
X379732Y469897D01*
X386080Y482593D02*
Y477515D01*
X381002Y482593D01*
X379732D01*
X378462Y481324D01*
Y478785D01*
X379732Y477515D01*
X411480Y469900D02*
X403862D01*
Y473709D01*
X405132Y474978D01*
X407671D01*
X408941Y473709D01*
Y469900D01*
Y472439D02*
X411480Y474978D01*
Y482596D02*
Y477518D01*
X406402Y482596D01*
X405132D01*
X403862Y481326D01*
Y478787D01*
X405132Y477518D01*
X411480Y485135D02*
Y487674D01*
Y486405D01*
X403862D01*
X405132Y485135D01*
X871220Y242570D02*
Y250187D01*
X875029D01*
X876298Y248918D01*
Y246379D01*
X875029Y245109D01*
X871220D01*
X873759D02*
X876298Y242570D01*
X883916D02*
X878838D01*
X883916Y247648D01*
Y248918D01*
X882646Y250187D01*
X880107D01*
X878838Y248918D01*
X886455D02*
X887725Y250187D01*
X890264D01*
X891533Y248918D01*
Y243840D01*
X890264Y242570D01*
X887725D01*
X886455Y243840D01*
Y248918D01*
X858520Y21590D02*
X850902D01*
Y25399D01*
X852172Y26668D01*
X854711D01*
X855981Y25399D01*
Y21590D01*
Y24129D02*
X858520Y26668D01*
Y29207D02*
Y31747D01*
Y30477D01*
X850902D01*
X852172Y29207D01*
X857250Y35556D02*
X858520Y36825D01*
Y39364D01*
X857250Y40634D01*
X852172D01*
X850902Y39364D01*
Y36825D01*
X852172Y35556D01*
X853442D01*
X854711Y36825D01*
Y40634D01*
X871220Y219710D02*
Y227327D01*
X875029D01*
X876298Y226058D01*
Y223519D01*
X875029Y222249D01*
X871220D01*
X873759D02*
X876298Y219710D01*
X878838D02*
X881377D01*
X880107D01*
Y227327D01*
X878838Y226058D01*
X885185D02*
X886455Y227327D01*
X888994D01*
X890264Y226058D01*
Y224788D01*
X888994Y223519D01*
X890264Y222249D01*
Y220980D01*
X888994Y219710D01*
X886455D01*
X885185Y220980D01*
Y222249D01*
X886455Y223519D01*
X885185Y224788D01*
Y226058D01*
X886455Y223519D02*
X888994D01*
X373380Y562610D02*
X365762D01*
Y566419D01*
X367032Y567688D01*
X369571D01*
X370841Y566419D01*
Y562610D01*
Y565149D02*
X373380Y567688D01*
Y570228D02*
Y572767D01*
Y571497D01*
X365762D01*
X367032Y570228D01*
X365762Y576576D02*
Y581654D01*
X367032D01*
X372110Y576576D01*
X373380D01*
X397510Y562610D02*
X389893D01*
Y566419D01*
X391162Y567688D01*
X393701D01*
X394971Y566419D01*
Y562610D01*
Y565149D02*
X397510Y567688D01*
Y570228D02*
Y572767D01*
Y571497D01*
X389893D01*
X391162Y570228D01*
X389893Y581654D02*
X391162Y579115D01*
X393701Y576576D01*
X396240D01*
X397510Y577845D01*
Y580384D01*
X396240Y581654D01*
X394971D01*
X393701Y580384D01*
Y576576D01*
X424180Y562610D02*
X416562D01*
Y566419D01*
X417832Y567688D01*
X420371D01*
X421641Y566419D01*
Y562610D01*
Y565149D02*
X424180Y567688D01*
Y570228D02*
Y572767D01*
Y571497D01*
X416562D01*
X417832Y570228D01*
X416562Y581654D02*
Y576576D01*
X420371D01*
X419102Y579115D01*
Y580384D01*
X420371Y581654D01*
X422910D01*
X424180Y580384D01*
Y577845D01*
X422910Y576576D01*
X93980Y25400D02*
X86362D01*
Y29209D01*
X87632Y30478D01*
X90171D01*
X91441Y29209D01*
Y25400D01*
Y27939D02*
X93980Y30478D01*
Y33017D02*
Y35557D01*
Y34287D01*
X86362D01*
X87632Y33017D01*
X93980Y43174D02*
X86362D01*
X90171Y39365D01*
Y44444D01*
X114300Y25400D02*
X106683D01*
Y29209D01*
X107952Y30478D01*
X110491D01*
X111761Y29209D01*
Y25400D01*
Y27939D02*
X114300Y30478D01*
Y33017D02*
Y35557D01*
Y34287D01*
X106683D01*
X107952Y33017D01*
Y39365D02*
X106683Y40635D01*
Y43174D01*
X107952Y44444D01*
X109222D01*
X110491Y43174D01*
Y41905D01*
Y43174D01*
X111761Y44444D01*
X113030D01*
X114300Y43174D01*
Y40635D01*
X113030Y39365D01*
X53340Y25400D02*
X45722D01*
Y29209D01*
X46992Y30478D01*
X49531D01*
X50801Y29209D01*
Y25400D01*
Y27939D02*
X53340Y30478D01*
Y33017D02*
Y35557D01*
Y34287D01*
X45722D01*
X46992Y33017D01*
X53340Y44444D02*
Y39365D01*
X48262Y44444D01*
X46992D01*
X45722Y43174D01*
Y40635D01*
X46992Y39365D01*
X33020Y25400D02*
X25403D01*
Y29209D01*
X26672Y30478D01*
X29211D01*
X30481Y29209D01*
Y25400D01*
Y27939D02*
X33020Y30478D01*
Y33017D02*
Y35557D01*
Y34287D01*
X25403D01*
X26672Y33017D01*
X33020Y39365D02*
Y41905D01*
Y40635D01*
X25403D01*
X26672Y39365D01*
X145415Y242570D02*
X137797D01*
Y246379D01*
X139067Y247648D01*
X141606D01*
X142876Y246379D01*
Y242570D01*
Y245109D02*
X145415Y247648D01*
Y250187D02*
Y252727D01*
Y251457D01*
X137797D01*
X139067Y250187D01*
Y256535D02*
X137797Y257805D01*
Y260344D01*
X139067Y261614D01*
X144145D01*
X145415Y260344D01*
Y257805D01*
X144145Y256535D01*
X139067D01*
X115570Y248920D02*
X107952D01*
Y252729D01*
X109222Y253998D01*
X111761D01*
X113031Y252729D01*
Y248920D01*
Y251459D02*
X115570Y253998D01*
X114300Y256537D02*
X115570Y257807D01*
Y260346D01*
X114300Y261616D01*
X109222D01*
X107952Y260346D01*
Y257807D01*
X109222Y256537D01*
X110492D01*
X111761Y257807D01*
Y261616D01*
X227330Y31750D02*
X219713D01*
Y35559D01*
X220982Y36828D01*
X223521D01*
X224791Y35559D01*
Y31750D01*
Y34289D02*
X227330Y36828D01*
X220982Y39367D02*
X219713Y40637D01*
Y43176D01*
X220982Y44446D01*
X222252D01*
X223521Y43176D01*
X224791Y44446D01*
X226060D01*
X227330Y43176D01*
Y40637D01*
X226060Y39367D01*
X224791D01*
X223521Y40637D01*
X222252Y39367D01*
X220982D01*
X223521Y40637D02*
Y43176D01*
X208280Y30480D02*
X200662D01*
Y34289D01*
X201932Y35558D01*
X204471D01*
X205741Y34289D01*
Y30480D01*
Y33019D02*
X208280Y35558D01*
X200662Y38098D02*
Y43176D01*
X201932D01*
X207010Y38098D01*
X208280D01*
X247650Y30480D02*
X240033D01*
Y34289D01*
X241302Y35558D01*
X243841D01*
X245111Y34289D01*
Y30480D01*
Y33019D02*
X247650Y35558D01*
X240033Y43176D02*
X241302Y40637D01*
X243841Y38098D01*
X246380D01*
X247650Y39367D01*
Y41906D01*
X246380Y43176D01*
X245111D01*
X243841Y41906D01*
Y38098D01*
X831850Y254000D02*
Y261618D01*
X835659D01*
X836928Y260348D01*
Y257809D01*
X835659Y256539D01*
X831850D01*
X834389D02*
X836928Y254000D01*
X844546Y261618D02*
X839467D01*
Y257809D01*
X842007Y259078D01*
X843276D01*
X844546Y257809D01*
Y255270D01*
X843276Y254000D01*
X840737D01*
X839467Y255270D01*
X533400Y272500D02*
X525783D01*
Y276309D01*
X527052Y277578D01*
X529591D01*
X530861Y276309D01*
Y272500D01*
Y275039D02*
X533400Y277578D01*
Y283926D02*
X525783D01*
X529591Y280117D01*
Y285196D01*
X472440Y204470D02*
X464823D01*
Y208279D01*
X466092Y209548D01*
X468631D01*
X469901Y208279D01*
Y204470D01*
Y207009D02*
X472440Y209548D01*
X466092Y212087D02*
X464823Y213357D01*
Y215896D01*
X466092Y217166D01*
X467362D01*
X468631Y215896D01*
Y214627D01*
Y215896D01*
X469901Y217166D01*
X471170D01*
X472440Y215896D01*
Y213357D01*
X471170Y212087D01*
X486410Y453390D02*
X478792D01*
Y457199D01*
X480062Y458468D01*
X482601D01*
X483871Y457199D01*
Y453390D01*
Y455929D02*
X486410Y458468D01*
Y466086D02*
Y461007D01*
X481332Y466086D01*
X480062D01*
X478792Y464816D01*
Y462277D01*
X480062Y461007D01*
X186690Y30480D02*
X179072D01*
Y34289D01*
X180342Y35558D01*
X182881D01*
X184151Y34289D01*
Y30480D01*
Y33019D02*
X186690Y35558D01*
Y38098D02*
Y40637D01*
Y39367D01*
X179072D01*
X180342Y38098D01*
X633729Y459738D02*
X631190D01*
X629920Y458468D01*
Y453390D01*
X631190Y452120D01*
X633729D01*
X634998Y453390D01*
Y458468D01*
X633729Y459738D01*
X642616Y458468D02*
X641346Y459738D01*
X638807D01*
X637537Y458468D01*
Y457198D01*
X638807Y455929D01*
X641346D01*
X642616Y454659D01*
Y453390D01*
X641346Y452120D01*
X638807D01*
X637537Y453390D01*
X650233Y458468D02*
X648964Y459738D01*
X646425D01*
X645155Y458468D01*
Y453390D01*
X646425Y452120D01*
X648964D01*
X650233Y453390D01*
X652773Y452120D02*
X655312D01*
X654042D01*
Y459738D01*
X652773Y458468D01*
X386840Y351534D02*
X384301D01*
X385571D01*
Y345186D01*
X384301Y343916D01*
X383032D01*
X381762Y345186D01*
X389380Y343916D02*
Y351534D01*
X393188D01*
X394458Y350264D01*
Y347725D01*
X393188Y346455D01*
X389380D01*
X402075Y343916D02*
X396997D01*
X402075Y348994D01*
Y350264D01*
X400806Y351534D01*
X398267D01*
X396997Y350264D01*
X384808Y229867D02*
X382269D01*
X383539D01*
Y223520D01*
X382269Y222250D01*
X381000D01*
X379730Y223520D01*
X387347Y222250D02*
Y229867D01*
X391156D01*
X392426Y228598D01*
Y226059D01*
X391156Y224789D01*
X387347D01*
X394965Y222250D02*
X397504D01*
X396235D01*
Y229867D01*
X394965Y228598D01*
X55903Y582928D02*
X58442D01*
X57172D01*
Y575310D01*
X55903D01*
X58442D01*
X67329Y581658D02*
X66059Y582928D01*
X63520D01*
X62250Y581658D01*
Y576580D01*
X63520Y575310D01*
X66059D01*
X67329Y576580D01*
X69868Y575310D02*
X72407D01*
X71138D01*
Y582928D01*
X69868Y581658D01*
X76216D02*
X77486Y582928D01*
X80025D01*
X81294Y581658D01*
Y576580D01*
X80025Y575310D01*
X77486D01*
X76216Y576580D01*
Y581658D01*
X226083Y581657D02*
X228622D01*
X227352D01*
Y574040D01*
X226083D01*
X228622D01*
X237509Y580388D02*
X236239Y581657D01*
X233700D01*
X232430Y580388D01*
Y575310D01*
X233700Y574040D01*
X236239D01*
X237509Y575310D01*
X240048D02*
X241318Y574040D01*
X243857D01*
X245126Y575310D01*
Y580388D01*
X243857Y581657D01*
X241318D01*
X240048Y580388D01*
Y579118D01*
X241318Y577849D01*
X245126D01*
X553720Y81278D02*
X556259D01*
X554990D01*
Y73660D01*
X553720D01*
X556259D01*
X565146Y80008D02*
X563877Y81278D01*
X561338D01*
X560068Y80008D01*
Y74930D01*
X561338Y73660D01*
X563877D01*
X565146Y74930D01*
X567686Y80008D02*
X568955Y81278D01*
X571494D01*
X572764Y80008D01*
Y78738D01*
X571494Y77469D01*
X572764Y76199D01*
Y74930D01*
X571494Y73660D01*
X568955D01*
X567686Y74930D01*
Y76199D01*
X568955Y77469D01*
X567686Y78738D01*
Y80008D01*
X568955Y77469D02*
X571494D01*
X440690Y482598D02*
X443229D01*
X441960D01*
Y474980D01*
X440690D01*
X443229D01*
X452116Y481328D02*
X450847Y482598D01*
X448307D01*
X447038Y481328D01*
Y476250D01*
X448307Y474980D01*
X450847D01*
X452116Y476250D01*
X454655Y482598D02*
X459734D01*
Y481328D01*
X454655Y476250D01*
Y474980D01*
X440690Y567687D02*
X443229D01*
X441960D01*
Y560070D01*
X440690D01*
X443229D01*
X452116Y566418D02*
X450847Y567687D01*
X448307D01*
X447038Y566418D01*
Y561340D01*
X448307Y560070D01*
X450847D01*
X452116Y561340D01*
X459734Y567687D02*
X457195Y566418D01*
X454655Y563879D01*
Y561340D01*
X455925Y560070D01*
X458464D01*
X459734Y561340D01*
Y562609D01*
X458464Y563879D01*
X454655D01*
X101602Y123190D02*
Y125729D01*
Y124460D01*
X109220D01*
Y123190D01*
Y125729D01*
X102872Y134616D02*
X101602Y133347D01*
Y130808D01*
X102872Y129538D01*
X107950D01*
X109220Y130808D01*
Y133347D01*
X107950Y134616D01*
X101602Y142234D02*
Y137156D01*
X105411D01*
X104142Y139695D01*
Y140964D01*
X105411Y142234D01*
X107950D01*
X109220Y140964D01*
Y138425D01*
X107950Y137156D01*
X233682Y127000D02*
Y129539D01*
Y128270D01*
X241300D01*
Y127000D01*
Y129539D01*
X234952Y138426D02*
X233682Y137157D01*
Y134618D01*
X234952Y133348D01*
X240030D01*
X241300Y134618D01*
Y137157D01*
X240030Y138426D01*
X234952Y140965D02*
X233682Y142235D01*
Y144774D01*
X234952Y146044D01*
X236222D01*
X237491Y144774D01*
Y143505D01*
Y144774D01*
X238761Y146044D01*
X240030D01*
X241300Y144774D01*
Y142235D01*
X240030Y140965D01*
X447040Y77467D02*
X449579D01*
X448310D01*
Y69850D01*
X447040D01*
X449579D01*
X458466Y76198D02*
X457197Y77467D01*
X454658D01*
X453388Y76198D01*
Y71120D01*
X454658Y69850D01*
X457197D01*
X458466Y71120D01*
X466084Y69850D02*
X461006D01*
X466084Y74928D01*
Y76198D01*
X464814Y77467D01*
X462275D01*
X461006Y76198D01*
X429263Y100330D02*
Y102869D01*
Y101600D01*
X436880D01*
Y100330D01*
Y102869D01*
X430532Y111756D02*
X429263Y110487D01*
Y107948D01*
X430532Y106678D01*
X435610D01*
X436880Y107948D01*
Y110487D01*
X435610Y111756D01*
X436880Y114296D02*
Y116835D01*
Y115565D01*
X429263D01*
X430532Y114296D01*
X519428Y133094D02*
X514350D01*
Y129285D01*
X516889D01*
X514350D01*
Y125476D01*
X521968Y133094D02*
Y125476D01*
X525776D01*
X527046Y126746D01*
Y128015D01*
X525776Y129285D01*
X521968D01*
X525776D01*
X527046Y130554D01*
Y131824D01*
X525776Y133094D01*
X521968D01*
X534663D02*
X529585D01*
Y129285D01*
X532124Y130554D01*
X533394D01*
X534663Y129285D01*
Y126746D01*
X533394Y125476D01*
X530855D01*
X529585Y126746D01*
X21588Y246378D02*
X16510D01*
Y242569D01*
X19049D01*
X16510D01*
Y238760D01*
X24128Y246378D02*
Y238760D01*
X27936D01*
X29206Y240030D01*
Y241299D01*
X27936Y242569D01*
X24128D01*
X27936D01*
X29206Y243838D01*
Y245108D01*
X27936Y246378D01*
X24128D01*
X35554Y238760D02*
Y246378D01*
X31745Y242569D01*
X36823D01*
X21593Y481328D02*
Y476250D01*
X25401D01*
Y478789D01*
Y476250D01*
X29210D01*
X21593Y483867D02*
X29210D01*
Y487676D01*
X27940Y488946D01*
X26671D01*
X25401Y487676D01*
Y483867D01*
Y487676D01*
X24132Y488946D01*
X22862D01*
X21593Y487676D01*
Y483867D01*
X22862Y491485D02*
X21593Y492755D01*
Y495294D01*
X22862Y496563D01*
X24132D01*
X25401Y495294D01*
Y494024D01*
Y495294D01*
X26671Y496563D01*
X27940D01*
X29210Y495294D01*
Y492755D01*
X27940Y491485D01*
X171453Y459348D02*
Y454270D01*
X175261D01*
Y456809D01*
Y454270D01*
X179070D01*
X171453Y461888D02*
X179070D01*
Y465696D01*
X177800Y466966D01*
X176531D01*
X175261Y465696D01*
Y461888D01*
Y465696D01*
X173992Y466966D01*
X172722D01*
X171453Y465696D01*
Y461888D01*
X179070Y474583D02*
Y469505D01*
X173992Y474583D01*
X172722D01*
X171453Y473314D01*
Y470775D01*
X172722Y469505D01*
X290833Y458468D02*
Y453390D01*
X294641D01*
Y455929D01*
Y453390D01*
X298450D01*
X290833Y461007D02*
X298450D01*
Y464816D01*
X297180Y466086D01*
X295911D01*
X294641Y464816D01*
Y461007D01*
Y464816D01*
X293372Y466086D01*
X292102D01*
X290833Y464816D01*
Y461007D01*
X298450Y468625D02*
Y471164D01*
Y469895D01*
X290833D01*
X292102Y468625D01*
X160023Y562610D02*
X167640D01*
Y566419D01*
X166370Y567688D01*
X161292D01*
X160023Y566419D01*
Y562610D01*
X167640Y570228D02*
Y572767D01*
Y571497D01*
X160023D01*
X161292Y570228D01*
X167640Y580384D02*
X160023D01*
X163831Y576576D01*
Y581654D01*
X46993Y477520D02*
X54610D01*
Y481329D01*
X53340Y482598D01*
X48262D01*
X46993Y481329D01*
Y477520D01*
X54610Y485137D02*
Y487677D01*
Y486407D01*
X46993D01*
X48262Y485137D01*
Y491485D02*
X46993Y492755D01*
Y495294D01*
X48262Y496564D01*
X49532D01*
X50801Y495294D01*
Y494025D01*
Y495294D01*
X52071Y496564D01*
X53340D01*
X54610Y495294D01*
Y492755D01*
X53340Y491485D01*
X73660Y488947D02*
Y481330D01*
X77469D01*
X78738Y482600D01*
Y487678D01*
X77469Y488947D01*
X73660D01*
X81278Y481330D02*
X83817D01*
X82547D01*
Y488947D01*
X81278Y487678D01*
X92704Y481330D02*
X87626D01*
X92704Y486408D01*
Y487678D01*
X91434Y488947D01*
X88895D01*
X87626Y487678D01*
X316230Y563877D02*
Y556260D01*
X320039D01*
X321308Y557530D01*
Y562608D01*
X320039Y563877D01*
X316230D01*
X323848Y556260D02*
X326387D01*
X325117D01*
Y563877D01*
X323848Y562608D01*
X330196Y556260D02*
X332735D01*
X331465D01*
Y563877D01*
X330196Y562608D01*
X467363Y234950D02*
X474980D01*
Y238759D01*
X473710Y240028D01*
X468632D01*
X467363Y238759D01*
Y234950D01*
X473710Y242568D02*
X474980Y243837D01*
Y246376D01*
X473710Y247646D01*
X468632D01*
X467363Y246376D01*
Y243837D01*
X468632Y242568D01*
X469902D01*
X471171Y243837D01*
Y247646D01*
X477520Y372108D02*
Y364490D01*
X481329D01*
X482598Y365760D01*
Y370838D01*
X481329Y372108D01*
X477520D01*
X485137Y370838D02*
X486407Y372108D01*
X488946D01*
X490216Y370838D01*
Y369568D01*
X488946Y368299D01*
X490216Y367029D01*
Y365760D01*
X488946Y364490D01*
X486407D01*
X485137Y365760D01*
Y367029D01*
X486407Y368299D01*
X485137Y369568D01*
Y370838D01*
X486407Y368299D02*
X488946D01*
X966470Y383665D02*
Y376048D01*
X970279D01*
X971548Y377317D01*
Y382396D01*
X970279Y383665D01*
X966470D01*
X974088D02*
X979166D01*
Y382396D01*
X974088Y377317D01*
Y376048D01*
X966470Y361948D02*
Y354330D01*
X970279D01*
X971548Y355600D01*
Y360678D01*
X970279Y361948D01*
X966470D01*
X979166D02*
X976627Y360678D01*
X974088Y358139D01*
Y355600D01*
X975357Y354330D01*
X977896D01*
X979166Y355600D01*
Y356869D01*
X977896Y358139D01*
X974088D01*
X966470Y340358D02*
Y332740D01*
X970279D01*
X971548Y334010D01*
Y339088D01*
X970279Y340358D01*
X966470D01*
X979166D02*
X974088D01*
Y336549D01*
X976627Y337818D01*
X977896D01*
X979166Y336549D01*
Y334010D01*
X977896Y332740D01*
X975357D01*
X974088Y334010D01*
X966470Y317498D02*
Y309880D01*
X970279D01*
X971548Y311150D01*
Y316228D01*
X970279Y317498D01*
X966470D01*
X977896Y309880D02*
Y317498D01*
X974088Y313689D01*
X979166D01*
X966470Y294638D02*
Y287020D01*
X970279D01*
X971548Y288290D01*
Y293368D01*
X970279Y294638D01*
X966470D01*
X974088Y293368D02*
X975357Y294638D01*
X977896D01*
X979166Y293368D01*
Y292098D01*
X977896Y290829D01*
X976627D01*
X977896D01*
X979166Y289559D01*
Y288290D01*
X977896Y287020D01*
X975357D01*
X974088Y288290D01*
X966470Y273048D02*
Y265430D01*
X970279D01*
X971548Y266700D01*
Y271778D01*
X970279Y273048D01*
X966470D01*
X979166Y265430D02*
X974088D01*
X979166Y270508D01*
Y271778D01*
X977896Y273048D01*
X975357D01*
X974088Y271778D01*
X966470Y250187D02*
Y242570D01*
X970279D01*
X971548Y243840D01*
Y248918D01*
X970279Y250187D01*
X966470D01*
X974088Y242570D02*
X976627D01*
X975357D01*
Y250187D01*
X974088Y248918D01*
X966470Y227327D02*
Y219710D01*
X970279D01*
X971548Y220980D01*
Y226058D01*
X970279Y227327D01*
X966470D01*
X974088Y226058D02*
X975357Y227327D01*
X977896D01*
X979166Y226058D01*
Y220980D01*
X977896Y219710D01*
X975357D01*
X974088Y220980D01*
Y226058D01*
X54608Y353058D02*
X53339Y354328D01*
X50800D01*
X49530Y353058D01*
Y347980D01*
X50800Y346710D01*
X53339D01*
X54608Y347980D01*
X57147Y346710D02*
Y354328D01*
X62226Y346710D01*
Y354328D01*
X68574Y346710D02*
Y354328D01*
X64765Y350519D01*
X69843D01*
X488952Y518158D02*
X487682Y516889D01*
Y514350D01*
X488952Y513080D01*
X494030D01*
X495300Y514350D01*
Y516889D01*
X494030Y518158D01*
X495300Y520698D02*
X487682D01*
X495300Y525776D01*
X487682D01*
X488952Y528315D02*
X487682Y529585D01*
Y532124D01*
X488952Y533393D01*
X490222D01*
X491491Y532124D01*
Y530854D01*
Y532124D01*
X492761Y533393D01*
X494030D01*
X495300Y532124D01*
Y529585D01*
X494030Y528315D01*
X22862Y567688D02*
X21593Y566419D01*
Y563880D01*
X22862Y562610D01*
X27940D01*
X29210Y563880D01*
Y566419D01*
X27940Y567688D01*
X29210Y574036D02*
X21593D01*
X25401Y570228D01*
Y575306D01*
X29210Y577845D02*
Y580384D01*
Y579115D01*
X21593D01*
X22862Y577845D01*
X276862Y566418D02*
X275592Y565149D01*
Y562610D01*
X276862Y561340D01*
X281940D01*
X283210Y562610D01*
Y565149D01*
X281940Y566418D01*
X283210Y572766D02*
X275592D01*
X279401Y568957D01*
Y574036D01*
X276862Y576575D02*
X275592Y577845D01*
Y580384D01*
X276862Y581653D01*
X281940D01*
X283210Y580384D01*
Y577845D01*
X281940Y576575D01*
X276862D01*
X187962Y567688D02*
X186693Y566419D01*
Y563880D01*
X187962Y562610D01*
X193040D01*
X194310Y563880D01*
Y566419D01*
X193040Y567688D01*
X187962Y570228D02*
X186693Y571497D01*
Y574036D01*
X187962Y575306D01*
X189232D01*
X190501Y574036D01*
Y572767D01*
Y574036D01*
X191771Y575306D01*
X193040D01*
X194310Y574036D01*
Y571497D01*
X193040Y570228D01*
Y577845D02*
X194310Y579115D01*
Y581654D01*
X193040Y582923D01*
X187962D01*
X186693Y581654D01*
Y579115D01*
X187962Y577845D01*
X189232D01*
X190501Y579115D01*
Y582923D01*
X109222Y567688D02*
X107952Y566419D01*
Y563880D01*
X109222Y562610D01*
X114300D01*
X115570Y563880D01*
Y566419D01*
X114300Y567688D01*
X109222Y570228D02*
X107952Y571497D01*
Y574036D01*
X109222Y575306D01*
X110492D01*
X111761Y574036D01*
Y572767D01*
Y574036D01*
X113031Y575306D01*
X114300D01*
X115570Y574036D01*
Y571497D01*
X114300Y570228D01*
X109222Y577845D02*
X107952Y579115D01*
Y581654D01*
X109222Y582923D01*
X110492D01*
X111761Y581654D01*
X113031Y582923D01*
X114300D01*
X115570Y581654D01*
Y579115D01*
X114300Y577845D01*
X113031D01*
X111761Y579115D01*
X110492Y577845D01*
X109222D01*
X111761Y579115D02*
Y581654D01*
X538482Y21588D02*
X537212Y20319D01*
Y17780D01*
X538482Y16510D01*
X543560D01*
X544830Y17780D01*
Y20319D01*
X543560Y21588D01*
X538482Y24128D02*
X537212Y25397D01*
Y27936D01*
X538482Y29206D01*
X539752D01*
X541021Y27936D01*
Y26667D01*
Y27936D01*
X542291Y29206D01*
X543560D01*
X544830Y27936D01*
Y25397D01*
X543560Y24128D01*
X537212Y31745D02*
Y36823D01*
X538482D01*
X543560Y31745D01*
X544830D01*
X595628Y74928D02*
X594359Y76198D01*
X591820D01*
X590550Y74928D01*
Y69850D01*
X591820Y68580D01*
X594359D01*
X595628Y69850D01*
X598167Y74928D02*
X599437Y76198D01*
X601976D01*
X603246Y74928D01*
Y73658D01*
X601976Y72389D01*
X600707D01*
X601976D01*
X603246Y71119D01*
Y69850D01*
X601976Y68580D01*
X599437D01*
X598167Y69850D01*
X610863Y76198D02*
X608324Y74928D01*
X605785Y72389D01*
Y69850D01*
X607055Y68580D01*
X609594D01*
X610863Y69850D01*
Y71119D01*
X609594Y72389D01*
X605785D01*
X22862Y392428D02*
X21593Y391159D01*
Y388620D01*
X22862Y387350D01*
X27940D01*
X29210Y388620D01*
Y391159D01*
X27940Y392428D01*
X22862Y394967D02*
X21593Y396237D01*
Y398776D01*
X22862Y400046D01*
X24132D01*
X25401Y398776D01*
Y397507D01*
Y398776D01*
X26671Y400046D01*
X27940D01*
X29210Y398776D01*
Y396237D01*
X27940Y394967D01*
X21593Y407663D02*
Y402585D01*
X25401D01*
X24132Y405124D01*
Y406394D01*
X25401Y407663D01*
X27940D01*
X29210Y406394D01*
Y403855D01*
X27940Y402585D01*
X848362Y566418D02*
X847093Y565149D01*
Y562610D01*
X848362Y561340D01*
X853440D01*
X854710Y562610D01*
Y565149D01*
X853440Y566418D01*
X848362Y568957D02*
X847093Y570227D01*
Y572766D01*
X848362Y574036D01*
X849632D01*
X850901Y572766D01*
Y571497D01*
Y572766D01*
X852171Y574036D01*
X853440D01*
X854710Y572766D01*
Y570227D01*
X853440Y568957D01*
X854710Y580384D02*
X847093D01*
X850901Y576575D01*
Y581653D01*
X847092Y471168D02*
X845823Y469899D01*
Y467360D01*
X847092Y466090D01*
X852170D01*
X853440Y467360D01*
Y469899D01*
X852170Y471168D01*
X847092Y473708D02*
X845823Y474977D01*
Y477516D01*
X847092Y478786D01*
X848362D01*
X849631Y477516D01*
Y476247D01*
Y477516D01*
X850901Y478786D01*
X852170D01*
X853440Y477516D01*
Y474977D01*
X852170Y473708D01*
X847092Y481325D02*
X845823Y482595D01*
Y485134D01*
X847092Y486403D01*
X848362D01*
X849631Y485134D01*
Y483864D01*
Y485134D01*
X850901Y486403D01*
X852170D01*
X853440Y485134D01*
Y482595D01*
X852170Y481325D01*
X852172Y161288D02*
X850902Y160019D01*
Y157480D01*
X852172Y156210D01*
X857250D01*
X858520Y157480D01*
Y160019D01*
X857250Y161288D01*
X852172Y163827D02*
X850902Y165097D01*
Y167636D01*
X852172Y168906D01*
X853442D01*
X854711Y167636D01*
Y166367D01*
Y167636D01*
X855981Y168906D01*
X857250D01*
X858520Y167636D01*
Y165097D01*
X857250Y163827D01*
X858520Y176523D02*
Y171445D01*
X853442Y176523D01*
X852172D01*
X850902Y175254D01*
Y172715D01*
X852172Y171445D01*
Y67308D02*
X850902Y66039D01*
Y63500D01*
X852172Y62230D01*
X857250D01*
X858520Y63500D01*
Y66039D01*
X857250Y67308D01*
X852172Y69847D02*
X850902Y71117D01*
Y73656D01*
X852172Y74926D01*
X853442D01*
X854711Y73656D01*
Y72387D01*
Y73656D01*
X855981Y74926D01*
X857250D01*
X858520Y73656D01*
Y71117D01*
X857250Y69847D01*
X858520Y77465D02*
Y80004D01*
Y78735D01*
X850902D01*
X852172Y77465D01*
X67312Y30478D02*
X66042Y29209D01*
Y26670D01*
X67312Y25400D01*
X72390D01*
X73660Y26670D01*
Y29209D01*
X72390Y30478D01*
X67312Y33017D02*
X66042Y34287D01*
Y36826D01*
X67312Y38096D01*
X68582D01*
X69851Y36826D01*
Y35557D01*
Y36826D01*
X71121Y38096D01*
X72390D01*
X73660Y36826D01*
Y34287D01*
X72390Y33017D01*
X67312Y40635D02*
X66042Y41905D01*
Y44444D01*
X67312Y45713D01*
X72390D01*
X73660Y44444D01*
Y41905D01*
X72390Y40635D01*
X67312D01*
X168667Y363218D02*
X167397Y361949D01*
Y359410D01*
X168667Y358140D01*
X173745D01*
X175015Y359410D01*
Y361949D01*
X173745Y363218D01*
X175015Y370836D02*
Y365757D01*
X169937Y370836D01*
X168667D01*
X167397Y369566D01*
Y367027D01*
X168667Y365757D01*
X173745Y373375D02*
X175015Y374645D01*
Y377184D01*
X173745Y378453D01*
X168667D01*
X167397Y377184D01*
Y374645D01*
X168667Y373375D01*
X169937D01*
X171206Y374645D01*
Y378453D01*
X109222Y360678D02*
X107952Y359409D01*
Y356870D01*
X109222Y355600D01*
X114300D01*
X115570Y356870D01*
Y359409D01*
X114300Y360678D01*
X115570Y368296D02*
Y363218D01*
X110492Y368296D01*
X109222D01*
X107952Y367026D01*
Y364487D01*
X109222Y363218D01*
Y370835D02*
X107952Y372105D01*
Y374644D01*
X109222Y375913D01*
X110492D01*
X111761Y374644D01*
X113031Y375913D01*
X114300D01*
X115570Y374644D01*
Y372105D01*
X114300Y370835D01*
X113031D01*
X111761Y372105D01*
X110492Y370835D01*
X109222D01*
X111761Y372105D02*
Y374644D01*
X355602Y345438D02*
X354333Y344169D01*
Y341630D01*
X355602Y340360D01*
X360680D01*
X361950Y341630D01*
Y344169D01*
X360680Y345438D01*
X361950Y353056D02*
Y347977D01*
X356872Y353056D01*
X355602D01*
X354333Y351786D01*
Y349247D01*
X355602Y347977D01*
X354333Y355595D02*
Y360673D01*
X355602D01*
X360680Y355595D01*
X361950D01*
X322578Y380998D02*
X321309Y382267D01*
X318770D01*
X317500Y380998D01*
Y375920D01*
X318770Y374650D01*
X321309D01*
X322578Y375920D01*
X330196Y374650D02*
X325117D01*
X330196Y379728D01*
Y380998D01*
X328926Y382267D01*
X326387D01*
X325117Y380998D01*
X337813Y382267D02*
X335274Y380998D01*
X332735Y378459D01*
Y375920D01*
X334005Y374650D01*
X336544D01*
X337813Y375920D01*
Y377189D01*
X336544Y378459D01*
X332735D01*
X222248Y382268D02*
X220979Y383537D01*
X218440D01*
X217170Y382268D01*
Y377190D01*
X218440Y375920D01*
X220979D01*
X222248Y377190D01*
X229866Y375920D02*
X224788D01*
X229866Y380998D01*
Y382268D01*
X228596Y383537D01*
X226057D01*
X224788Y382268D01*
X237483Y383537D02*
X232405D01*
Y379729D01*
X234944Y380998D01*
X236214D01*
X237483Y379729D01*
Y377190D01*
X236214Y375920D01*
X233675D01*
X232405Y377190D01*
X246378Y480058D02*
X245109Y481328D01*
X242570D01*
X241300Y480058D01*
Y474980D01*
X242570Y473710D01*
X245109D01*
X246378Y474980D01*
X253996Y473710D02*
X248918D01*
X253996Y478788D01*
Y480058D01*
X252726Y481328D01*
X250187D01*
X248918Y480058D01*
X260344Y473710D02*
Y481328D01*
X256535Y477519D01*
X261613D01*
X292102Y427598D02*
X290833Y426329D01*
Y423790D01*
X292102Y422520D01*
X297180D01*
X298450Y423790D01*
Y426329D01*
X297180Y427598D01*
X298450Y435216D02*
Y430137D01*
X293372Y435216D01*
X292102D01*
X290833Y433946D01*
Y431407D01*
X292102Y430137D01*
Y437755D02*
X290833Y439025D01*
Y441564D01*
X292102Y442833D01*
X293372D01*
X294641Y441564D01*
Y440294D01*
Y441564D01*
X295911Y442833D01*
X297180D01*
X298450Y441564D01*
Y439025D01*
X297180Y437755D01*
X171452Y425058D02*
X170182Y423789D01*
Y421250D01*
X171452Y419980D01*
X176530D01*
X177800Y421250D01*
Y423789D01*
X176530Y425058D01*
X177800Y432676D02*
Y427598D01*
X172722Y432676D01*
X171452D01*
X170182Y431406D01*
Y428867D01*
X171452Y427598D01*
X177800Y440293D02*
Y435215D01*
X172722Y440293D01*
X171452D01*
X170182Y439024D01*
Y436485D01*
X171452Y435215D01*
X215898Y480058D02*
X214629Y481328D01*
X212090D01*
X210820Y480058D01*
Y474980D01*
X212090Y473710D01*
X214629D01*
X215898Y474980D01*
X223516Y473710D02*
X218438D01*
X223516Y478788D01*
Y480058D01*
X222246Y481328D01*
X219707D01*
X218438Y480058D01*
X226055Y473710D02*
X228594D01*
X227325D01*
Y481328D01*
X226055Y480058D01*
X354332Y261618D02*
X353063Y260349D01*
Y257810D01*
X354332Y256540D01*
X359410D01*
X360680Y257810D01*
Y260349D01*
X359410Y261618D01*
X360680Y269236D02*
Y264158D01*
X355602Y269236D01*
X354332D01*
X353063Y267966D01*
Y265427D01*
X354332Y264158D01*
Y271775D02*
X353063Y273045D01*
Y275584D01*
X354332Y276853D01*
X359410D01*
X360680Y275584D01*
Y273045D01*
X359410Y271775D01*
X354332D01*
X168912Y247648D02*
X167642Y246379D01*
Y243840D01*
X168912Y242570D01*
X173990D01*
X175260Y243840D01*
Y246379D01*
X173990Y247648D01*
X175260Y250187D02*
Y252727D01*
Y251457D01*
X167642D01*
X168912Y250187D01*
X173990Y256535D02*
X175260Y257805D01*
Y260344D01*
X173990Y261614D01*
X168912D01*
X167642Y260344D01*
Y257805D01*
X168912Y256535D01*
X170182D01*
X171451Y257805D01*
Y261614D01*
X160022Y30478D02*
X158752Y29209D01*
Y26670D01*
X160022Y25400D01*
X165100D01*
X166370Y26670D01*
Y29209D01*
X165100Y30478D01*
X166370Y33017D02*
Y35557D01*
Y34287D01*
X158752D01*
X160022Y33017D01*
Y39365D02*
X158752Y40635D01*
Y43174D01*
X160022Y44444D01*
X161292D01*
X162561Y43174D01*
X163831Y44444D01*
X165100D01*
X166370Y43174D01*
Y40635D01*
X165100Y39365D01*
X163831D01*
X162561Y40635D01*
X161292Y39365D01*
X160022D01*
X162561Y40635D02*
Y43174D01*
X836928Y304798D02*
X835659Y306068D01*
X833120D01*
X831850Y304798D01*
Y299720D01*
X833120Y298450D01*
X835659D01*
X836928Y299720D01*
X839467Y298450D02*
X842007D01*
X840737D01*
Y306068D01*
X839467Y304798D01*
X845816Y306068D02*
X850894D01*
Y304798D01*
X845816Y299720D01*
Y298450D01*
X527052Y316228D02*
X525783Y314959D01*
Y312420D01*
X527052Y311150D01*
X532130D01*
X533400Y312420D01*
Y314959D01*
X532130Y316228D01*
X533400Y318768D02*
Y321307D01*
Y320037D01*
X525783D01*
X527052Y318768D01*
X525783Y330194D02*
X527052Y327655D01*
X529591Y325116D01*
X532130D01*
X533400Y326385D01*
Y328924D01*
X532130Y330194D01*
X530861D01*
X529591Y328924D01*
Y325116D01*
X789938Y247648D02*
X788669Y248918D01*
X786130D01*
X784860Y247648D01*
Y242570D01*
X786130Y241300D01*
X788669D01*
X789938Y242570D01*
X792477Y241300D02*
X795017D01*
X793747D01*
Y248918D01*
X792477Y247648D01*
X803904Y248918D02*
X798826D01*
Y245109D01*
X801365Y246378D01*
X802634D01*
X803904Y245109D01*
Y242570D01*
X802634Y241300D01*
X800095D01*
X798826Y242570D01*
X464067Y300218D02*
X462798Y298948D01*
Y296409D01*
X464067Y295139D01*
X469145D01*
X470415Y296409D01*
Y298948D01*
X469145Y300218D01*
X470415Y302757D02*
Y305296D01*
Y304027D01*
X462798D01*
X464067Y302757D01*
X470415Y312914D02*
X462798D01*
X466606Y309105D01*
Y314183D01*
X497842Y205738D02*
X496572Y204469D01*
Y201930D01*
X497842Y200660D01*
X502920D01*
X504190Y201930D01*
Y204469D01*
X502920Y205738D01*
X504190Y208277D02*
Y210817D01*
Y209547D01*
X496572D01*
X497842Y208277D01*
Y214625D02*
X496572Y215895D01*
Y218434D01*
X497842Y219704D01*
X499112D01*
X500381Y218434D01*
Y217165D01*
Y218434D01*
X501651Y219704D01*
X502920D01*
X504190Y218434D01*
Y215895D01*
X502920Y214625D01*
X713738Y458468D02*
X712469Y459738D01*
X709930D01*
X708660Y458468D01*
Y453390D01*
X709930Y452120D01*
X712469D01*
X713738Y453390D01*
X716277Y452120D02*
X718817D01*
X717547D01*
Y459738D01*
X716277Y458468D01*
X727704Y452120D02*
X722626D01*
X727704Y457198D01*
Y458468D01*
X726434Y459738D01*
X723895D01*
X722626Y458468D01*
X643888Y137158D02*
X642619Y138427D01*
X640080D01*
X638810Y137158D01*
Y132080D01*
X640080Y130810D01*
X642619D01*
X643888Y132080D01*
X646428Y130810D02*
X648967D01*
X647697D01*
Y138427D01*
X646428Y137158D01*
X652775Y130810D02*
X655315D01*
X654045D01*
Y138427D01*
X652775Y137158D01*
X497842Y240028D02*
X496572Y238759D01*
Y236220D01*
X497842Y234950D01*
X502920D01*
X504190Y236220D01*
Y238759D01*
X502920Y240028D01*
X504190Y242568D02*
Y245107D01*
Y243837D01*
X496572D01*
X497842Y242568D01*
Y248916D02*
X496572Y250185D01*
Y252724D01*
X497842Y253994D01*
X502920D01*
X504190Y252724D01*
Y250185D01*
X502920Y248916D01*
X497842D01*
X793748Y356868D02*
X792479Y358138D01*
X789940D01*
X788670Y356868D01*
Y351790D01*
X789940Y350520D01*
X792479D01*
X793748Y351790D01*
X796288D02*
X797557Y350520D01*
X800096D01*
X801366Y351790D01*
Y356868D01*
X800096Y358138D01*
X797557D01*
X796288Y356868D01*
Y355598D01*
X797557Y354329D01*
X801366D01*
X495302Y397508D02*
X494033Y396239D01*
Y393700D01*
X495302Y392430D01*
X500380D01*
X501650Y393700D01*
Y396239D01*
X500380Y397508D01*
X495302Y400047D02*
X494033Y401317D01*
Y403856D01*
X495302Y405126D01*
X496572D01*
X497841Y403856D01*
X499111Y405126D01*
X500380D01*
X501650Y403856D01*
Y401317D01*
X500380Y400047D01*
X499111D01*
X497841Y401317D01*
X496572Y400047D01*
X495302D01*
X497841Y401317D02*
Y403856D01*
X793748Y220978D02*
X792479Y222248D01*
X789940D01*
X788670Y220978D01*
Y215900D01*
X789940Y214630D01*
X792479D01*
X793748Y215900D01*
X796288Y222248D02*
X801366D01*
Y220978D01*
X796288Y215900D01*
Y214630D01*
X666748Y137158D02*
X665479Y138427D01*
X662940D01*
X661670Y137158D01*
Y132080D01*
X662940Y130810D01*
X665479D01*
X666748Y132080D01*
X674366Y138427D02*
X671827Y137158D01*
X669287Y134619D01*
Y132080D01*
X670557Y130810D01*
X673096D01*
X674366Y132080D01*
Y133349D01*
X673096Y134619D01*
X669287D01*
X514348Y378458D02*
X513079Y379728D01*
X510540D01*
X509270Y378458D01*
Y373380D01*
X510540Y372110D01*
X513079D01*
X514348Y373380D01*
X521966Y379728D02*
X516888D01*
Y375919D01*
X519427Y377188D01*
X520696D01*
X521966Y375919D01*
Y373380D01*
X520696Y372110D01*
X518157D01*
X516888Y373380D01*
X612138Y459738D02*
X610869Y461007D01*
X608330D01*
X607060Y459738D01*
Y454660D01*
X608330Y453390D01*
X610869D01*
X612138Y454660D01*
X618486Y453390D02*
Y461007D01*
X614678Y457199D01*
X619756D01*
X681988Y458468D02*
X680719Y459738D01*
X678180D01*
X676910Y458468D01*
Y453390D01*
X678180Y452120D01*
X680719D01*
X681988Y453390D01*
X684528Y458468D02*
X685797Y459738D01*
X688336D01*
X689606Y458468D01*
Y457198D01*
X688336Y455929D01*
X687067D01*
X688336D01*
X689606Y454659D01*
Y453390D01*
X688336Y452120D01*
X685797D01*
X684528Y453390D01*
X473712Y21588D02*
X472443Y20319D01*
Y17780D01*
X473712Y16510D01*
X478790D01*
X480060Y17780D01*
Y20319D01*
X478790Y21588D01*
X480060Y29206D02*
Y24128D01*
X474982Y29206D01*
X473712D01*
X472443Y27936D01*
Y25397D01*
X473712Y24128D01*
X491488Y132078D02*
X490219Y133348D01*
X487680D01*
X486410Y132078D01*
Y127000D01*
X487680Y125730D01*
X490219D01*
X491488Y127000D01*
X494027Y125730D02*
X496567D01*
X495297D01*
Y133348D01*
X494027Y132078D01*
X138433Y363220D02*
X146050Y368298D01*
X138433D02*
X146050Y363220D01*
Y370838D02*
Y373377D01*
Y372107D01*
X138433D01*
X139702Y370838D01*
X890272Y45718D02*
X889003Y44449D01*
Y41910D01*
X890272Y40640D01*
X891542D01*
X892811Y41910D01*
Y44449D01*
X894081Y45718D01*
X895350D01*
X896620Y44449D01*
Y41910D01*
X895350Y40640D01*
X889003Y48257D02*
X896620D01*
X894081Y50797D01*
X896620Y53336D01*
X889003D01*
X890272Y55875D02*
X889003Y57145D01*
Y59684D01*
X890272Y60953D01*
X895350D01*
X896620Y59684D01*
Y57145D01*
X895350Y55875D01*
X890272D01*
Y142238D02*
X889003Y140969D01*
Y138430D01*
X890272Y137160D01*
X891542D01*
X892811Y138430D01*
Y140969D01*
X894081Y142238D01*
X895350D01*
X896620Y140969D01*
Y138430D01*
X895350Y137160D01*
X889003Y144777D02*
X896620D01*
X894081Y147317D01*
X896620Y149856D01*
X889003D01*
X896620Y152395D02*
Y154934D01*
Y153665D01*
X889003D01*
X890272Y152395D01*
Y450848D02*
X889003Y449579D01*
Y447040D01*
X890272Y445770D01*
X891542D01*
X892811Y447040D01*
Y449579D01*
X894081Y450848D01*
X895350D01*
X896620Y449579D01*
Y447040D01*
X895350Y445770D01*
X889003Y453387D02*
X896620D01*
X894081Y455927D01*
X896620Y458466D01*
X889003D01*
X896620Y466083D02*
Y461005D01*
X891542Y466083D01*
X890272D01*
X889003Y464814D01*
Y462275D01*
X890272Y461005D01*
Y546098D02*
X889003Y544829D01*
Y542290D01*
X890272Y541020D01*
X891542D01*
X892811Y542290D01*
Y544829D01*
X894081Y546098D01*
X895350D01*
X896620Y544829D01*
Y542290D01*
X895350Y541020D01*
X889003Y548638D02*
X896620D01*
X894081Y551177D01*
X896620Y553716D01*
X889003D01*
X890272Y556255D02*
X889003Y557525D01*
Y560064D01*
X890272Y561333D01*
X891542D01*
X892811Y560064D01*
Y558794D01*
Y560064D01*
X894081Y561333D01*
X895350D01*
X896620Y560064D01*
Y557525D01*
X895350Y556255D01*
X727710Y440689D02*
X732788D01*
X730249Y443228D02*
Y438150D01*
X735328Y443228D02*
X736597Y444497D01*
X739136D01*
X740406Y443228D01*
Y441958D01*
X739136Y440689D01*
X737867D01*
X739136D01*
X740406Y439419D01*
Y438150D01*
X739136Y436880D01*
X736597D01*
X735328Y438150D01*
X742945Y444497D02*
Y439419D01*
X745484Y436880D01*
X748023Y439419D01*
Y444497D01*
X750563Y443228D02*
X751832Y444497D01*
X754371D01*
X755641Y443228D01*
Y441958D01*
X754371Y440689D01*
X753102D01*
X754371D01*
X755641Y439419D01*
Y438150D01*
X754371Y436880D01*
X751832D01*
X750563Y438150D01*
X769621Y464820D02*
Y469898D01*
X767082Y467359D02*
X772160D01*
X767082Y472438D02*
X765813Y473707D01*
Y476246D01*
X767082Y477516D01*
X768352D01*
X769621Y476246D01*
Y474977D01*
Y476246D01*
X770891Y477516D01*
X772160D01*
X773430Y476246D01*
Y473707D01*
X772160Y472438D01*
X765813Y480055D02*
X770891D01*
X773430Y482594D01*
X770891Y485133D01*
X765813D01*
X767082Y487673D02*
X765813Y488942D01*
Y491481D01*
X767082Y492751D01*
X768352D01*
X769621Y491481D01*
Y490212D01*
Y491481D01*
X770891Y492751D01*
X772160D01*
X773430Y491481D01*
Y488942D01*
X772160Y487673D01*
X796291Y472440D02*
Y477518D01*
X793752Y474979D02*
X798830D01*
X792483Y485136D02*
Y480057D01*
X796291D01*
X795022Y482597D01*
Y483866D01*
X796291Y485136D01*
X798830D01*
X800100Y483866D01*
Y481327D01*
X798830Y480057D01*
X792483Y487675D02*
X797561D01*
X800100Y490214D01*
X797561Y492753D01*
X792483D01*
X601980Y152399D02*
X607058D01*
X604519Y154938D02*
Y149860D01*
X609598Y154938D02*
X610867Y156208D01*
X613406D01*
X614676Y154938D01*
Y153668D01*
X613406Y152399D01*
X612137D01*
X613406D01*
X614676Y151129D01*
Y149860D01*
X613406Y148590D01*
X610867D01*
X609598Y149860D01*
X617215Y156208D02*
Y151129D01*
X619754Y148590D01*
X622293Y151129D01*
Y156208D01*
X624833Y154938D02*
X626102Y156208D01*
X628641D01*
X629911Y154938D01*
Y153668D01*
X628641Y152399D01*
X627372D01*
X628641D01*
X629911Y151129D01*
Y149860D01*
X628641Y148590D01*
X626102D01*
X624833Y149860D01*
X806450Y354329D02*
X811528D01*
X808989Y356868D02*
Y351790D01*
X814068Y356868D02*
X815337Y358138D01*
X817876D01*
X819146Y356868D01*
Y355598D01*
X817876Y354329D01*
X816607D01*
X817876D01*
X819146Y353059D01*
Y351790D01*
X817876Y350520D01*
X815337D01*
X814068Y351790D01*
X821685Y358138D02*
Y353059D01*
X824224Y350520D01*
X826763Y353059D01*
Y358138D01*
X829303Y356868D02*
X830572Y358138D01*
X833111D01*
X834381Y356868D01*
Y355598D01*
X833111Y354329D01*
X831842D01*
X833111D01*
X834381Y353059D01*
Y351790D01*
X833111Y350520D01*
X830572D01*
X829303Y351790D01*
X807720Y193039D02*
X812798D01*
X810259Y195578D02*
Y190500D01*
X815338Y189230D02*
X817877D01*
X816607D01*
Y196847D01*
X815338Y195578D01*
X821685Y196847D02*
Y191769D01*
X824225Y189230D01*
X826764Y191769D01*
Y196847D01*
X834381Y189230D02*
X829303D01*
X834381Y194308D01*
Y195578D01*
X833112Y196847D01*
X830573D01*
X829303Y195578D01*
X290830Y104140D02*
Y109218D01*
X293369Y111757D01*
X295908Y109218D01*
Y104140D01*
Y107949D01*
X290830D01*
X303526Y110488D02*
X302256Y111757D01*
X299717D01*
X298447Y110488D01*
Y105410D01*
X299717Y104140D01*
X302256D01*
X303526Y105410D01*
Y107949D01*
X300987D01*
X306065Y104140D02*
Y111757D01*
X311143Y104140D01*
Y111757D01*
X313683D02*
Y104140D01*
X317491D01*
X318761Y105410D01*
Y110488D01*
X317491Y111757D01*
X313683D01*
X339088Y167638D02*
X337819Y168908D01*
X335280D01*
X334010Y167638D01*
Y162560D01*
X335280Y161290D01*
X337819D01*
X339088Y162560D01*
Y165099D01*
X336549D01*
X341628Y161290D02*
Y168908D01*
X346706Y161290D01*
Y168908D01*
X349245D02*
Y161290D01*
X353054D01*
X354323Y162560D01*
Y167638D01*
X353054Y168908D01*
X349245D01*
X69850Y231140D02*
Y238757D01*
X73659D01*
X74928Y237488D01*
Y234949D01*
X73659Y233679D01*
X69850D01*
X82546Y237488D02*
X81276Y238757D01*
X78737D01*
X77467Y237488D01*
Y232410D01*
X78737Y231140D01*
X81276D01*
X82546Y232410D01*
Y234949D01*
X80007D01*
X85085Y231140D02*
Y238757D01*
X90163Y231140D01*
Y238757D01*
X92703D02*
Y231140D01*
X96511D01*
X97781Y232410D01*
Y237488D01*
X96511Y238757D01*
X92703D01*
X307340Y462279D02*
X312418D01*
X309879Y464818D02*
Y459740D01*
X314958Y458470D02*
X317497D01*
X316227D01*
Y466087D01*
X314958Y464818D01*
X321306Y466087D02*
Y461009D01*
X323845Y458470D01*
X326384Y461009D01*
Y466087D01*
X334001Y458470D02*
X328923D01*
X334001Y463548D01*
Y464818D01*
X332732Y466087D01*
X330193D01*
X328923Y464818D01*
X120650Y515619D02*
X125728D01*
X123189Y518158D02*
Y513080D01*
X128267Y518158D02*
X129537Y519427D01*
X132076D01*
X133346Y518158D01*
Y516888D01*
X132076Y515619D01*
X130807D01*
X132076D01*
X133346Y514349D01*
Y513080D01*
X132076Y511810D01*
X129537D01*
X128267Y513080D01*
X135885Y519427D02*
Y514349D01*
X138424Y511810D01*
X140963Y514349D01*
Y519427D01*
X143503Y518158D02*
X144772Y519427D01*
X147311D01*
X148581Y518158D01*
Y516888D01*
X147311Y515619D01*
X146042D01*
X147311D01*
X148581Y514349D01*
Y513080D01*
X147311Y511810D01*
X144772D01*
X143503Y513080D01*
X124460Y464819D02*
X129538D01*
X126999Y467358D02*
Y462280D01*
X137156Y468628D02*
X132078D01*
Y464819D01*
X134617Y466088D01*
X135886D01*
X137156Y464819D01*
Y462280D01*
X135886Y461010D01*
X133347D01*
X132078Y462280D01*
X139695Y468628D02*
Y463549D01*
X142234Y461010D01*
X144773Y463549D01*
Y468628D01*
X557530Y97788D02*
Y92709D01*
X560069Y90170D01*
X562608Y92709D01*
Y97788D01*
X565148Y90170D02*
Y97788D01*
X568956D01*
X570226Y96518D01*
Y93979D01*
X568956Y92709D01*
X565148D01*
X567687D02*
X570226Y90170D01*
X577843Y97788D02*
X572765D01*
Y90170D01*
X577843D01*
X572765Y93979D02*
X575304D01*
X585461Y97788D02*
X580383D01*
Y93979D01*
X582922D01*
X580383D01*
Y90170D01*
X82552Y316230D02*
X88900D01*
X90170Y317500D01*
Y320039D01*
X88900Y321308D01*
X82552D01*
X83822Y328926D02*
X82552Y327656D01*
Y325117D01*
X83822Y323848D01*
X85092D01*
X86361Y325117D01*
Y327656D01*
X87631Y328926D01*
X88900D01*
X90170Y327656D01*
Y325117D01*
X88900Y323848D01*
X82552Y331465D02*
X90170D01*
Y335274D01*
X88900Y336543D01*
X87631D01*
X86361Y335274D01*
Y331465D01*
Y335274D01*
X85092Y336543D01*
X83822D01*
X82552Y335274D01*
Y331465D01*
X91440Y339083D02*
Y344161D01*
X82552Y346700D02*
X90170D01*
Y350509D01*
X88900Y351778D01*
X87631D01*
X86361Y350509D01*
Y346700D01*
Y350509D01*
X85092Y351778D01*
X83822D01*
X82552Y350509D01*
Y346700D01*
Y354318D02*
X88900D01*
X90170Y355587D01*
Y358126D01*
X88900Y359396D01*
X82552D01*
X83822Y367014D02*
X82552Y365744D01*
Y363205D01*
X83822Y361935D01*
X85092D01*
X86361Y363205D01*
Y365744D01*
X87631Y367014D01*
X88900D01*
X90170Y365744D01*
Y363205D01*
X88900Y361935D01*
X491492Y15240D02*
Y22011D01*
X488106Y18626D02*
X494877D01*
X523242Y15240D02*
Y22011D01*
X519856Y18626D02*
X526627D01*
X781052Y259080D02*
Y265851D01*
X777666Y262466D02*
X784437D01*
X468632Y276860D02*
Y283631D01*
X465246Y280246D02*
X472017D01*
X238762Y412750D02*
Y419521D01*
X235376Y416136D02*
X242147D01*
X209552Y411480D02*
Y418251D01*
X206166Y414866D02*
X212937D01*
X514352Y477518D02*
X513083Y476249D01*
Y473710D01*
X514352Y472440D01*
X519430D01*
X520700Y473710D01*
Y476249D01*
X519430Y477518D01*
X516891D01*
Y474979D01*
X520700Y480057D02*
X513083D01*
X520700Y485136D01*
X513083D01*
Y487675D02*
X520700D01*
Y491484D01*
X519430Y492753D01*
X514352D01*
X513083Y491484D01*
Y487675D01*
X539752Y477518D02*
X538483Y476249D01*
Y473710D01*
X539752Y472440D01*
X544830D01*
X546100Y473710D01*
Y476249D01*
X544830Y477518D01*
X542291D01*
Y474979D01*
X546100Y480057D02*
X538483D01*
X546100Y485136D01*
X538483D01*
Y487675D02*
X546100D01*
Y491484D01*
X544830Y492753D01*
X539752D01*
X538483Y491484D01*
Y487675D01*
X514352Y567688D02*
X513083Y566419D01*
Y563880D01*
X514352Y562610D01*
X519430D01*
X520700Y563880D01*
Y566419D01*
X519430Y567688D01*
X516891D01*
Y565149D01*
X520700Y570228D02*
X513083D01*
X520700Y575306D01*
X513083D01*
Y577845D02*
X520700D01*
Y581654D01*
X519430Y582923D01*
X514352D01*
X513083Y581654D01*
Y577845D01*
X539752Y567688D02*
X538483Y566419D01*
Y563880D01*
X539752Y562610D01*
X544830D01*
X546100Y563880D01*
Y566419D01*
X544830Y567688D01*
X542291D01*
Y565149D01*
X546100Y570228D02*
X538483D01*
X546100Y575306D01*
X538483D01*
Y577845D02*
X546100D01*
Y581654D01*
X544830Y582923D01*
X539752D01*
X538483Y581654D01*
Y577845D01*
X740413Y472440D02*
X748030D01*
Y477518D01*
Y483866D02*
X740413D01*
X744221Y480057D01*
Y485136D01*
X740413Y487675D02*
X748030D01*
Y491484D01*
X746760Y492753D01*
X745491D01*
X744221Y491484D01*
Y487675D01*
Y491484D01*
X742952Y492753D01*
X741682D01*
X740413Y491484D01*
Y487675D01*
X770891Y560070D02*
Y565148D01*
X768352Y562609D02*
X773430D01*
X768352Y567687D02*
X767083Y568957D01*
Y571496D01*
X768352Y572766D01*
X769622D01*
X770891Y571496D01*
Y570227D01*
Y571496D01*
X772161Y572766D01*
X773430D01*
X774700Y571496D01*
Y568957D01*
X773430Y567687D01*
X767083Y575305D02*
X772161D01*
X774700Y577844D01*
X772161Y580383D01*
X767083D01*
X768352Y582923D02*
X767083Y584192D01*
Y586731D01*
X768352Y588001D01*
X769622D01*
X770891Y586731D01*
Y585462D01*
Y586731D01*
X772161Y588001D01*
X773430D01*
X774700Y586731D01*
Y584192D01*
X773430Y582923D01*
X795021Y560070D02*
Y565148D01*
X792482Y562609D02*
X797560D01*
X791212Y572766D02*
Y567687D01*
X795021D01*
X793752Y570227D01*
Y571496D01*
X795021Y572766D01*
X797560D01*
X798830Y571496D01*
Y568957D01*
X797560Y567687D01*
X791212Y575305D02*
X796291D01*
X798830Y577844D01*
X796291Y580383D01*
X791212D01*
X716283Y562610D02*
X723900D01*
Y567688D01*
X716283Y575306D02*
Y570228D01*
X720091D01*
X718822Y572767D01*
Y574036D01*
X720091Y575306D01*
X722630D01*
X723900Y574036D01*
Y571497D01*
X722630Y570228D01*
X723900Y577845D02*
X718822D01*
X716283Y580384D01*
X718822Y582923D01*
X723900D01*
X720091D01*
Y577845D01*
X690882Y562610D02*
X698500D01*
Y567688D01*
X692152Y570228D02*
X690882Y571497D01*
Y574036D01*
X692152Y575306D01*
X693422D01*
X694691Y574036D01*
X695961Y575306D01*
X697230D01*
X698500Y574036D01*
Y571497D01*
X697230Y570228D01*
X695961D01*
X694691Y571497D01*
X693422Y570228D01*
X692152D01*
X694691Y571497D02*
Y574036D01*
X698500Y577845D02*
X693422D01*
X690882Y580384D01*
X693422Y582923D01*
X698500D01*
X694691D01*
Y577845D01*
X664212Y562610D02*
X671830D01*
Y567688D01*
Y570228D02*
Y572767D01*
Y571497D01*
X664212D01*
X665482Y570228D01*
Y576576D02*
X664212Y577845D01*
Y580384D01*
X665482Y581654D01*
X670560D01*
X671830Y580384D01*
Y577845D01*
X670560Y576576D01*
X665482D01*
X671830Y584193D02*
X666752D01*
X664212Y586732D01*
X666752Y589271D01*
X671830D01*
X668021D01*
Y584193D01*
X640082Y562610D02*
X647700D01*
Y567688D01*
Y570228D02*
Y572767D01*
Y571497D01*
X640082D01*
X641352Y570228D01*
X647700Y581654D02*
Y576576D01*
X642622Y581654D01*
X641352D01*
X640082Y580384D01*
Y577845D01*
X641352Y576576D01*
X647700Y584193D02*
X642622D01*
X640082Y586732D01*
X642622Y589271D01*
X647700D01*
X643891D01*
Y584193D01*
X741683Y562610D02*
X749300D01*
Y567688D01*
Y574036D02*
X741683D01*
X745491Y570228D01*
Y575306D01*
X749300Y577845D02*
X744222D01*
X741683Y580384D01*
X744222Y582923D01*
X749300D01*
X745491D01*
Y577845D01*
X716283Y472440D02*
X723900D01*
Y477518D01*
X716283Y485136D02*
Y480057D01*
X720091D01*
X718822Y482597D01*
Y483866D01*
X720091Y485136D01*
X722630D01*
X723900Y483866D01*
Y481327D01*
X722630Y480057D01*
X716283Y487675D02*
X723900D01*
Y491484D01*
X722630Y492753D01*
X721361D01*
X720091Y491484D01*
Y487675D01*
Y491484D01*
X718822Y492753D01*
X717552D01*
X716283Y491484D01*
Y487675D01*
X690882Y472440D02*
X698500D01*
Y477518D01*
X692152Y480057D02*
X690882Y481327D01*
Y483866D01*
X692152Y485136D01*
X693422D01*
X694691Y483866D01*
X695961Y485136D01*
X697230D01*
X698500Y483866D01*
Y481327D01*
X697230Y480057D01*
X695961D01*
X694691Y481327D01*
X693422Y480057D01*
X692152D01*
X694691Y481327D02*
Y483866D01*
X690882Y487675D02*
X698500D01*
Y491484D01*
X697230Y492753D01*
X695961D01*
X694691Y491484D01*
Y487675D01*
Y491484D01*
X693422Y492753D01*
X692152D01*
X690882Y491484D01*
Y487675D01*
X665482Y466090D02*
X673100D01*
Y471168D01*
Y473708D02*
Y476247D01*
Y474977D01*
X665482D01*
X666752Y473708D01*
Y480056D02*
X665482Y481325D01*
Y483864D01*
X666752Y485134D01*
X671830D01*
X673100Y483864D01*
Y481325D01*
X671830Y480056D01*
X666752D01*
X665482Y487673D02*
X673100D01*
Y491482D01*
X671830Y492751D01*
X670561D01*
X669291Y491482D01*
Y487673D01*
Y491482D01*
X668022Y492751D01*
X666752D01*
X665482Y491482D01*
Y487673D01*
X640082Y466090D02*
X647700D01*
Y471168D01*
Y473708D02*
Y476247D01*
Y474977D01*
X640082D01*
X641352Y473708D01*
X647700Y485134D02*
Y480056D01*
X642622Y485134D01*
X641352D01*
X640082Y483864D01*
Y481325D01*
X641352Y480056D01*
X640082Y487673D02*
X647700D01*
Y491482D01*
X646430Y492751D01*
X645161D01*
X643891Y491482D01*
Y487673D01*
Y491482D01*
X642622Y492751D01*
X641352D01*
X640082Y491482D01*
Y487673D01*
X614683Y562610D02*
X622300D01*
Y567688D01*
Y570228D02*
Y572767D01*
Y571497D01*
X614683D01*
X615952Y570228D01*
X614683Y576576D02*
Y581654D01*
X615952D01*
X621030Y576576D01*
X622300D01*
Y584193D02*
X617222D01*
X614683Y586732D01*
X617222Y589271D01*
X622300D01*
X618491D01*
Y584193D01*
X589282Y562610D02*
X596900D01*
Y567688D01*
Y570228D02*
Y572767D01*
Y571497D01*
X589282D01*
X590552Y570228D01*
Y576576D02*
X589282Y577845D01*
Y580384D01*
X590552Y581654D01*
X591822D01*
X593091Y580384D01*
X594361Y581654D01*
X595630D01*
X596900Y580384D01*
Y577845D01*
X595630Y576576D01*
X594361D01*
X593091Y577845D01*
X591822Y576576D01*
X590552D01*
X593091Y577845D02*
Y580384D01*
X596900Y584193D02*
X591822D01*
X589282Y586732D01*
X591822Y589271D01*
X596900D01*
X593091D01*
Y584193D01*
X563882Y562610D02*
X571500D01*
Y567688D01*
Y575306D02*
Y570228D01*
X566422Y575306D01*
X565152D01*
X563882Y574036D01*
Y571497D01*
X565152Y570228D01*
Y577845D02*
X563882Y579115D01*
Y581654D01*
X565152Y582923D01*
X566422D01*
X567691Y581654D01*
Y580384D01*
Y581654D01*
X568961Y582923D01*
X570230D01*
X571500Y581654D01*
Y579115D01*
X570230Y577845D01*
X571500Y585463D02*
X566422D01*
X563882Y588002D01*
X566422Y590541D01*
X571500D01*
X567691D01*
Y585463D01*
X563882Y464820D02*
X571500D01*
Y469898D01*
Y477516D02*
Y472438D01*
X566422Y477516D01*
X565152D01*
X563882Y476246D01*
Y473707D01*
X565152Y472438D01*
Y480055D02*
X563882Y481325D01*
Y483864D01*
X565152Y485133D01*
X566422D01*
X567691Y483864D01*
Y482594D01*
Y483864D01*
X568961Y485133D01*
X570230D01*
X571500Y483864D01*
Y481325D01*
X570230Y480055D01*
X563882Y487673D02*
X571500D01*
Y491481D01*
X570230Y492751D01*
X568961D01*
X567691Y491481D01*
Y487673D01*
Y491481D01*
X566422Y492751D01*
X565152D01*
X563882Y491481D01*
Y487673D01*
X589282Y466090D02*
X596900D01*
Y471168D01*
Y473708D02*
Y476247D01*
Y474977D01*
X589282D01*
X590552Y473708D01*
Y480056D02*
X589282Y481325D01*
Y483864D01*
X590552Y485134D01*
X591822D01*
X593091Y483864D01*
X594361Y485134D01*
X595630D01*
X596900Y483864D01*
Y481325D01*
X595630Y480056D01*
X594361D01*
X593091Y481325D01*
X591822Y480056D01*
X590552D01*
X593091Y481325D02*
Y483864D01*
X589282Y487673D02*
X596900D01*
Y491482D01*
X595630Y492751D01*
X594361D01*
X593091Y491482D01*
Y487673D01*
Y491482D01*
X591822Y492751D01*
X590552D01*
X589282Y491482D01*
Y487673D01*
X614683Y466090D02*
X622300D01*
Y471168D01*
Y473708D02*
Y476247D01*
Y474977D01*
X614683D01*
X615952Y473708D01*
X614683Y480056D02*
Y485134D01*
X615952D01*
X621030Y480056D01*
X622300D01*
X614683Y487673D02*
X622300D01*
Y491482D01*
X621030Y492751D01*
X619761D01*
X618491Y491482D01*
Y487673D01*
Y491482D01*
X617222Y492751D01*
X615952D01*
X614683Y491482D01*
Y487673D01*
X767080Y15240D02*
Y22857D01*
X770889D01*
X772158Y21588D01*
Y19049D01*
X770889Y17779D01*
X767080D01*
X774697Y22857D02*
Y15240D01*
X777237Y17779D01*
X779776Y15240D01*
Y22857D01*
X782315Y15240D02*
Y22857D01*
X784854Y20318D01*
X787393Y22857D01*
Y15240D01*
X789933Y13970D02*
X795011D01*
X801359Y22857D02*
X798820D01*
X797550Y21588D01*
Y16510D01*
X798820Y15240D01*
X801359D01*
X802628Y16510D01*
Y21588D01*
X801359Y22857D01*
X805168D02*
Y16510D01*
X806437Y15240D01*
X808977D01*
X810246Y16510D01*
Y22857D01*
X812785D02*
X817864D01*
X815324D01*
Y15240D01*
X768350Y78740D02*
Y86357D01*
X772159D01*
X773428Y85088D01*
Y82549D01*
X772159Y81279D01*
X768350D01*
X775967Y86357D02*
Y78740D01*
X778507Y81279D01*
X781046Y78740D01*
Y86357D01*
X783585Y78740D02*
Y86357D01*
X786124Y83818D01*
X788663Y86357D01*
Y78740D01*
X791203Y77470D02*
X796281D01*
X798820Y78740D02*
Y86357D01*
X802629D01*
X803898Y85088D01*
Y82549D01*
X802629Y81279D01*
X798820D01*
X806438Y86357D02*
X808977D01*
X807707D01*
Y78740D01*
X806438D01*
X808977D01*
X812786D02*
Y86357D01*
X817864Y78740D01*
Y86357D01*
D46*
X45340Y236570D02*
X61340D01*
X45340Y248570D02*
X61340D01*
X470930Y92950D02*
Y122950D01*
X440930Y92950D02*
Y122950D01*
X484490Y99450D02*
Y116450D01*
X498490Y99450D02*
Y116450D01*
X482490Y34800D02*
Y66800D01*
X500490Y34800D02*
Y66800D01*
X472030Y42800D02*
Y58800D01*
Y60700D01*
X471930Y60800D02*
X472030Y60700D01*
X469930Y60800D02*
X471930D01*
X472030Y40800D02*
Y42800D01*
X469930Y40800D02*
X472030D01*
X439930D02*
X442030D01*
X439930D02*
Y42800D01*
X440030Y60800D02*
X442030D01*
X439930Y60700D02*
X440030Y60800D01*
X439930Y58800D02*
Y60700D01*
Y42800D02*
Y58800D01*
X450930Y40800D02*
X460930D01*
X514240Y34800D02*
Y66800D01*
X532240Y34800D02*
Y66800D01*
X559610Y57800D02*
X565610D01*
X546610Y42800D02*
Y57800D01*
Y42800D02*
X555610D01*
X578610D02*
Y57800D01*
X569610Y42800D02*
X578610D01*
X592440Y42300D02*
Y59300D01*
X606440Y42300D02*
Y59300D01*
X381000Y234950D02*
Y285750D01*
X431800Y234950D02*
Y285750D01*
X393700Y234950D02*
X419100D01*
X381000Y285750D02*
X431800D01*
X381000Y234950D02*
X393700D01*
X419100D02*
X431800D01*
X236840Y53230D02*
Y71230D01*
X250840Y53230D02*
Y71230D01*
X155560Y53730D02*
Y70730D01*
X169560Y53730D02*
Y70730D01*
X230520Y53230D02*
Y71230D01*
X216520Y53230D02*
Y71230D01*
X196200Y53230D02*
Y71230D01*
X210200Y53230D02*
Y71230D01*
X522620Y236610D02*
Y253610D01*
X508620Y236610D02*
Y253610D01*
X710550Y425840D02*
Y442840D01*
X724550Y425840D02*
Y442840D01*
X813420Y255160D02*
Y273160D01*
X827420Y255160D02*
Y273160D01*
Y293760D02*
Y310760D01*
X813420Y293760D02*
Y310760D01*
X785981Y267210D02*
Y299210D01*
X803981Y267210D02*
Y299210D01*
X474870Y284990D02*
Y316990D01*
X492870Y284990D02*
Y316990D01*
X522469Y272940D02*
Y290940D01*
X508469Y272940D02*
Y290940D01*
X522620Y309000D02*
Y326000D01*
X508620Y309000D02*
Y326000D01*
Y202320D02*
Y219320D01*
X522620Y202320D02*
Y219320D01*
X654700Y146440D02*
Y163440D01*
X640700Y146440D02*
Y163440D01*
X788020Y322970D02*
Y339970D01*
X802020Y322970D02*
Y339970D01*
X737470Y159940D02*
X750920D01*
X750970Y145940D02*
Y163940D01*
X737470Y145840D02*
Y163840D01*
X308843Y248450D02*
Y261950D01*
X295844Y248450D02*
X308843D01*
X208843D02*
X296343D01*
X208843D02*
Y260450D01*
Y337950D01*
X219343Y348450D01*
X308843D01*
Y261950D02*
Y348450D01*
X130160Y534560D02*
Y552560D01*
X144160Y534560D02*
Y552560D01*
X43800Y416450D02*
Y434450D01*
X57800Y416450D02*
Y434450D01*
X900320Y371557D02*
X918320D01*
X900320Y385558D02*
X918320D01*
X900320Y351503D02*
X918320D01*
X900320Y365503D02*
X918320D01*
X900320Y329006D02*
X918320D01*
X900320Y343006D02*
X918320D01*
X900320Y306509D02*
X918320D01*
X900320Y320509D02*
X918320D01*
X862950Y118000D02*
Y136000D01*
X876950Y118000D02*
Y136000D01*
X900320Y284011D02*
X918320D01*
X900320Y298011D02*
X918320D01*
X900320Y261514D02*
X918320D01*
X900320Y275514D02*
X918320D01*
X900320Y239017D02*
X918320D01*
X900320Y253017D02*
X918320D01*
X900320Y216520D02*
X918320D01*
X900320Y230520D02*
X918320D01*
X83170Y53230D02*
Y71230D01*
X97170Y53230D02*
Y71230D01*
X103490Y53230D02*
Y71230D01*
X117490Y53230D02*
Y71230D01*
X56530Y53230D02*
Y71230D01*
X42530Y53230D02*
Y71230D01*
X22210Y53230D02*
Y71230D01*
X36210Y53230D02*
Y71230D01*
X148605Y270400D02*
Y288400D01*
X134605Y270400D02*
Y288400D01*
X104760Y270400D02*
Y288400D01*
X118760Y270400D02*
Y288400D01*
X657970Y421340D02*
X662970D01*
Y426340D01*
X634470Y421340D02*
Y426340D01*
Y421340D02*
X639470D01*
X634470Y442340D02*
Y447340D01*
X639470D01*
X663470Y442340D02*
Y447340D01*
X658470D02*
X663470D01*
X431800Y311150D02*
Y336550D01*
X381000Y311150D02*
Y336550D01*
X431800D01*
X381000Y311150D02*
X431800D01*
X90080Y535060D02*
X92080D01*
X78580Y561060D02*
X92080D01*
X45080D02*
X58080D01*
X45080Y535060D02*
X47080D01*
X45080D02*
Y561060D01*
X92080Y535060D02*
Y561060D01*
X256450Y535060D02*
X258450D01*
X244950Y561060D02*
X258450D01*
X211450D02*
X224450D01*
X211450Y535060D02*
X213450D01*
X211450D02*
Y561060D01*
X258450Y535060D02*
Y561060D01*
X43850Y112080D02*
Y152080D01*
X95850Y112080D02*
Y152080D01*
X525430Y99950D02*
Y115950D01*
X513430Y99950D02*
Y115950D01*
X19400Y454280D02*
Y470280D01*
X31400Y454280D02*
Y470280D01*
X196500Y455550D02*
Y471550D01*
X184500Y455550D02*
Y471550D01*
X285400Y454280D02*
Y470280D01*
X273400Y454280D02*
Y470280D01*
X158130Y537060D02*
Y550060D01*
X169530Y537060D02*
Y550060D01*
X158130Y541960D02*
X169530D01*
X56500Y455780D02*
Y468780D01*
X45100Y455780D02*
Y468780D01*
Y463880D02*
X56500D01*
X97820Y421500D02*
Y467500D01*
X69820Y421500D02*
Y467500D01*
X70820Y435500D02*
X97820D01*
X940920Y374157D02*
X953920D01*
X940920Y385558D02*
X953920D01*
X949020Y374157D02*
Y385558D01*
X940920Y352803D02*
X953920D01*
X940920Y364203D02*
X953920D01*
X949020Y352803D02*
Y364203D01*
X940920Y330306D02*
X953920D01*
X940920Y341706D02*
X953920D01*
X949020Y330306D02*
Y341706D01*
X940920Y307809D02*
X953920D01*
X940920Y319209D02*
X953920D01*
X949020Y307809D02*
Y319209D01*
X940920Y285311D02*
X953920D01*
X940920Y296711D02*
X953920D01*
X949020Y285311D02*
Y296711D01*
X940920Y262814D02*
X953920D01*
X940920Y274214D02*
X953920D01*
X949020Y262814D02*
Y274214D01*
X940920Y240317D02*
X953920D01*
X940920Y251717D02*
X953920D01*
X949020Y240317D02*
Y251717D01*
X940920Y217820D02*
X953920D01*
X940920Y229220D02*
X953920D01*
X949020Y217820D02*
Y229220D01*
X7030Y257220D02*
X74530D01*
Y342220D01*
X7030D02*
X74530D01*
X7030Y257220D02*
Y342220D01*
X18400Y535060D02*
Y552060D01*
X32400Y535060D02*
Y552060D01*
X286400Y535060D02*
Y552060D01*
X272400Y535060D02*
Y552060D01*
X197500Y535060D02*
Y552060D01*
X183500Y535060D02*
Y552060D01*
X117490Y535060D02*
Y552060D01*
X103490Y535060D02*
Y552060D01*
X32400Y416950D02*
Y433950D01*
X18400Y416950D02*
Y433950D01*
X859140Y465210D02*
Y482210D01*
X873140Y465210D02*
Y482210D01*
X76850Y53730D02*
Y70730D01*
X62850Y53730D02*
Y70730D01*
X164450Y328050D02*
Y345050D01*
X178450Y328050D02*
Y345050D01*
X104760Y328050D02*
Y345050D01*
X118760Y328050D02*
Y345050D01*
X335900Y340750D02*
Y357750D01*
X349900Y340750D02*
Y357750D01*
X279790Y386730D02*
X296790D01*
X279790Y372730D02*
X296790D01*
X190890Y386730D02*
X207890D01*
X190890Y372730D02*
X207890D01*
X241190Y428500D02*
Y460500D01*
X259190Y428500D02*
Y460500D01*
X272400Y423300D02*
Y440300D01*
X286400Y423300D02*
Y440300D01*
X183500Y423300D02*
Y440300D01*
X197500Y423300D02*
Y440300D01*
X210710Y428500D02*
Y460500D01*
X228710Y428500D02*
Y460500D01*
X334630Y267090D02*
Y284090D01*
X348630Y267090D02*
Y284090D01*
X178450Y270900D02*
Y287900D01*
X164450Y270900D02*
Y287900D01*
X788020Y188350D02*
Y205350D01*
X802020Y188350D02*
Y205350D01*
X661020Y146440D02*
Y163440D01*
X675020Y146440D02*
Y163440D01*
X508620Y345830D02*
Y362830D01*
X522620Y345830D02*
Y362830D01*
X620410Y425840D02*
Y442840D01*
X606410Y425840D02*
Y442840D01*
X127240Y333550D02*
Y339550D01*
X140740Y319050D02*
X143740D01*
X140740Y354550D02*
X143740D01*
X157240Y333550D02*
Y339550D01*
X125240Y348050D02*
X125240D01*
X122740Y350550D02*
X125240Y348050D01*
X122740Y345550D02*
X125240Y348050D01*
X122740Y345550D02*
Y350550D01*
X902450Y19800D02*
Y81800D01*
Y19800D02*
X964450D01*
Y81800D01*
X902450D02*
X964450D01*
X902450Y115050D02*
Y177050D01*
Y115050D02*
X964450D01*
Y177050D01*
X902450D02*
X964450D01*
X902450Y424930D02*
Y486930D01*
Y424930D02*
X964450D01*
Y486930D01*
X902450D02*
X964450D01*
X902450Y520180D02*
Y582180D01*
Y520180D02*
X964450D01*
Y582180D01*
X902450D02*
X964450D01*
X362570Y490110D02*
Y508110D01*
X376570Y490110D02*
Y508110D01*
X400700Y490110D02*
Y508110D01*
X386700Y490110D02*
Y508110D01*
X427370Y490110D02*
Y508110D01*
X413370Y490110D02*
Y508110D01*
X427370Y534560D02*
Y552560D01*
X413370Y534560D02*
Y552560D01*
X376570Y534560D02*
Y552560D01*
X362570Y534560D02*
Y552560D01*
X400700Y534560D02*
Y552560D01*
X386700Y534560D02*
Y552560D01*
X460580Y492360D02*
Y505860D01*
X438580Y492360D02*
Y505860D01*
X460580Y536810D02*
Y550310D01*
X438580Y536810D02*
Y550310D01*
X862950Y22750D02*
Y40750D01*
X876950Y22750D02*
Y40750D01*
X862950Y61350D02*
Y78350D01*
X876950Y61350D02*
Y78350D01*
X862950Y156600D02*
Y173600D01*
X876950Y156600D02*
Y173600D01*
X859140Y561730D02*
Y578730D01*
X873140Y561730D02*
Y578730D01*
X859140Y523130D02*
Y541130D01*
X873140Y523130D02*
Y541130D01*
X859140Y426610D02*
Y444610D01*
X873140Y426610D02*
Y444610D01*
X476870Y201820D02*
Y219820D01*
X490870Y201820D02*
Y219820D01*
X489570Y238610D02*
Y251610D01*
X478170Y238610D02*
Y251610D01*
Y246710D02*
X489570D01*
X489600Y425340D02*
Y443340D01*
X475600Y425340D02*
Y443340D01*
X488370Y342750D02*
Y355750D01*
X479370Y342750D02*
Y355750D01*
Y346750D02*
X488370D01*
X175880Y53230D02*
Y71230D01*
X189880Y53230D02*
Y71230D01*
X177200Y112080D02*
Y152080D01*
X229200Y112080D02*
Y152080D01*
X475600Y387740D02*
Y404740D01*
X489600Y387740D02*
Y404740D01*
X388100Y446290D02*
X450100D01*
Y384290D02*
Y446290D01*
X388100Y384290D02*
X450100D01*
X388100D02*
Y446290D01*
X811530Y501650D02*
Y552450D01*
X501650Y501650D02*
Y552450D01*
Y501650D02*
X811530D01*
X501650Y552450D02*
X811530D01*
X690260Y425840D02*
Y442840D01*
X676260Y425840D02*
Y442840D01*
X297580Y533700D02*
X347580D01*
X297580Y495700D02*
Y545700D01*
X347580Y495700D02*
Y545700D01*
X414650Y102150D02*
X419650D01*
Y12150D02*
Y102150D01*
X329650Y12150D02*
X419650D01*
X329650D02*
Y102150D01*
X334650D01*
X414650D01*
X706750D02*
X711750D01*
Y12150D02*
Y102150D01*
X621750Y12150D02*
X711750D01*
X621750D02*
Y102150D01*
X626750D01*
X706750D01*
X758950Y42300D02*
Y59300D01*
X726950Y42300D02*
Y59300D01*
X767700Y42300D02*
Y59300D01*
X781700Y42300D02*
Y59300D01*
X0Y0D02*
X1000000D01*
Y600000D01*
X0D02*
X1000000D01*
X0Y0D02*
Y600000D01*
D56*
X472344Y127950D02*
G03*
X472344Y127950I-1414J0D01*
G01*
D57*
X205844Y354950D02*
G03*
X205844Y354950I-3000J0D01*
G01*
X744958Y385000D02*
G03*
X744958Y385000I-3000J0D01*
G01*
D58*
X661970Y451340D02*
G03*
X661970Y451340I-1000J0D01*
G01*
X752458Y406000D02*
G03*
X752458Y406000I-1250J0D01*
G01*
D59*
X102350Y160280D02*
G03*
X102350Y160280I-2500J0D01*
G01*
X462830Y510110D02*
G03*
X462830Y510110I-250J0D01*
G01*
Y554560D02*
G03*
X462830Y554560I-250J0D01*
G01*
X235700Y160280D02*
G03*
X235700Y160280I-2500J0D01*
G01*
D60*
X561959Y205000D02*
Y395000D01*
X751958Y205000D02*
Y395000D01*
X561959Y205000D02*
X751958D01*
X561959Y395000D02*
X751958D01*
D61*
X117577Y180213D02*
X123292D01*
X116205Y180442D02*
X124663D01*
X115291Y180670D02*
X125578D01*
X114376Y180899D02*
X126492D01*
X113690Y181127D02*
X127178D01*
X122606Y181356D02*
X127864D01*
X113005D02*
X118262D01*
X124206Y181585D02*
X128321D01*
X112319D02*
X116662D01*
X125120Y181813D02*
X129007D01*
X111862D02*
X115748D01*
X126035Y182042D02*
X129464D01*
X111404D02*
X114833D01*
X126721Y182270D02*
X129921D01*
X110947D02*
X114148D01*
X127406Y182499D02*
X130378D01*
X110490D02*
X113462D01*
X127864Y182728D02*
X130835D01*
X110033D02*
X113005D01*
X128549Y182956D02*
X131064D01*
X109576D02*
X112319D01*
X129007Y183185D02*
X131521D01*
X109347D02*
X111862D01*
X129464Y183413D02*
X131978D01*
X118034D02*
X122834D01*
X108890D02*
X111404D01*
X129921Y183642D02*
X132207D01*
X116662D02*
X124206D01*
X108661D02*
X110947D01*
X130150Y183871D02*
X132664D01*
X115748D02*
X125120D01*
X108204D02*
X110490D01*
X130607Y184099D02*
X132893D01*
X115062D02*
X125806D01*
X107975D02*
X110261D01*
X131064Y184328D02*
X133121D01*
X114376D02*
X126492D01*
X107747D02*
X109804D01*
X131293Y184556D02*
X133579D01*
X122149D02*
X127178D01*
X113690D02*
X118720D01*
X107290D02*
X109576D01*
X131750Y184785D02*
X133807D01*
X123749D02*
X127635D01*
X113233D02*
X117119D01*
X107061D02*
X109118D01*
X131978Y185014D02*
X134036D01*
X124663D02*
X128092D01*
X112547D02*
X116205D01*
X106832D02*
X108890D01*
X132207Y185242D02*
X134264D01*
X125349D02*
X128549D01*
X112090D02*
X115519D01*
X106604D02*
X108433D01*
X132664Y185471D02*
X134493D01*
X126035D02*
X129007D01*
X111862D02*
X114833D01*
X106375D02*
X108204D01*
X132893Y185699D02*
X134722D01*
X126721D02*
X129464D01*
X111404D02*
X114148D01*
X105918D02*
X107975D01*
X133121Y185928D02*
X135179D01*
X127178D02*
X129921D01*
X110947D02*
X113690D01*
X105689D02*
X107747D01*
X133350Y186157D02*
X135407D01*
X127635D02*
X130150D01*
X110719D02*
X113233D01*
X105461D02*
X107290D01*
X133807Y186385D02*
X135636D01*
X128092D02*
X130607D01*
X110261D02*
X112776D01*
X105232D02*
X107061D01*
X134036Y186614D02*
X135636D01*
X128549D02*
X130835D01*
X110033D02*
X112319D01*
X105004D02*
X106832D01*
X134264Y186842D02*
X135865D01*
X129007D02*
X131293D01*
X109576D02*
X111862D01*
X104775D02*
X106604D01*
X134493Y187071D02*
X136093D01*
X129235D02*
X131521D01*
X109347D02*
X111633D01*
X104775D02*
X106375D01*
X134722Y187300D02*
X136322D01*
X129692D02*
X131750D01*
X109118D02*
X111176D01*
X104546D02*
X106147D01*
X134950Y187528D02*
X136550D01*
X129921D02*
X131978D01*
X108890D02*
X110947D01*
X104318D02*
X105918D01*
X135179Y187757D02*
X136779D01*
X130378D02*
X132207D01*
X108433D02*
X110490D01*
X104089D02*
X105689D01*
X135179Y187985D02*
X137008D01*
X130607D02*
X132436D01*
X108204D02*
X110261D01*
X103861D02*
X105461D01*
X135407Y188214D02*
X137008D01*
X130835D02*
X132893D01*
X107975D02*
X110033D01*
X103632D02*
X105461D01*
X135636Y188443D02*
X137236D01*
X131064D02*
X133121D01*
X107747D02*
X109804D01*
X103632D02*
X105232D01*
X135865Y188671D02*
X137465D01*
X131521D02*
X133350D01*
X107518D02*
X109347D01*
X103403D02*
X105004D01*
X136093Y188900D02*
X137693D01*
X131750D02*
X133350D01*
X107290D02*
X109118D01*
X103175D02*
X104775D01*
X136322Y189128D02*
X137693D01*
X131978D02*
X133579D01*
X107061D02*
X108890D01*
X103175D02*
X104546D01*
X136322Y189357D02*
X137922D01*
X132207D02*
X133807D01*
X107061D02*
X108661D01*
X102946D02*
X104546D01*
X136550Y189586D02*
X138151D01*
X132436D02*
X134036D01*
X106832D02*
X108433D01*
X102718D02*
X104318D01*
X136779Y189814D02*
X138151D01*
X132664D02*
X134264D01*
X106604D02*
X108204D01*
X102718D02*
X104089D01*
X136779Y190043D02*
X138379D01*
X132893D02*
X134493D01*
X106375D02*
X107975D01*
X102489D02*
X103861D01*
X137008Y190271D02*
X138608D01*
X132893D02*
X134722D01*
X106147D02*
X107747D01*
X102260D02*
X103861D01*
X137236Y190500D02*
X138608D01*
X133121D02*
X134722D01*
X106147D02*
X107747D01*
X102260D02*
X103632D01*
X137236Y190729D02*
X138836D01*
X133350D02*
X134950D01*
X105918D02*
X107518D01*
X102032D02*
X103632D01*
X137465Y190957D02*
X138836D01*
X133579D02*
X135179D01*
X125578D02*
X129007D01*
X118720D02*
X121920D01*
X111404D02*
X115062D01*
X105689D02*
X107290D01*
X102032D02*
X103403D01*
X206959Y191186D02*
X209245D01*
X155296D02*
X159182D01*
X137693D02*
X139065D01*
X133807D02*
X135179D01*
X125578D02*
X129007D01*
X118720D02*
X121920D01*
X111404D02*
X115062D01*
X105461D02*
X107061D01*
X101803D02*
X103175D01*
X206731Y191414D02*
X209474D01*
X154153D02*
X160096D01*
X137693D02*
X139065D01*
X133807D02*
X135407D01*
X125578D02*
X129007D01*
X118720D02*
X121920D01*
X111404D02*
X115062D01*
X105461D02*
X107061D01*
X101803D02*
X103175D01*
X299999Y191643D02*
X302285D01*
X295656D02*
X298856D01*
X294284D02*
X295199D01*
X291313D02*
X292227D01*
X289941D02*
X290627D01*
X288569D02*
X289484D01*
X285140D02*
X286055D01*
X280568D02*
X282626D01*
X276225D02*
X278282D01*
X273482D02*
X274396D01*
X270739D02*
X271424D01*
X266852D02*
X270281D01*
X263195D02*
X265252D01*
X258166D02*
X260909D01*
X246050D02*
X249707D01*
X233477D02*
X237134D01*
X213817D02*
X224790D01*
X206502D02*
X209702D01*
X198730D02*
X202159D01*
X185928D02*
X189586D01*
X174041D02*
X177698D01*
X153467D02*
X160782D01*
X137922D02*
X139294D01*
X134036D02*
X135636D01*
X125349D02*
X129007D01*
X118720D02*
X121920D01*
X111404D02*
X115062D01*
X105232D02*
X106832D01*
X101575D02*
X102946D01*
X299771Y191872D02*
X302514D01*
X295656D02*
X298856D01*
X294284D02*
X295199D01*
X291313D02*
X292227D01*
X289941D02*
X290627D01*
X288569D02*
X289484D01*
X285140D02*
X286055D01*
X280111D02*
X283083D01*
X275768D02*
X278511D01*
X273253D02*
X274396D01*
X270739D02*
X271424D01*
X266852D02*
X270281D01*
X262738D02*
X265709D01*
X258166D02*
X261366D01*
X246050D02*
X249707D01*
X233477D02*
X237134D01*
X213817D02*
X225933D01*
X206273D02*
X209931D01*
X198730D02*
X202159D01*
X185928D02*
X189586D01*
X174041D02*
X177698D01*
X152781D02*
X161468D01*
X137922D02*
X139294D01*
X134264D02*
X135636D01*
X125349D02*
X129007D01*
X118720D02*
X121920D01*
X111404D02*
X115062D01*
X105232D02*
X106604D01*
X101575D02*
X102946D01*
X299542Y192100D02*
X302743D01*
X295656D02*
X298856D01*
X294284D02*
X294970D01*
X291313D02*
X292227D01*
X289941D02*
X290627D01*
X288569D02*
X289484D01*
X285369D02*
X286283D01*
X279883D02*
X283312D01*
X275539D02*
X278740D01*
X273253D02*
X274396D01*
X270739D02*
X271424D01*
X266852D02*
X270281D01*
X262509D02*
X265938D01*
X258166D02*
X261595D01*
X246050D02*
X249707D01*
X233477D02*
X237134D01*
X213817D02*
X226619D01*
X206045D02*
X210160D01*
X198730D02*
X202159D01*
X185928D02*
X189586D01*
X174041D02*
X177698D01*
X152324D02*
X161925D01*
X138151D02*
X139522D01*
X134264D02*
X135865D01*
X125349D02*
X129007D01*
X118720D02*
X121920D01*
X111633D02*
X115291D01*
X105004D02*
X106375D01*
X101346D02*
X102718D01*
X301828Y192329D02*
X302971D01*
X299314D02*
X300457D01*
X295656D02*
X296570D01*
X294284D02*
X294970D01*
X291313D02*
X292227D01*
X289941D02*
X290627D01*
X288341D02*
X289255D01*
X285369D02*
X286283D01*
X282169D02*
X283312D01*
X279883D02*
X281026D01*
X277825D02*
X278968D01*
X275311D02*
X276682D01*
X273025D02*
X274396D01*
X270739D02*
X271424D01*
X266852D02*
X267767D01*
X264795D02*
X265938D01*
X262509D02*
X263652D01*
X260452D02*
X261823D01*
X258166D02*
X258851D01*
X246050D02*
X249707D01*
X233477D02*
X237134D01*
X213817D02*
X227305D01*
X206045D02*
X210160D01*
X198730D02*
X202159D01*
X185928D02*
X189586D01*
X174041D02*
X177698D01*
X152095D02*
X162382D01*
X138151D02*
X139522D01*
X134493D02*
X135865D01*
X125349D02*
X129007D01*
X118720D02*
X121920D01*
X111633D02*
X115291D01*
X104775D02*
X106375D01*
X101346D02*
X102718D01*
X302057Y192557D02*
X302971D01*
X299314D02*
X300228D01*
X295656D02*
X296570D01*
X294284D02*
X294970D01*
X291313D02*
X292227D01*
X289941D02*
X290627D01*
X288341D02*
X289255D01*
X285369D02*
X286283D01*
X282626D02*
X283540D01*
X279654D02*
X280797D01*
X278054D02*
X279197D01*
X275311D02*
X276225D01*
X273025D02*
X274396D01*
X270739D02*
X271424D01*
X266852D02*
X267767D01*
X265024D02*
X266167D01*
X262509D02*
X263423D01*
X260909D02*
X261823D01*
X258166D02*
X258851D01*
X246050D02*
X249707D01*
X233477D02*
X237134D01*
X213817D02*
X227762D01*
X205816D02*
X210388D01*
X198730D02*
X202159D01*
X185928D02*
X189586D01*
X174041D02*
X177698D01*
X151638D02*
X162611D01*
X138379D02*
X139751D01*
X134722D02*
X136093D01*
X125349D02*
X129007D01*
X118720D02*
X121920D01*
X111633D02*
X115291D01*
X104775D02*
X106147D01*
X101117D02*
X102489D01*
X302285Y192786D02*
X302971D01*
X299314D02*
X299999D01*
X295656D02*
X296570D01*
X294056D02*
X294970D01*
X291313D02*
X292227D01*
X289941D02*
X290627D01*
X288112D02*
X289255D01*
X285598D02*
X286512D01*
X282626D02*
X283540D01*
X279654D02*
X280568D01*
X278282D02*
X279197D01*
X275082D02*
X275996D01*
X272796D02*
X274396D01*
X270739D02*
X271424D01*
X266852D02*
X267767D01*
X265252D02*
X266167D01*
X262280D02*
X263195D01*
X260909D02*
X261823D01*
X258166D02*
X258851D01*
X246050D02*
X249707D01*
X233477D02*
X237134D01*
X213817D02*
X227990D01*
X205816D02*
X210388D01*
X198730D02*
X202159D01*
X185928D02*
X189586D01*
X174041D02*
X177698D01*
X151409D02*
X162839D01*
X138379D02*
X139751D01*
X134722D02*
X136322D01*
X125120D02*
X129007D01*
X118720D02*
X121920D01*
X111633D02*
X115519D01*
X104546D02*
X106147D01*
X101117D02*
X102489D01*
X302057Y193015D02*
X302971D01*
X299314D02*
X299999D01*
X295656D02*
X296570D01*
X294056D02*
X294970D01*
X291313D02*
X292227D01*
X289941D02*
X290627D01*
X285598D02*
X289027D01*
X282626D02*
X283540D01*
X279654D02*
X280568D01*
X278511D02*
X279425D01*
X275082D02*
X275996D01*
X272567D02*
X274396D01*
X270739D02*
X271424D01*
X266852D02*
X267767D01*
X265252D02*
X266167D01*
X262280D02*
X263195D01*
X260909D02*
X261823D01*
X258166D02*
X258851D01*
X246050D02*
X249707D01*
X233477D02*
X237134D01*
X213817D02*
X228448D01*
X205816D02*
X210388D01*
X198730D02*
X202159D01*
X185928D02*
X189586D01*
X174041D02*
X177698D01*
X151181D02*
X163068D01*
X138608D02*
X139979D01*
X134950D02*
X136322D01*
X125120D02*
X129007D01*
X118720D02*
X121920D01*
X111633D02*
X115519D01*
X104546D02*
X105918D01*
X100889D02*
X102260D01*
X302057Y193243D02*
X302971D01*
X299314D02*
X299999D01*
X295656D02*
X296570D01*
X294056D02*
X294970D01*
X291313D02*
X292227D01*
X289941D02*
X290627D01*
X285826D02*
X289027D01*
X282397D02*
X283540D01*
X279654D02*
X280568D01*
X278511D02*
X279425D01*
X275082D02*
X275768D01*
X273710D02*
X274396D01*
X272567D02*
X273482D01*
X270739D02*
X271424D01*
X266852D02*
X267767D01*
X265252D02*
X266167D01*
X262280D02*
X263195D01*
X260909D02*
X261823D01*
X258166D02*
X258851D01*
X246050D02*
X249707D01*
X233477D02*
X237134D01*
X213817D02*
X228676D01*
X205816D02*
X210388D01*
X198730D02*
X202159D01*
X185928D02*
X189586D01*
X174041D02*
X177698D01*
X150952D02*
X163297D01*
X138608D02*
X139979D01*
X134950D02*
X136550D01*
X124892D02*
X128778D01*
X118720D02*
X121920D01*
X111633D02*
X115748D01*
X104318D02*
X105689D01*
X100889D02*
X102260D01*
X301371Y193472D02*
X302971D01*
X295656D02*
X296570D01*
X291313D02*
X294742D01*
X289941D02*
X290627D01*
X285826D02*
X288798D01*
X281940D02*
X283312D01*
X278511D02*
X279425D01*
X274853D02*
X275768D01*
X273710D02*
X274396D01*
X272339D02*
X273253D01*
X270739D02*
X271424D01*
X266852D02*
X267767D01*
X265252D02*
X266167D01*
X262280D02*
X263195D01*
X260680D02*
X261823D01*
X258166D02*
X258851D01*
X246050D02*
X249707D01*
X233477D02*
X237134D01*
X213817D02*
X228905D01*
X205816D02*
X210388D01*
X198730D02*
X202159D01*
X185928D02*
X189586D01*
X174041D02*
X177698D01*
X150724D02*
X163525D01*
X138836D02*
X139979D01*
X135179D02*
X136550D01*
X124892D02*
X128778D01*
X118720D02*
X121920D01*
X111862D02*
X115748D01*
X104318D02*
X105689D01*
X100660D02*
X102032D01*
X300457Y193700D02*
X302743D01*
X295656D02*
X298856D01*
X291313D02*
X294742D01*
X289941D02*
X290627D01*
X287884D02*
X288798D01*
X285826D02*
X286741D01*
X281026D02*
X283312D01*
X278511D02*
X279425D01*
X274853D02*
X275768D01*
X273710D02*
X274396D01*
X272110D02*
X273253D01*
X270739D02*
X271424D01*
X266852D02*
X270053D01*
X265252D02*
X266167D01*
X262280D02*
X263195D01*
X258166D02*
X261595D01*
X246050D02*
X249707D01*
X233477D02*
X237134D01*
X213817D02*
X229133D01*
X205816D02*
X210388D01*
X198730D02*
X202159D01*
X185928D02*
X189586D01*
X174041D02*
X177698D01*
X150495D02*
X163754D01*
X138836D02*
X140208D01*
X135179D02*
X136779D01*
X124663D02*
X128778D01*
X118720D02*
X121920D01*
X111862D02*
X115976D01*
X104089D02*
X105461D01*
X100660D02*
X102032D01*
X299771Y193929D02*
X302514D01*
X295656D02*
X298856D01*
X291313D02*
X294742D01*
X289941D02*
X290627D01*
X287884D02*
X288798D01*
X286055D02*
X286969D01*
X280340D02*
X283083D01*
X278511D02*
X279425D01*
X274853D02*
X275768D01*
X273710D02*
X274396D01*
X272110D02*
X273025D01*
X270739D02*
X271424D01*
X266852D02*
X270053D01*
X265252D02*
X266167D01*
X262280D02*
X263195D01*
X258166D02*
X261366D01*
X246050D02*
X249707D01*
X233477D02*
X237134D01*
X213817D02*
X229362D01*
X205816D02*
X210388D01*
X198730D02*
X202159D01*
X185928D02*
X189586D01*
X174041D02*
X177698D01*
X150266D02*
X163982D01*
X138836D02*
X140208D01*
X135407D02*
X136779D01*
X124435D02*
X128549D01*
X118720D02*
X121920D01*
X111862D02*
X115976D01*
X104089D02*
X105461D01*
X100660D02*
X102032D01*
X299542Y194158D02*
X302057D01*
X295656D02*
X298856D01*
X291313D02*
X294970D01*
X289941D02*
X290627D01*
X287655D02*
X288569D01*
X286055D02*
X286969D01*
X280111D02*
X282626D01*
X278511D02*
X279425D01*
X274853D02*
X275768D01*
X273710D02*
X274396D01*
X271882D02*
X272796D01*
X270739D02*
X271424D01*
X266852D02*
X270053D01*
X265252D02*
X266167D01*
X262280D02*
X263195D01*
X258166D02*
X261366D01*
X246050D02*
X249707D01*
X233477D02*
X237134D01*
X213817D02*
X229362D01*
X206045D02*
X210388D01*
X198730D02*
X202159D01*
X185928D02*
X189586D01*
X174041D02*
X177698D01*
X150266D02*
X164211D01*
X139065D02*
X140208D01*
X135407D02*
X136779D01*
X124435D02*
X128549D01*
X118720D02*
X121920D01*
X112090D02*
X116205D01*
X103861D02*
X105232D01*
X100432D02*
X101803D01*
X299314Y194386D02*
X301142D01*
X295656D02*
X296570D01*
X294056D02*
X294970D01*
X291313D02*
X292227D01*
X289941D02*
X290627D01*
X287655D02*
X288569D01*
X286283D02*
X286969D01*
X279883D02*
X281711D01*
X278511D02*
X279425D01*
X274853D02*
X275768D01*
X273710D02*
X274396D01*
X271653D02*
X272796D01*
X270739D02*
X271424D01*
X266852D02*
X267767D01*
X265252D02*
X266167D01*
X262280D02*
X263195D01*
X260452D02*
X261595D01*
X258166D02*
X258851D01*
X246050D02*
X249707D01*
X233477D02*
X237134D01*
X213817D02*
X229591D01*
X206045D02*
X210160D01*
X198730D02*
X202159D01*
X185928D02*
X189586D01*
X174041D02*
X177698D01*
X158496D02*
X164211D01*
X150038D02*
X155753D01*
X139065D02*
X140437D01*
X135636D02*
X137008D01*
X124206D02*
X128549D01*
X118720D02*
X121920D01*
X112090D02*
X116434D01*
X103861D02*
X105232D01*
X100432D02*
X101803D01*
X299314Y194615D02*
X300457D01*
X295656D02*
X296570D01*
X294056D02*
X294970D01*
X291313D02*
X292227D01*
X289941D02*
X290627D01*
X287655D02*
X288341D01*
X286283D02*
X287198D01*
X279883D02*
X281026D01*
X278511D02*
X279425D01*
X275082D02*
X275996D01*
X273710D02*
X274396D01*
X271653D02*
X272567D01*
X270739D02*
X271424D01*
X266852D02*
X267767D01*
X265252D02*
X266167D01*
X262280D02*
X263195D01*
X260680D02*
X261595D01*
X258166D02*
X258851D01*
X246050D02*
X249707D01*
X233477D02*
X237134D01*
X224104D02*
X229591D01*
X213817D02*
X217475D01*
X206273D02*
X210160D01*
X198730D02*
X202159D01*
X185928D02*
X189586D01*
X174041D02*
X177698D01*
X159410D02*
X164440D01*
X149809D02*
X154838D01*
X139065D02*
X140437D01*
X135636D02*
X137008D01*
X123977D02*
X128321D01*
X118720D02*
X121920D01*
X112319D02*
X116662D01*
X103861D02*
X105232D01*
X100432D02*
X101575D01*
X302057Y194843D02*
X302743D01*
X299314D02*
X300228D01*
X295656D02*
X296570D01*
X294284D02*
X294970D01*
X291313D02*
X292227D01*
X289941D02*
X290627D01*
X287426D02*
X288341D01*
X286283D02*
X287198D01*
X282397D02*
X283312D01*
X279883D02*
X280797D01*
X278282D02*
X279425D01*
X275082D02*
X275996D01*
X273710D02*
X274396D01*
X270739D02*
X272339D01*
X266852D02*
X267767D01*
X265252D02*
X266167D01*
X262280D02*
X263195D01*
X260680D02*
X261595D01*
X258166D02*
X258851D01*
X246050D02*
X249707D01*
X233477D02*
X237134D01*
X224790D02*
X229819D01*
X213817D02*
X217475D01*
X206273D02*
X209931D01*
X198730D02*
X202159D01*
X185928D02*
X189586D01*
X174041D02*
X177698D01*
X159868D02*
X164440D01*
X149809D02*
X154381D01*
X139294D02*
X140437D01*
X135865D02*
X137236D01*
X123749D02*
X128321D01*
X118720D02*
X121920D01*
X112319D02*
X116891D01*
X103632D02*
X105004D01*
X100203D02*
X101575D01*
X302057Y195072D02*
X302743D01*
X299314D02*
X300228D01*
X295656D02*
X296570D01*
X294284D02*
X294970D01*
X291313D02*
X292227D01*
X289941D02*
X290627D01*
X287426D02*
X288341D01*
X286512D02*
X287198D01*
X282397D02*
X283312D01*
X279883D02*
X280568D01*
X278282D02*
X279197D01*
X275082D02*
X276225D01*
X273710D02*
X274396D01*
X270739D02*
X272339D01*
X266852D02*
X267767D01*
X265252D02*
X266167D01*
X262280D02*
X263195D01*
X260680D02*
X261595D01*
X258166D02*
X258851D01*
X246050D02*
X249707D01*
X233477D02*
X237134D01*
X225247D02*
X229819D01*
X213817D02*
X217475D01*
X206502D02*
X209702D01*
X198730D02*
X202159D01*
X185928D02*
X189586D01*
X174041D02*
X177698D01*
X160096D02*
X164668D01*
X149581D02*
X154153D01*
X139294D02*
X140665D01*
X135865D02*
X137236D01*
X123292D02*
X128092D01*
X118720D02*
X121920D01*
X112547D02*
X117119D01*
X103632D02*
X105004D01*
X100203D02*
X101575D01*
X301828Y195301D02*
X302743D01*
X299314D02*
X300228D01*
X295656D02*
X296570D01*
X294056D02*
X294970D01*
X291313D02*
X292227D01*
X289941D02*
X290627D01*
X286512D02*
X288112D01*
X282169D02*
X283312D01*
X279883D02*
X280797D01*
X278054D02*
X279197D01*
X275311D02*
X276454D01*
X273710D02*
X274396D01*
X270739D02*
X272110D01*
X266852D02*
X267767D01*
X265252D02*
X266167D01*
X262280D02*
X263195D01*
X260680D02*
X261595D01*
X258166D02*
X258851D01*
X246050D02*
X249707D01*
X233477D02*
X237134D01*
X225704D02*
X229819D01*
X213817D02*
X217475D01*
X206959D02*
X209245D01*
X198730D02*
X202159D01*
X185928D02*
X189586D01*
X174041D02*
X177698D01*
X160325D02*
X164668D01*
X149581D02*
X153924D01*
X139294D02*
X140665D01*
X136093D02*
X137236D01*
X123063D02*
X128092D01*
X118720D02*
X121920D01*
X112547D02*
X117577D01*
X103632D02*
X104775D01*
X100203D02*
X101346D01*
X301371Y195529D02*
X302743D01*
X299542D02*
X300685D01*
X295656D02*
X298856D01*
X291313D02*
X294970D01*
X289941D02*
X290627D01*
X286741D02*
X288112D01*
X281940D02*
X283083D01*
X279883D02*
X281026D01*
X277597D02*
X278968D01*
X275311D02*
X276682D01*
X273710D02*
X274396D01*
X270739D02*
X271882D01*
X266852D02*
X270281D01*
X265252D02*
X266167D01*
X262280D02*
X263195D01*
X258166D02*
X261595D01*
X246050D02*
X249707D01*
X233477D02*
X237134D01*
X225933D02*
X230048D01*
X213817D02*
X217475D01*
X207416D02*
X208788D01*
X198730D02*
X202159D01*
X185928D02*
X189586D01*
X174041D02*
X177698D01*
X160553D02*
X164668D01*
X149581D02*
X153695D01*
X139522D02*
X140665D01*
X136093D02*
X137465D01*
X122606D02*
X127864D01*
X118720D02*
X121920D01*
X112776D02*
X118034D01*
X103403D02*
X104775D01*
X100203D02*
X101346D01*
X299542Y195758D02*
X302514D01*
X295656D02*
X298856D01*
X291313D02*
X294742D01*
X289941D02*
X290627D01*
X286741D02*
X287884D01*
X280111D02*
X283083D01*
X275539D02*
X278740D01*
X273710D02*
X274396D01*
X270739D02*
X271882D01*
X266852D02*
X270281D01*
X265252D02*
X266167D01*
X262280D02*
X263195D01*
X258166D02*
X261366D01*
X246050D02*
X249707D01*
X233477D02*
X237134D01*
X225933D02*
X230048D01*
X213817D02*
X217475D01*
X198730D02*
X202159D01*
X185928D02*
X189586D01*
X174041D02*
X177698D01*
X160782D02*
X164897D01*
X149352D02*
X153467D01*
X139522D02*
X140894D01*
X136093D02*
X137465D01*
X122149D02*
X127635D01*
X118720D02*
X121920D01*
X112776D02*
X118491D01*
X103403D02*
X104775D01*
X99974D02*
X101346D01*
X299771Y195986D02*
X302285D01*
X295656D02*
X298856D01*
X291313D02*
X294513D01*
X289941D02*
X290627D01*
X286741D02*
X287884D01*
X280340D02*
X282854D01*
X275768D02*
X278511D01*
X273710D02*
X274396D01*
X270739D02*
X271653D01*
X266852D02*
X270281D01*
X265252D02*
X266167D01*
X262280D02*
X263195D01*
X258166D02*
X261137D01*
X246050D02*
X249707D01*
X233477D02*
X237134D01*
X226162D02*
X230048D01*
X213817D02*
X217475D01*
X198730D02*
X202159D01*
X185928D02*
X189586D01*
X174041D02*
X177698D01*
X161011D02*
X164897D01*
X149352D02*
X153238D01*
X139522D02*
X140894D01*
X136322D02*
X137465D01*
X113005D02*
X127635D01*
X103403D02*
X104546D01*
X99974D02*
X101346D01*
X300228Y196215D02*
X302057D01*
X295656D02*
X298856D01*
X291313D02*
X294056D01*
X289941D02*
X290627D01*
X286969D02*
X287884D01*
X280568D02*
X282397D01*
X276225D02*
X278054D01*
X273710D02*
X274396D01*
X270739D02*
X271653D01*
X266852D02*
X270281D01*
X265252D02*
X266167D01*
X262280D02*
X263195D01*
X258166D02*
X260680D01*
X246050D02*
X249707D01*
X233477D02*
X237134D01*
X226162D02*
X230048D01*
X213817D02*
X217475D01*
X198730D02*
X202159D01*
X185928D02*
X189586D01*
X174041D02*
X177698D01*
X161011D02*
X164897D01*
X149352D02*
X153238D01*
X139751D02*
X140894D01*
X136322D02*
X137693D01*
X113233D02*
X127406D01*
X103175D02*
X104546D01*
X99974D02*
X101117D01*
X246050Y196444D02*
X249707D01*
X233477D02*
X237134D01*
X226390D02*
X230048D01*
X213817D02*
X217475D01*
X198730D02*
X202159D01*
X185928D02*
X189586D01*
X174041D02*
X177698D01*
X161239D02*
X165125D01*
X149123D02*
X153010D01*
X139751D02*
X140894D01*
X136322D02*
X137693D01*
X113233D02*
X127178D01*
X103175D02*
X104546D01*
X99974D02*
X101117D01*
X246050Y196672D02*
X249707D01*
X233477D02*
X237134D01*
X226390D02*
X230048D01*
X213817D02*
X217475D01*
X198730D02*
X202159D01*
X185928D02*
X189586D01*
X174041D02*
X177698D01*
X161239D02*
X165125D01*
X149123D02*
X153010D01*
X139751D02*
X141122D01*
X136322D02*
X137693D01*
X113462D02*
X126949D01*
X103175D02*
X104318D01*
X99746D02*
X101117D01*
X233477Y196901D02*
X249707D01*
X226390D02*
X230048D01*
X213817D02*
X217475D01*
X198730D02*
X202159D01*
X185928D02*
X189586D01*
X174041D02*
X177698D01*
X161239D02*
X165125D01*
X149123D02*
X153010D01*
X139751D02*
X141122D01*
X136550D02*
X137693D01*
X113690D02*
X126949D01*
X103175D02*
X104318D01*
X99746D02*
X101117D01*
X233477Y197129D02*
X249707D01*
X226390D02*
X230048D01*
X213817D02*
X217475D01*
X198730D02*
X202159D01*
X185928D02*
X189586D01*
X174041D02*
X177698D01*
X161468D02*
X165125D01*
X149123D02*
X152781D01*
X139751D02*
X141122D01*
X136550D02*
X137922D01*
X113919D02*
X126721D01*
X102946D02*
X104318D01*
X99746D02*
X100889D01*
X233477Y197358D02*
X249707D01*
X226619D02*
X230048D01*
X213817D02*
X217475D01*
X198730D02*
X202159D01*
X185928D02*
X189586D01*
X174041D02*
X177698D01*
X161468D02*
X165125D01*
X149123D02*
X152781D01*
X139979D02*
X141122D01*
X136550D02*
X137922D01*
X114148D02*
X126492D01*
X102946D02*
X104318D01*
X99746D02*
X100889D01*
X233477Y197587D02*
X249707D01*
X226619D02*
X230048D01*
X213817D02*
X217475D01*
X198730D02*
X202159D01*
X185928D02*
X189586D01*
X174041D02*
X177698D01*
X161468D02*
X165125D01*
X149123D02*
X152781D01*
X139979D02*
X141122D01*
X136550D02*
X137922D01*
X114376D02*
X126263D01*
X102946D02*
X104089D01*
X99746D02*
X100889D01*
X233477Y197815D02*
X249707D01*
X226390D02*
X230048D01*
X213817D02*
X217475D01*
X198730D02*
X202159D01*
X185928D02*
X189586D01*
X174041D02*
X177698D01*
X161468D02*
X165125D01*
X149123D02*
X152781D01*
X139979D02*
X141122D01*
X136779D02*
X137922D01*
X114605D02*
X125806D01*
X102946D02*
X104089D01*
X99517D02*
X100889D01*
X233477Y198044D02*
X249707D01*
X226390D02*
X230048D01*
X213817D02*
X217475D01*
X198730D02*
X202159D01*
X185928D02*
X189586D01*
X174041D02*
X177698D01*
X161468D02*
X165354D01*
X149123D02*
X152781D01*
X139979D02*
X141351D01*
X136779D02*
X137922D01*
X115062D02*
X125578D01*
X102946D02*
X104089D01*
X99517D02*
X100889D01*
X233477Y198272D02*
X249707D01*
X226390D02*
X230048D01*
X213817D02*
X217475D01*
X198730D02*
X202159D01*
X185928D02*
X189586D01*
X174041D02*
X177698D01*
X161468D02*
X165354D01*
X149123D02*
X152781D01*
X139979D02*
X141351D01*
X136779D02*
X137922D01*
X115291D02*
X125349D01*
X102718D02*
X104089D01*
X99517D02*
X100660D01*
X233477Y198501D02*
X249707D01*
X226390D02*
X230048D01*
X213817D02*
X217475D01*
X198730D02*
X202159D01*
X185928D02*
X189586D01*
X174041D02*
X177698D01*
X161468D02*
X165354D01*
X149123D02*
X152781D01*
X140208D02*
X141351D01*
X136779D02*
X138151D01*
X115748D02*
X124892D01*
X102718D02*
X104089D01*
X99517D02*
X100660D01*
X233477Y198730D02*
X249707D01*
X226162D02*
X230048D01*
X213817D02*
X217475D01*
X198730D02*
X202159D01*
X185928D02*
X189586D01*
X174041D02*
X177698D01*
X161696D02*
X165354D01*
X149123D02*
X152781D01*
X140208D02*
X141351D01*
X136779D02*
X138151D01*
X115976D02*
X124435D01*
X102718D02*
X103861D01*
X99517D02*
X100660D01*
X274168Y198958D02*
X274853D01*
X267767D02*
X268453D01*
X233477D02*
X249707D01*
X226162D02*
X230048D01*
X213817D02*
X217475D01*
X198730D02*
X202159D01*
X185928D02*
X189586D01*
X174041D02*
X177698D01*
X161696D02*
X165354D01*
X149123D02*
X152781D01*
X140208D02*
X141351D01*
X137008D02*
X138151D01*
X116434D02*
X123977D01*
X102718D02*
X103861D01*
X99517D02*
X100660D01*
X285826Y199187D02*
X289027D01*
X284683D02*
X285598D01*
X281254D02*
X282169D01*
X280111D02*
X281026D01*
X277368D02*
X278054D01*
X273482D02*
X275768D01*
X270967D02*
X271653D01*
X269596D02*
X270281D01*
X267081D02*
X269367D01*
X262280D02*
X265709D01*
X260909D02*
X261823D01*
X258166D02*
X258851D01*
X233477D02*
X249707D01*
X225933D02*
X229819D01*
X213817D02*
X217475D01*
X198730D02*
X202159D01*
X185928D02*
X189586D01*
X174041D02*
X177698D01*
X161696D02*
X165354D01*
X149123D02*
X152552D01*
X140208D02*
X141351D01*
X137008D02*
X138151D01*
X117119D02*
X123520D01*
X102718D02*
X103861D01*
X99517D02*
X100660D01*
X285826Y199415D02*
X289027D01*
X284683D02*
X285598D01*
X281254D02*
X282169D01*
X279883D02*
X281026D01*
X277368D02*
X278054D01*
X273025D02*
X275996D01*
X270967D02*
X271653D01*
X266624D02*
X270281D01*
X262280D02*
X265709D01*
X260909D02*
X261823D01*
X258166D02*
X258851D01*
X233477D02*
X249707D01*
X225933D02*
X229819D01*
X213817D02*
X217475D01*
X198730D02*
X202159D01*
X185928D02*
X189586D01*
X174041D02*
X177698D01*
X161696D02*
X165354D01*
X149123D02*
X152552D01*
X140208D02*
X141351D01*
X137008D02*
X138151D01*
X111404D02*
X129007D01*
X102718D02*
X103861D01*
X99517D02*
X100660D01*
X285826Y199644D02*
X289027D01*
X284455D02*
X285369D01*
X281483D02*
X282397D01*
X279883D02*
X281026D01*
X277368D02*
X278054D01*
X272796D02*
X276225D01*
X270967D02*
X271653D01*
X266395D02*
X270281D01*
X262280D02*
X265709D01*
X260909D02*
X261823D01*
X258166D02*
X258851D01*
X246050D02*
X249707D01*
X233477D02*
X237134D01*
X225704D02*
X229591D01*
X213817D02*
X217475D01*
X198730D02*
X202159D01*
X185928D02*
X189586D01*
X174041D02*
X177698D01*
X161696D02*
X165354D01*
X149123D02*
X152552D01*
X140208D02*
X141351D01*
X137008D02*
X138151D01*
X111404D02*
X129007D01*
X102718D02*
X103861D01*
X99517D02*
X100660D01*
X285826Y199873D02*
X286741D01*
X284455D02*
X285369D01*
X281483D02*
X282397D01*
X279654D02*
X281026D01*
X277368D02*
X278054D01*
X275082D02*
X276454D01*
X272567D02*
X273939D01*
X270967D02*
X271653D01*
X268910D02*
X270281D01*
X266395D02*
X267538D01*
X262280D02*
X263195D01*
X260909D02*
X261595D01*
X258166D02*
X258851D01*
X246050D02*
X249707D01*
X233477D02*
X237134D01*
X225247D02*
X229591D01*
X213817D02*
X217475D01*
X198730D02*
X202159D01*
X185928D02*
X189586D01*
X174041D02*
X177698D01*
X161696D02*
X165354D01*
X149123D02*
X152552D01*
X140208D02*
X141351D01*
X137008D02*
X138151D01*
X111404D02*
X129007D01*
X102718D02*
X103861D01*
X99517D02*
X100660D01*
X285826Y200101D02*
X286741D01*
X284455D02*
X285369D01*
X281483D02*
X282397D01*
X279425D02*
X281026D01*
X277368D02*
X278054D01*
X275539D02*
X276454D01*
X272567D02*
X273482D01*
X270967D02*
X271653D01*
X269138D02*
X270281D01*
X266167D02*
X267310D01*
X262280D02*
X263195D01*
X260909D02*
X261595D01*
X258166D02*
X258851D01*
X246050D02*
X249707D01*
X233477D02*
X237134D01*
X224790D02*
X229362D01*
X213817D02*
X217475D01*
X198730D02*
X202159D01*
X185928D02*
X189586D01*
X174041D02*
X177698D01*
X161696D02*
X165354D01*
X149123D02*
X152552D01*
X140208D02*
X141351D01*
X137008D02*
X138151D01*
X111404D02*
X129007D01*
X102718D02*
X103861D01*
X99289D02*
X100660D01*
X285826Y200330D02*
X286741D01*
X284226D02*
X285140D01*
X281711D02*
X282626D01*
X279425D02*
X281026D01*
X277368D02*
X278054D01*
X275539D02*
X276682D01*
X272339D02*
X273482D01*
X270967D02*
X271653D01*
X269367D02*
X270281D01*
X266167D02*
X267081D01*
X262280D02*
X263195D01*
X260909D02*
X261595D01*
X258166D02*
X258851D01*
X246050D02*
X249707D01*
X233477D02*
X237134D01*
X224104D02*
X229362D01*
X213817D02*
X217475D01*
X198730D02*
X202159D01*
X185928D02*
X189586D01*
X174041D02*
X177698D01*
X161696D02*
X165354D01*
X149123D02*
X152552D01*
X140208D02*
X141351D01*
X137008D02*
X138151D01*
X111404D02*
X129007D01*
X102718D02*
X103861D01*
X99289D02*
X100660D01*
X285826Y200558D02*
X286741D01*
X281711D02*
X285140D01*
X280340D02*
X281026D01*
X279197D02*
X280111D01*
X277368D02*
X278054D01*
X275768D02*
X276682D01*
X272339D02*
X273253D01*
X270967D02*
X271653D01*
X269367D02*
X270281D01*
X265938D02*
X266852D01*
X262280D02*
X263195D01*
X260680D02*
X261595D01*
X258166D02*
X258851D01*
X246050D02*
X249707D01*
X233477D02*
X237134D01*
X213817D02*
X229133D01*
X198730D02*
X202159D01*
X185928D02*
X189586D01*
X174041D02*
X177698D01*
X161696D02*
X165354D01*
X149123D02*
X152552D01*
X140208D02*
X141351D01*
X137008D02*
X138151D01*
X111404D02*
X129007D01*
X102718D02*
X103861D01*
X99289D02*
X100660D01*
X285826Y200787D02*
X286741D01*
X281940D02*
X284912D01*
X280340D02*
X281026D01*
X278968D02*
X280111D01*
X277368D02*
X278054D01*
X275768D02*
X276682D01*
X272339D02*
X273253D01*
X270967D02*
X271653D01*
X269596D02*
X270281D01*
X265938D02*
X266852D01*
X262280D02*
X263195D01*
X260680D02*
X261595D01*
X258166D02*
X258851D01*
X246050D02*
X249707D01*
X233477D02*
X237134D01*
X213817D02*
X228905D01*
X198730D02*
X202159D01*
X185928D02*
X189586D01*
X174041D02*
X177698D01*
X161696D02*
X165354D01*
X149123D02*
X152552D01*
X140208D02*
X141351D01*
X137008D02*
X138151D01*
X111404D02*
X129007D01*
X102718D02*
X103861D01*
X99289D02*
X100660D01*
X285826Y201016D02*
X286741D01*
X281940D02*
X284912D01*
X280340D02*
X281026D01*
X278968D02*
X279883D01*
X277368D02*
X278054D01*
X275996D02*
X276682D01*
X272339D02*
X273253D01*
X270967D02*
X271653D01*
X267995D02*
X270281D01*
X265938D02*
X266852D01*
X262280D02*
X263195D01*
X258166D02*
X261595D01*
X246050D02*
X249707D01*
X233477D02*
X237134D01*
X213817D02*
X228676D01*
X198730D02*
X202159D01*
X185928D02*
X189586D01*
X174041D02*
X177698D01*
X161696D02*
X165354D01*
X149123D02*
X152552D01*
X140208D02*
X141351D01*
X137008D02*
X138151D01*
X111404D02*
X129007D01*
X102718D02*
X103861D01*
X99289D02*
X100660D01*
X285826Y201244D02*
X286741D01*
X283997D02*
X284912D01*
X281940D02*
X282854D01*
X280340D02*
X281026D01*
X278740D02*
X279654D01*
X277368D02*
X278054D01*
X275996D02*
X276682D01*
X272339D02*
X273025D01*
X270967D02*
X271653D01*
X267995D02*
X270281D01*
X265938D02*
X266852D01*
X262280D02*
X265481D01*
X258166D02*
X261366D01*
X246050D02*
X249707D01*
X233477D02*
X237134D01*
X213817D02*
X228448D01*
X198730D02*
X202159D01*
X185928D02*
X189586D01*
X174041D02*
X177698D01*
X161696D02*
X165354D01*
X149123D02*
X152552D01*
X140208D02*
X141351D01*
X137008D02*
X138151D01*
X111404D02*
X129007D01*
X102718D02*
X103861D01*
X99289D02*
X100660D01*
X285826Y201473D02*
X286741D01*
X283769D02*
X284683D01*
X282169D02*
X283083D01*
X280340D02*
X281026D01*
X278511D02*
X279654D01*
X277368D02*
X278054D01*
X275996D02*
X276682D01*
X272339D02*
X273025D01*
X270967D02*
X271653D01*
X267995D02*
X270281D01*
X265938D02*
X266852D01*
X262280D02*
X265481D01*
X258166D02*
X261366D01*
X246050D02*
X249707D01*
X233477D02*
X237134D01*
X213817D02*
X228219D01*
X198730D02*
X202159D01*
X185928D02*
X189586D01*
X174041D02*
X177698D01*
X161696D02*
X165354D01*
X149123D02*
X152552D01*
X140208D02*
X141351D01*
X137008D02*
X138151D01*
X111404D02*
X129007D01*
X102718D02*
X103861D01*
X99289D02*
X100660D01*
X285826Y201701D02*
X286741D01*
X283769D02*
X284683D01*
X282169D02*
X283083D01*
X280340D02*
X281026D01*
X278511D02*
X279425D01*
X277368D02*
X278054D01*
X275996D02*
X276682D01*
X272339D02*
X273025D01*
X270967D02*
X271653D01*
X265938D02*
X266852D01*
X262280D02*
X265481D01*
X260223D02*
X261595D01*
X258166D02*
X258851D01*
X246050D02*
X249707D01*
X233477D02*
X237134D01*
X213817D02*
X227762D01*
X198730D02*
X202159D01*
X185928D02*
X189586D01*
X174041D02*
X177698D01*
X161696D02*
X165354D01*
X149123D02*
X152552D01*
X140208D02*
X141351D01*
X137008D02*
X138151D01*
X111404D02*
X129007D01*
X102718D02*
X103861D01*
X99289D02*
X100660D01*
X285826Y201930D02*
X286741D01*
X283769D02*
X284683D01*
X282169D02*
X283083D01*
X280340D02*
X281026D01*
X278282D02*
X279197D01*
X277368D02*
X278054D01*
X275768D02*
X276682D01*
X272339D02*
X273253D01*
X270967D02*
X271653D01*
X265938D02*
X266852D01*
X262280D02*
X263195D01*
X260680D02*
X261595D01*
X258166D02*
X258851D01*
X246050D02*
X249707D01*
X233477D02*
X237134D01*
X213817D02*
X227305D01*
X198730D02*
X202159D01*
X185928D02*
X189586D01*
X174041D02*
X177698D01*
X161696D02*
X165354D01*
X149123D02*
X152552D01*
X140208D02*
X141351D01*
X137008D02*
X138151D01*
X111404D02*
X129007D01*
X102718D02*
X103861D01*
X99289D02*
X100660D01*
X285826Y202159D02*
X286741D01*
X283540D02*
X284455D01*
X282397D02*
X283312D01*
X280340D02*
X281026D01*
X277368D02*
X279197D01*
X275768D02*
X276682D01*
X272339D02*
X273253D01*
X270967D02*
X271653D01*
X269367D02*
X270281D01*
X265938D02*
X266852D01*
X262280D02*
X263195D01*
X260909D02*
X261823D01*
X258166D02*
X258851D01*
X246050D02*
X249707D01*
X233477D02*
X237134D01*
X213817D02*
X226847D01*
X198730D02*
X202159D01*
X185928D02*
X189586D01*
X174041D02*
X177698D01*
X161696D02*
X165354D01*
X149123D02*
X152552D01*
X140208D02*
X141351D01*
X137008D02*
X138151D01*
X111404D02*
X129007D01*
X102718D02*
X103861D01*
X99517D02*
X100660D01*
X285826Y202387D02*
X286741D01*
X283540D02*
X284455D01*
X282397D02*
X283312D01*
X280340D02*
X281026D01*
X277368D02*
X278968D01*
X275768D02*
X276682D01*
X272339D02*
X273253D01*
X270967D02*
X271653D01*
X269367D02*
X270281D01*
X266167D02*
X267081D01*
X262280D02*
X263195D01*
X260909D02*
X261823D01*
X258166D02*
X258851D01*
X246050D02*
X249707D01*
X233477D02*
X237134D01*
X213817D02*
X227076D01*
X198730D02*
X202159D01*
X185928D02*
X189586D01*
X174041D02*
X177698D01*
X161696D02*
X165354D01*
X149123D02*
X152552D01*
X140208D02*
X141351D01*
X137008D02*
X138151D01*
X111404D02*
X129007D01*
X102718D02*
X103861D01*
X99517D02*
X100660D01*
X285826Y202616D02*
X286741D01*
X283540D02*
X284226D01*
X282626D02*
X283312D01*
X280340D02*
X281026D01*
X277368D02*
X278740D01*
X275539D02*
X276454D01*
X272567D02*
X273482D01*
X270967D02*
X271653D01*
X269138D02*
X270053D01*
X266167D02*
X267310D01*
X262280D02*
X263195D01*
X260909D02*
X261823D01*
X258166D02*
X258851D01*
X246050D02*
X249707D01*
X233477D02*
X237134D01*
X213817D02*
X227533D01*
X198730D02*
X202159D01*
X185928D02*
X189586D01*
X174041D02*
X177698D01*
X161696D02*
X165354D01*
X149123D02*
X152552D01*
X140208D02*
X141351D01*
X137008D02*
X138151D01*
X117348D02*
X123292D01*
X102718D02*
X103861D01*
X99517D02*
X100660D01*
X285826Y202844D02*
X286741D01*
X282626D02*
X284226D01*
X280340D02*
X281026D01*
X277368D02*
X278740D01*
X275311D02*
X276454D01*
X272567D02*
X273710D01*
X270967D02*
X271653D01*
X268910D02*
X270053D01*
X266395D02*
X267538D01*
X262280D02*
X263195D01*
X260680D02*
X261823D01*
X258166D02*
X258851D01*
X246050D02*
X249707D01*
X233477D02*
X237134D01*
X213817D02*
X227762D01*
X198730D02*
X202159D01*
X185928D02*
X189586D01*
X174041D02*
X177698D01*
X161696D02*
X165354D01*
X149123D02*
X152552D01*
X140208D02*
X141351D01*
X137008D02*
X138151D01*
X116662D02*
X123977D01*
X102718D02*
X103861D01*
X99517D02*
X100660D01*
X285826Y203073D02*
X286741D01*
X282626D02*
X284226D01*
X280340D02*
X281026D01*
X277368D02*
X278511D01*
X274853D02*
X276225D01*
X272796D02*
X274168D01*
X270967D02*
X271653D01*
X268453D02*
X270053D01*
X266395D02*
X267995D01*
X262280D02*
X265709D01*
X258166D02*
X261595D01*
X246050D02*
X249707D01*
X233477D02*
X237134D01*
X213817D02*
X227990D01*
X198730D02*
X202159D01*
X185928D02*
X189586D01*
X174041D02*
X177698D01*
X161696D02*
X165354D01*
X149123D02*
X152552D01*
X140208D02*
X141351D01*
X137008D02*
X138151D01*
X116205D02*
X124435D01*
X102718D02*
X103861D01*
X99517D02*
X100660D01*
X285826Y203302D02*
X286741D01*
X282854D02*
X283997D01*
X280340D02*
X281026D01*
X277368D02*
X278511D01*
X273025D02*
X275996D01*
X270967D02*
X271653D01*
X266624D02*
X269824D01*
X262280D02*
X265709D01*
X258166D02*
X261595D01*
X246050D02*
X249707D01*
X233477D02*
X237134D01*
X224104D02*
X228219D01*
X213817D02*
X217475D01*
X198501D02*
X202159D01*
X185928D02*
X189586D01*
X174041D02*
X177698D01*
X161696D02*
X165354D01*
X149123D02*
X152552D01*
X140208D02*
X141351D01*
X136779D02*
X138151D01*
X115748D02*
X124663D01*
X102718D02*
X103861D01*
X99517D02*
X100660D01*
X285826Y203530D02*
X286741D01*
X282854D02*
X283997D01*
X280340D02*
X281026D01*
X277368D02*
X278282D01*
X273253D02*
X275768D01*
X270967D02*
X271653D01*
X266852D02*
X269596D01*
X262280D02*
X265709D01*
X258166D02*
X261137D01*
X246050D02*
X249707D01*
X233477D02*
X237134D01*
X224561D02*
X228448D01*
X213817D02*
X217475D01*
X198501D02*
X202159D01*
X185928D02*
X189586D01*
X174041D02*
X177698D01*
X161696D02*
X165354D01*
X149123D02*
X152552D01*
X140208D02*
X141351D01*
X136779D02*
X138151D01*
X115519D02*
X125120D01*
X102718D02*
X104089D01*
X99517D02*
X100660D01*
X273710Y203759D02*
X275311D01*
X267538D02*
X268910D01*
X246050D02*
X249707D01*
X233477D02*
X237134D01*
X224790D02*
X228676D01*
X213817D02*
X217475D01*
X198501D02*
X202159D01*
X185928D02*
X189586D01*
X174041D02*
X177698D01*
X161696D02*
X165354D01*
X149123D02*
X152552D01*
X139979D02*
X141351D01*
X136779D02*
X138151D01*
X115062D02*
X125578D01*
X102718D02*
X104089D01*
X99517D02*
X100660D01*
X246050Y203987D02*
X249707D01*
X233477D02*
X237134D01*
X225019D02*
X228676D01*
X213817D02*
X217475D01*
X198501D02*
X202159D01*
X185928D02*
X189586D01*
X174041D02*
X177698D01*
X161696D02*
X165354D01*
X149123D02*
X152552D01*
X139979D02*
X141351D01*
X136779D02*
X137922D01*
X114833D02*
X125806D01*
X102718D02*
X104089D01*
X99517D02*
X100889D01*
X246050Y204216D02*
X249707D01*
X233477D02*
X237134D01*
X225247D02*
X228905D01*
X213817D02*
X217475D01*
X198501D02*
X202159D01*
X185928D02*
X189814D01*
X174041D02*
X177698D01*
X161696D02*
X165354D01*
X149123D02*
X152552D01*
X139979D02*
X141351D01*
X136779D02*
X137922D01*
X114605D02*
X126035D01*
X102946D02*
X104089D01*
X99517D02*
X100889D01*
X246050Y204445D02*
X249707D01*
X233477D02*
X237134D01*
X225247D02*
X228905D01*
X213817D02*
X217475D01*
X198501D02*
X202159D01*
X185928D02*
X189814D01*
X174041D02*
X177698D01*
X161696D02*
X165354D01*
X149123D02*
X152552D01*
X139979D02*
X141122D01*
X136779D02*
X137922D01*
X114148D02*
X126263D01*
X102946D02*
X104089D01*
X99746D02*
X100889D01*
X246050Y204673D02*
X249707D01*
X233477D02*
X237134D01*
X225476D02*
X229133D01*
X213817D02*
X217475D01*
X198501D02*
X202159D01*
X185928D02*
X189814D01*
X174041D02*
X177698D01*
X161696D02*
X165354D01*
X149123D02*
X152552D01*
X139979D02*
X141122D01*
X136550D02*
X137922D01*
X113919D02*
X126492D01*
X102946D02*
X104089D01*
X99746D02*
X100889D01*
X246050Y204902D02*
X249707D01*
X233477D02*
X237134D01*
X225476D02*
X229133D01*
X213817D02*
X217475D01*
X198501D02*
X202159D01*
X186157D02*
X189814D01*
X174041D02*
X177698D01*
X161696D02*
X165354D01*
X149123D02*
X152552D01*
X139979D02*
X141122D01*
X136550D02*
X137922D01*
X113690D02*
X126721D01*
X102946D02*
X104318D01*
X99746D02*
X100889D01*
X245821Y205130D02*
X249707D01*
X233477D02*
X237134D01*
X225476D02*
X229133D01*
X213817D02*
X217475D01*
X198501D02*
X202159D01*
X186157D02*
X189814D01*
X174041D02*
X177698D01*
X161696D02*
X165354D01*
X149123D02*
X152552D01*
X139751D02*
X141122D01*
X136550D02*
X137693D01*
X113690D02*
X126949D01*
X102946D02*
X104318D01*
X99746D02*
X100889D01*
X245821Y205359D02*
X249707D01*
X233477D02*
X237363D01*
X225704D02*
X229133D01*
X213817D02*
X217475D01*
X198501D02*
X202159D01*
X186157D02*
X189814D01*
X174041D02*
X177698D01*
X161696D02*
X165354D01*
X149123D02*
X152552D01*
X139751D02*
X141122D01*
X136550D02*
X137693D01*
X113462D02*
X127178D01*
X103175D02*
X104318D01*
X99746D02*
X101117D01*
X245821Y205588D02*
X249707D01*
X233477D02*
X237363D01*
X225704D02*
X229362D01*
X213817D02*
X217475D01*
X198501D02*
X202159D01*
X186157D02*
X189814D01*
X174041D02*
X177698D01*
X161696D02*
X165354D01*
X149123D02*
X152552D01*
X139751D02*
X140894D01*
X136322D02*
X137693D01*
X113233D02*
X127406D01*
X103175D02*
X104546D01*
X99746D02*
X101117D01*
X245821Y205816D02*
X249479D01*
X233477D02*
X237363D01*
X225704D02*
X229362D01*
X213817D02*
X217475D01*
X198272D02*
X202159D01*
X186157D02*
X190043D01*
X174041D02*
X177698D01*
X161696D02*
X165354D01*
X149123D02*
X152552D01*
X139751D02*
X140894D01*
X136322D02*
X137693D01*
X113005D02*
X127635D01*
X103175D02*
X104546D01*
X99974D02*
X101117D01*
X245593Y206045D02*
X249479D01*
X233705D02*
X237363D01*
X225704D02*
X229362D01*
X213817D02*
X217475D01*
X198272D02*
X202159D01*
X186157D02*
X190043D01*
X174041D02*
X177698D01*
X161696D02*
X165354D01*
X149123D02*
X152552D01*
X139522D02*
X140894D01*
X136322D02*
X137465D01*
X113005D02*
X127635D01*
X103175D02*
X104546D01*
X99974D02*
X101117D01*
X245593Y206273D02*
X249479D01*
X233705D02*
X237592D01*
X225704D02*
X229362D01*
X213817D02*
X217475D01*
X198272D02*
X202159D01*
X186157D02*
X190043D01*
X174041D02*
X177698D01*
X161696D02*
X165354D01*
X149123D02*
X152552D01*
X139522D02*
X140894D01*
X136093D02*
X137465D01*
X122377D02*
X127864D01*
X118720D02*
X121920D01*
X112776D02*
X118034D01*
X103403D02*
X104546D01*
X99974D02*
X101346D01*
X270967Y206502D02*
X272567D01*
X266624D02*
X267995D01*
X245593D02*
X249479D01*
X233705D02*
X237592D01*
X225476D02*
X229362D01*
X213817D02*
X217475D01*
X198044D02*
X201930D01*
X186385D02*
X190271D01*
X174041D02*
X177698D01*
X161696D02*
X165354D01*
X149123D02*
X152552D01*
X139522D02*
X140665D01*
X136093D02*
X137465D01*
X122834D02*
X128092D01*
X118720D02*
X121920D01*
X112547D02*
X117577D01*
X103403D02*
X104775D01*
X99974D02*
X101346D01*
X283083Y206731D02*
X287198D01*
X279654D02*
X280568D01*
X278282D02*
X279197D01*
X274396D02*
X277597D01*
X270510D02*
X273025D01*
X266167D02*
X268453D01*
X264109D02*
X265252D01*
X260680D02*
X261595D01*
X258166D02*
X258851D01*
X245364D02*
X249479D01*
X233705D02*
X237820D01*
X225476D02*
X229362D01*
X213817D02*
X217475D01*
X198044D02*
X201930D01*
X186385D02*
X190271D01*
X174041D02*
X177698D01*
X161696D02*
X165354D01*
X149123D02*
X152552D01*
X139522D02*
X140665D01*
X136093D02*
X137236D01*
X123292D02*
X128092D01*
X118720D02*
X121920D01*
X112547D02*
X117348D01*
X103403D02*
X104775D01*
X100203D02*
X101346D01*
X284226Y206959D02*
X287426D01*
X283083D02*
X283997D01*
X279883D02*
X280797D01*
X278282D02*
X279197D01*
X274396D02*
X277597D01*
X270281D02*
X273253D01*
X265709D02*
X268910D01*
X264109D02*
X265024D01*
X260909D02*
X261823D01*
X258166D02*
X258851D01*
X245135D02*
X249250D01*
X233934D02*
X237820D01*
X225476D02*
X229362D01*
X213817D02*
X217475D01*
X197815D02*
X201930D01*
X186385D02*
X190500D01*
X174041D02*
X177698D01*
X161696D02*
X165354D01*
X149123D02*
X152552D01*
X139294D02*
X140665D01*
X135865D02*
X137236D01*
X123520D02*
X128321D01*
X118720D02*
X121920D01*
X112319D02*
X117119D01*
X103632D02*
X105004D01*
X100203D02*
X101575D01*
X284226Y207188D02*
X287655D01*
X283083D02*
X283997D01*
X279883D02*
X280797D01*
X278282D02*
X279197D01*
X274396D02*
X277597D01*
X271882D02*
X273482D01*
X270053D02*
X271653D01*
X267538D02*
X268910D01*
X265481D02*
X267081D01*
X264109D02*
X265024D01*
X260909D02*
X261823D01*
X258166D02*
X258851D01*
X245135D02*
X249250D01*
X233934D02*
X238049D01*
X225247D02*
X229133D01*
X213817D02*
X217475D01*
X197587D02*
X201701D01*
X186385D02*
X190729D01*
X174041D02*
X177698D01*
X161696D02*
X165354D01*
X149123D02*
X152552D01*
X139294D02*
X140665D01*
X135865D02*
X137236D01*
X123749D02*
X128321D01*
X118720D02*
X121920D01*
X112319D02*
X116662D01*
X103632D02*
X105004D01*
X100203D02*
X101575D01*
X286512Y207416D02*
X287884D01*
X284226D02*
X285140D01*
X282854D02*
X283769D01*
X280111D02*
X281026D01*
X278282D02*
X279197D01*
X274396D02*
X275311D01*
X272567D02*
X273482D01*
X270053D02*
X270967D01*
X267995D02*
X269138D01*
X265481D02*
X266624D01*
X263881D02*
X264795D01*
X261137D02*
X262052D01*
X258166D02*
X258851D01*
X244907D02*
X249250D01*
X233934D02*
X238277D01*
X225019D02*
X229133D01*
X213817D02*
X217475D01*
X197358D02*
X201701D01*
X186614D02*
X190957D01*
X174041D02*
X177698D01*
X161696D02*
X165354D01*
X149123D02*
X152552D01*
X139294D02*
X140437D01*
X135865D02*
X137008D01*
X123977D02*
X128549D01*
X118720D02*
X121920D01*
X112090D02*
X116434D01*
X103632D02*
X105004D01*
X100432D02*
X101575D01*
X286969Y207645D02*
X288112D01*
X284226D02*
X285140D01*
X282854D02*
X283769D01*
X280111D02*
X281026D01*
X278282D02*
X279197D01*
X274396D02*
X275311D01*
X272567D02*
X273710D01*
X269824D02*
X270739D01*
X268224D02*
X269138D01*
X265252D02*
X266395D01*
X263881D02*
X264795D01*
X261137D02*
X262052D01*
X258166D02*
X258851D01*
X244678D02*
X249022D01*
X234163D02*
X238506D01*
X224790D02*
X229133D01*
X213817D02*
X217475D01*
X197129D02*
X201701D01*
X186614D02*
X191186D01*
X174041D02*
X177698D01*
X161696D02*
X165354D01*
X149123D02*
X152552D01*
X139065D02*
X140437D01*
X135636D02*
X137008D01*
X124206D02*
X128549D01*
X118720D02*
X121920D01*
X112090D02*
X116205D01*
X103861D02*
X105232D01*
X100432D02*
X101803D01*
X287198Y207874D02*
X288112D01*
X284226D02*
X285140D01*
X282854D02*
X283769D01*
X280111D02*
X281026D01*
X278282D02*
X279197D01*
X274396D02*
X275311D01*
X272796D02*
X273710D01*
X269824D02*
X270739D01*
X268453D02*
X269367D01*
X265252D02*
X266167D01*
X263881D02*
X264795D01*
X261137D02*
X262052D01*
X258166D02*
X258851D01*
X244221D02*
X249022D01*
X234163D02*
X238963D01*
X224561D02*
X229133D01*
X213817D02*
X217475D01*
X196901D02*
X201473D01*
X186842D02*
X191414D01*
X174041D02*
X177698D01*
X161696D02*
X165354D01*
X149123D02*
X152552D01*
X139065D02*
X140437D01*
X135636D02*
X137008D01*
X124435D02*
X128549D01*
X118720D02*
X121920D01*
X111862D02*
X116205D01*
X103861D02*
X105232D01*
X100432D02*
X101803D01*
X287198Y208102D02*
X288112D01*
X284226D02*
X285140D01*
X280340D02*
X283540D01*
X278282D02*
X279197D01*
X274396D02*
X275311D01*
X272796D02*
X273710D01*
X269824D02*
X270739D01*
X268453D02*
X269367D01*
X265252D02*
X266167D01*
X261366D02*
X264566D01*
X258166D02*
X258851D01*
X243764D02*
X248793D01*
X234391D02*
X239420D01*
X224104D02*
X229133D01*
X213817D02*
X217475D01*
X196444D02*
X201473D01*
X186842D02*
X191872D01*
X167869D02*
X183871D01*
X161696D02*
X165354D01*
X149123D02*
X152552D01*
X139065D02*
X140208D01*
X135407D02*
X136779D01*
X124663D02*
X128778D01*
X118720D02*
X121920D01*
X111862D02*
X115976D01*
X104089D02*
X105461D01*
X100660D02*
X101803D01*
X287426Y208331D02*
X288112D01*
X284226D02*
X285140D01*
X280340D02*
X283540D01*
X278282D02*
X279197D01*
X274396D02*
X275311D01*
X272796D02*
X273710D01*
X269824D02*
X270739D01*
X268453D02*
X269367D01*
X265252D02*
X265938D01*
X261366D02*
X264566D01*
X258166D02*
X258851D01*
X243078D02*
X248793D01*
X234391D02*
X240106D01*
X213817D02*
X228905D01*
X195758D02*
X201244D01*
X187071D02*
X192557D01*
X167869D02*
X183871D01*
X161696D02*
X165354D01*
X149123D02*
X152552D01*
X138836D02*
X140208D01*
X135407D02*
X136779D01*
X124663D02*
X128778D01*
X118720D02*
X121920D01*
X111862D02*
X115748D01*
X104089D02*
X105461D01*
X100660D02*
X102032D01*
X287426Y208559D02*
X288112D01*
X284226D02*
X285140D01*
X280340D02*
X283312D01*
X278282D02*
X279197D01*
X274396D02*
X275311D01*
X272796D02*
X273710D01*
X269824D02*
X270739D01*
X265252D02*
X265938D01*
X261595D02*
X264566D01*
X258166D02*
X258851D01*
X234620D02*
X248564D01*
X213817D02*
X228905D01*
X187071D02*
X201244D01*
X167869D02*
X183871D01*
X161696D02*
X165354D01*
X149123D02*
X152552D01*
X138836D02*
X140208D01*
X135179D02*
X136550D01*
X124892D02*
X128778D01*
X118720D02*
X121920D01*
X111862D02*
X115748D01*
X104318D02*
X105689D01*
X100660D02*
X102032D01*
X287426Y208788D02*
X288341D01*
X284226D02*
X285140D01*
X282397D02*
X283312D01*
X280568D02*
X281483D01*
X278282D02*
X279197D01*
X274396D02*
X275311D01*
X272796D02*
X273710D01*
X269824D02*
X270739D01*
X265252D02*
X265938D01*
X263423D02*
X264338D01*
X261595D02*
X262509D01*
X258166D02*
X260909D01*
X234848D02*
X248336D01*
X213817D02*
X228676D01*
X187300D02*
X201016D01*
X167869D02*
X183871D01*
X161696D02*
X165354D01*
X149123D02*
X152552D01*
X138608D02*
X139979D01*
X135179D02*
X136550D01*
X125120D02*
X129007D01*
X118720D02*
X121920D01*
X111633D02*
X115519D01*
X104318D02*
X105689D01*
X100889D02*
X102260D01*
X287426Y209017D02*
X288341D01*
X284226D02*
X285140D01*
X282397D02*
X283312D01*
X280568D02*
X281483D01*
X278282D02*
X279197D01*
X274396D02*
X275311D01*
X272796D02*
X273710D01*
X269824D02*
X270739D01*
X265252D02*
X265938D01*
X263423D02*
X264338D01*
X261595D02*
X262509D01*
X258166D02*
X260909D01*
X234848D02*
X248336D01*
X213817D02*
X228676D01*
X187528D02*
X200787D01*
X167869D02*
X183871D01*
X161696D02*
X165354D01*
X149123D02*
X152552D01*
X138608D02*
X139979D01*
X134950D02*
X136322D01*
X125120D02*
X129007D01*
X118720D02*
X121920D01*
X111633D02*
X115519D01*
X104546D02*
X105918D01*
X100889D02*
X102260D01*
X287426Y209245D02*
X288112D01*
X284226D02*
X285140D01*
X282169D02*
X283083D01*
X280797D02*
X281483D01*
X278282D02*
X279197D01*
X274396D02*
X275311D01*
X272796D02*
X273710D01*
X269824D02*
X270739D01*
X265252D02*
X265938D01*
X263195D02*
X264109D01*
X261823D02*
X262738D01*
X258166D02*
X260909D01*
X235077D02*
X248107D01*
X213817D02*
X228448D01*
X187757D02*
X200558D01*
X167869D02*
X183871D01*
X161696D02*
X165354D01*
X149123D02*
X152552D01*
X138379D02*
X139751D01*
X134950D02*
X136322D01*
X125120D02*
X129007D01*
X118720D02*
X121920D01*
X111633D02*
X115291D01*
X104546D02*
X105918D01*
X100889D02*
X102260D01*
X287426Y209474D02*
X288112D01*
X284226D02*
X285140D01*
X282169D02*
X283083D01*
X280797D02*
X281711D01*
X278282D02*
X279197D01*
X274396D02*
X275311D01*
X272796D02*
X273710D01*
X269824D02*
X270739D01*
X265252D02*
X265938D01*
X263195D02*
X264109D01*
X261823D02*
X262738D01*
X258166D02*
X258851D01*
X235306D02*
X247879D01*
X213817D02*
X228219D01*
X187757D02*
X200330D01*
X167869D02*
X183871D01*
X161696D02*
X165354D01*
X149123D02*
X152552D01*
X138379D02*
X139751D01*
X134722D02*
X136093D01*
X125349D02*
X129007D01*
X118720D02*
X121920D01*
X111633D02*
X115291D01*
X104775D02*
X106147D01*
X101117D02*
X102489D01*
X287198Y209702D02*
X288112D01*
X284226D02*
X285140D01*
X282169D02*
X283083D01*
X280797D02*
X281711D01*
X278282D02*
X279197D01*
X274396D02*
X275311D01*
X272796D02*
X273710D01*
X269824D02*
X270739D01*
X268453D02*
X269367D01*
X265252D02*
X266167D01*
X263195D02*
X264109D01*
X261823D02*
X262738D01*
X258166D02*
X258851D01*
X235534D02*
X247650D01*
X213817D02*
X227990D01*
X187985D02*
X200101D01*
X167869D02*
X183871D01*
X161696D02*
X165354D01*
X149123D02*
X152552D01*
X138379D02*
X139751D01*
X134493D02*
X136093D01*
X125349D02*
X129007D01*
X118720D02*
X121920D01*
X111633D02*
X115291D01*
X104775D02*
X106147D01*
X101117D02*
X102489D01*
X287198Y209931D02*
X288112D01*
X284226D02*
X285140D01*
X281026D02*
X282854D01*
X278282D02*
X279197D01*
X274396D02*
X275311D01*
X272796D02*
X273710D01*
X269824D02*
X270739D01*
X268453D02*
X269367D01*
X265252D02*
X266167D01*
X262052D02*
X263881D01*
X258166D02*
X258851D01*
X235763D02*
X247421D01*
X213817D02*
X227762D01*
X188443D02*
X199873D01*
X167869D02*
X183871D01*
X161696D02*
X165354D01*
X149123D02*
X152552D01*
X138151D02*
X139522D01*
X134493D02*
X135865D01*
X125349D02*
X129007D01*
X118720D02*
X121920D01*
X111633D02*
X115291D01*
X105004D02*
X106375D01*
X101346D02*
X102718D01*
X286969Y210160D02*
X288112D01*
X284226D02*
X285140D01*
X281026D02*
X282854D01*
X278282D02*
X279197D01*
X274396D02*
X275311D01*
X272796D02*
X273710D01*
X269824D02*
X270739D01*
X268224D02*
X269367D01*
X265481D02*
X266395D01*
X262052D02*
X263881D01*
X258166D02*
X258851D01*
X235991D02*
X247193D01*
X213817D02*
X227533D01*
X188671D02*
X199644D01*
X167869D02*
X183871D01*
X161696D02*
X165354D01*
X149123D02*
X152552D01*
X138151D02*
X139522D01*
X134264D02*
X135865D01*
X125349D02*
X129007D01*
X118720D02*
X121920D01*
X111404D02*
X115062D01*
X105004D02*
X106604D01*
X101346D02*
X102718D01*
X286512Y210388D02*
X287884D01*
X284226D02*
X285140D01*
X281254D02*
X282626D01*
X278282D02*
X279197D01*
X274396D02*
X275311D01*
X272796D02*
X273710D01*
X269824D02*
X270739D01*
X267995D02*
X269138D01*
X265481D02*
X266624D01*
X262280D02*
X263652D01*
X258166D02*
X258851D01*
X236449D02*
X246736D01*
X213817D02*
X227305D01*
X188900D02*
X199415D01*
X167869D02*
X183871D01*
X161696D02*
X165354D01*
X149123D02*
X152552D01*
X137922D02*
X139294D01*
X134036D02*
X135636D01*
X125578D02*
X129007D01*
X118720D02*
X121920D01*
X111404D02*
X115062D01*
X105232D02*
X106604D01*
X101575D02*
X102946D01*
X284226Y210617D02*
X287655D01*
X281254D02*
X282626D01*
X276911D02*
X280568D01*
X274396D02*
X275311D01*
X272796D02*
X273710D01*
X269824D02*
X270739D01*
X265709D02*
X269138D01*
X262280D02*
X263652D01*
X258166D02*
X261137D01*
X236677D02*
X246278D01*
X213817D02*
X226847D01*
X189357D02*
X198958D01*
X167869D02*
X183871D01*
X161696D02*
X165354D01*
X149123D02*
X152552D01*
X137693D02*
X139294D01*
X134036D02*
X135407D01*
X125578D02*
X129007D01*
X118720D02*
X121920D01*
X111404D02*
X115062D01*
X105232D02*
X106832D01*
X101575D02*
X102946D01*
X284226Y210845D02*
X287426D01*
X281254D02*
X282626D01*
X276911D02*
X280568D01*
X274396D02*
X275311D01*
X272796D02*
X273710D01*
X269824D02*
X270739D01*
X265938D02*
X268910D01*
X262280D02*
X263652D01*
X258166D02*
X261137D01*
X237134D02*
X246050D01*
X213817D02*
X226162D01*
X189814D02*
X198501D01*
X167869D02*
X183871D01*
X161696D02*
X165354D01*
X149123D02*
X152552D01*
X137693D02*
X139065D01*
X133807D02*
X135407D01*
X125578D02*
X129007D01*
X118720D02*
X121920D01*
X111404D02*
X115062D01*
X105461D02*
X107061D01*
X101803D02*
X103175D01*
X284226Y211074D02*
X286969D01*
X281483D02*
X282397D01*
X276911D02*
X280568D01*
X274396D02*
X275311D01*
X272796D02*
X273710D01*
X269824D02*
X270739D01*
X266167D02*
X268453D01*
X262509D02*
X263423D01*
X258166D02*
X261137D01*
X237820D02*
X245364D01*
X213817D02*
X225476D01*
X190271D02*
X198044D01*
X167869D02*
X183871D01*
X161696D02*
X165354D01*
X149123D02*
X152552D01*
X137465D02*
X139065D01*
X133579D02*
X135179D01*
X125578D02*
X129007D01*
X118720D02*
X121920D01*
X111404D02*
X115062D01*
X105689D02*
X107290D01*
X101803D02*
X103403D01*
X266852Y211303D02*
X267767D01*
X238506D02*
X244678D01*
X190957D02*
X197358D01*
X137465D02*
X138836D01*
X133579D02*
X134950D01*
X105689D02*
X107290D01*
X102032D02*
X103403D01*
X239420Y211531D02*
X243764D01*
X192100D02*
X196215D01*
X137236D02*
X138608D01*
X133350D02*
X134950D01*
X105918D02*
X107518D01*
X102032D02*
X103632D01*
X137008Y211760D02*
X138608D01*
X133121D02*
X134722D01*
X106147D02*
X107747D01*
X102260D02*
X103632D01*
X137008Y211988D02*
X138379D01*
X132893D02*
X134493D01*
X106375D02*
X107975D01*
X102489D02*
X103861D01*
X136779Y212217D02*
X138379D01*
X132664D02*
X134264D01*
X106375D02*
X108204D01*
X102489D02*
X104089D01*
X136550Y212446D02*
X138151D01*
X132436D02*
X134264D01*
X106604D02*
X108433D01*
X102718D02*
X104089D01*
X136550Y212674D02*
X137922D01*
X132207D02*
X134036D01*
X106832D02*
X108661D01*
X102718D02*
X104318D01*
X136322Y212903D02*
X137922D01*
X131978D02*
X133807D01*
X107061D02*
X108890D01*
X102946D02*
X104546D01*
X136093Y213131D02*
X137693D01*
X131750D02*
X133579D01*
X107290D02*
X109118D01*
X103175D02*
X104775D01*
X135865Y213360D02*
X137465D01*
X131521D02*
X133350D01*
X107518D02*
X109347D01*
X103403D02*
X104775D01*
X135865Y213589D02*
X137465D01*
X131293D02*
X133121D01*
X107747D02*
X109576D01*
X103403D02*
X105004D01*
X135636Y213817D02*
X137236D01*
X131064D02*
X132893D01*
X107975D02*
X109804D01*
X103632D02*
X105232D01*
X135407Y214046D02*
X137008D01*
X130835D02*
X132664D01*
X108204D02*
X110033D01*
X103861D02*
X105461D01*
X135179Y214274D02*
X136779D01*
X130378D02*
X132436D01*
X108433D02*
X110261D01*
X104089D02*
X105689D01*
X134950Y214503D02*
X136779D01*
X130150D02*
X132207D01*
X108661D02*
X110719D01*
X104089D02*
X105918D01*
X134722Y214732D02*
X136550D01*
X129921D02*
X131978D01*
X108890D02*
X110947D01*
X104318D02*
X106147D01*
X134493Y214960D02*
X136322D01*
X129464D02*
X131750D01*
X109118D02*
X111404D01*
X104546D02*
X106375D01*
X134264Y215189D02*
X136093D01*
X129235D02*
X131293D01*
X109576D02*
X111633D01*
X104775D02*
X106604D01*
X134036Y215417D02*
X135865D01*
X128778D02*
X131064D01*
X109804D02*
X112090D01*
X105004D02*
X106832D01*
X133807Y215646D02*
X135636D01*
X128321D02*
X130835D01*
X110033D02*
X112547D01*
X105232D02*
X107061D01*
X133579Y215875D02*
X135407D01*
X127864D02*
X130378D01*
X110490D02*
X113005D01*
X105461D02*
X107290D01*
X133350Y216103D02*
X135179D01*
X127406D02*
X130150D01*
X110719D02*
X113462D01*
X105689D02*
X107518D01*
X133121Y216332D02*
X134950D01*
X126949D02*
X129692D01*
X111176D02*
X113919D01*
X105918D02*
X107747D01*
X132664Y216560D02*
X134722D01*
X126492D02*
X129235D01*
X111633D02*
X114376D01*
X106147D02*
X107975D01*
X132436Y216789D02*
X134493D01*
X125806D02*
X129007D01*
X111862D02*
X115062D01*
X106375D02*
X108433D01*
X132207Y217018D02*
X134264D01*
X125120D02*
X128549D01*
X112319D02*
X115748D01*
X106604D02*
X108661D01*
X131978Y217246D02*
X134036D01*
X124206D02*
X128092D01*
X112776D02*
X116662D01*
X106832D02*
X108890D01*
X131521Y217475D02*
X133579D01*
X123063D02*
X127406D01*
X113462D02*
X117577D01*
X107061D02*
X109347D01*
X131293Y217703D02*
X133350D01*
X121006D02*
X126949D01*
X113919D02*
X119863D01*
X107518D02*
X109576D01*
X130835Y217932D02*
X133121D01*
X114605D02*
X126263D01*
X107747D02*
X110033D01*
X130378Y218161D02*
X132664D01*
X115291D02*
X125578D01*
X107975D02*
X110261D01*
X130150Y218389D02*
X132436D01*
X116205D02*
X124663D01*
X108433D02*
X110719D01*
X129692Y218618D02*
X132207D01*
X117119D02*
X123749D01*
X108661D02*
X111176D01*
X129235Y218846D02*
X131750D01*
X118948D02*
X121920D01*
X109118D02*
X111633D01*
X128778Y219075D02*
X131293D01*
X109347D02*
X112090D01*
X128321Y219304D02*
X131064D01*
X109804D02*
X112547D01*
X127635Y219532D02*
X130607D01*
X110261D02*
X113233D01*
X127178Y219761D02*
X130150D01*
X110719D02*
X113690D01*
X126492Y219989D02*
X129692D01*
X111176D02*
X114376D01*
X125578Y220218D02*
X129235D01*
X111633D02*
X115291D01*
X124663Y220447D02*
X128778D01*
X112090D02*
X116205D01*
X123520Y220675D02*
X128092D01*
X112776D02*
X117348D01*
X121463Y220904D02*
X127635D01*
X113233D02*
X119177D01*
X113919Y221132D02*
X126949D01*
X114605Y221361D02*
X126035D01*
X115519Y221590D02*
X125120D01*
X116662Y221818D02*
X123977D01*
X118491Y222047D02*
X122377D01*
M02*
