G04 Layer_Color=32896*
%FSLAX44Y44*%
%MOMM*%
G71*
G01*
G75*
%ADD46C,0.1270*%
%ADD102C,0.0762*%
%ADD103C,0.2286*%
D46*
X0Y0D02*
X1000000D01*
Y600000D01*
X0D02*
X1000000D01*
X0Y0D02*
Y600000D01*
D102*
X467990Y151908D02*
X475610D01*
X470276Y151146D02*
X477896D01*
X654680Y150384D02*
X660776D01*
X633344D02*
X640964D01*
X562478D02*
X565526D01*
X551810D02*
X554858D01*
X475610D02*
X480182D01*
X452750D02*
X460370D01*
X656204Y149622D02*
X663824D01*
X633344D02*
X642488D01*
X562478D02*
X567812D01*
X551810D02*
X556382D01*
X478658D02*
X480944D01*
X451988D02*
X462656D01*
X661538Y148860D02*
X666110D01*
X640202D02*
X644012D01*
X632582D02*
X634106D01*
X563240D02*
X568574D01*
X552572D02*
X557906D01*
X480182D02*
X482468D01*
X458846D02*
X464180D01*
X451226D02*
X453512D01*
X664586Y148098D02*
X668396D01*
X641726D02*
X644774D01*
X632582D02*
X634106D01*
X564002D02*
X570098D01*
X553334D02*
X558668D01*
X480944D02*
X483230D01*
X460370D02*
X464942D01*
X451226D02*
X452750D01*
X666872Y147336D02*
X669920D01*
X642488D02*
X646298D01*
X632582D02*
X634106D01*
X564764D02*
X570860D01*
X557144D02*
X560192D01*
X554096D02*
X556382D01*
X481706D02*
X483992D01*
X461894D02*
X466466D01*
X451226D02*
X452750D01*
X668396Y146574D02*
X671444D01*
X644012D02*
X647060D01*
X633344D02*
X634106D01*
X568574D02*
X571622D01*
X565526D02*
X567812D01*
X557906D02*
X560954D01*
X554858D02*
X557144D01*
X482468D02*
X483992D01*
X462656D02*
X467228D01*
X451988D02*
X453512D01*
X669920Y145812D02*
X672206D01*
X644774D02*
X647822D01*
X633344D02*
X634868D01*
X570098D02*
X572384D01*
X566288D02*
X568574D01*
X559430D02*
X561716D01*
X555620D02*
X557906D01*
X483230D02*
X484754D01*
X463418D02*
X467990D01*
X451988D02*
X453512D01*
X670682Y145050D02*
X673730D01*
X645536D02*
X648584D01*
X633344D02*
X634868D01*
X570860D02*
X573908D01*
X567050D02*
X569336D01*
X560192D02*
X562478D01*
X555620D02*
X558668D01*
X483230D02*
X484754D01*
X464180D02*
X468752D01*
X452750D02*
X455036D01*
X672206Y144288D02*
X674492D01*
X646298D02*
X649346D01*
X634106D02*
X635630D01*
X571622D02*
X574670D01*
X567812D02*
X570098D01*
X560954D02*
X563240D01*
X556382D02*
X559430D01*
X483992D02*
X484754D01*
X465704D02*
X469514D01*
X453512D02*
X455798D01*
X672968Y143526D02*
X674492D01*
X647060D02*
X650108D01*
X634868D02*
X636392D01*
X572384D02*
X575432D01*
X567812D02*
X570860D01*
X561716D02*
X564002D01*
X557144D02*
X560192D01*
X483992D02*
X484754D01*
X466466D02*
X470276D01*
X454274D02*
X457322D01*
X673730Y142764D02*
X675254D01*
X647822D02*
X650870D01*
X635630D02*
X637154D01*
X573146D02*
X576194D01*
X568574D02*
X571622D01*
X562478D02*
X564764D01*
X557906D02*
X560954D01*
X483992D02*
X484754D01*
X466466D02*
X470276D01*
X455798D02*
X458846D01*
X673730Y142002D02*
X676016D01*
X647822D02*
X651632D01*
X636392D02*
X637916D01*
X573908D02*
X576956D01*
X569336D02*
X572384D01*
X563240D02*
X565526D01*
X558668D02*
X561716D01*
X483230D02*
X484754D01*
X467228D02*
X471038D01*
X456560D02*
X460370D01*
X674492Y141240D02*
X676016D01*
X648584D02*
X652394D01*
X637154D02*
X638678D01*
X574670D02*
X577718D01*
X570098D02*
X573146D01*
X564002D02*
X566288D01*
X559430D02*
X562478D01*
X483230D02*
X484754D01*
X467990D02*
X471038D01*
X458084D02*
X462656D01*
X674492Y140478D02*
X676016D01*
X649346D02*
X652394D01*
X637916D02*
X640202D01*
X575432D02*
X578480D01*
X570860D02*
X573908D01*
X564764D02*
X567050D01*
X559430D02*
X563240D01*
X482468D02*
X484754D01*
X468752D02*
X471038D01*
X460370D02*
X464180D01*
X391790D02*
X395600D01*
X675254Y139716D02*
X676016D01*
X650108D02*
X653156D01*
X638678D02*
X640964D01*
X576194D02*
X578480D01*
X571622D02*
X574670D01*
X565526D02*
X567812D01*
X560192D02*
X564002D01*
X481706D02*
X483992D01*
X468752D02*
X471800D01*
X461894D02*
X466466D01*
X391790D02*
X396362D01*
X675254Y138954D02*
X676778D01*
X650108D02*
X653918D01*
X640202D02*
X642488D01*
X576956D02*
X579242D01*
X571622D02*
X575432D01*
X566288D02*
X568574D01*
X560954D02*
X564764D01*
X480182D02*
X483230D01*
X464180D02*
X471800D01*
X392552D02*
X397124D01*
X675254Y138192D02*
X676778D01*
X650870D02*
X654680D01*
X641726D02*
X643250D01*
X577718D02*
X580004D01*
X572384D02*
X576194D01*
X567050D02*
X569336D01*
X561716D02*
X565526D01*
X466466D02*
X482468D01*
X393314D02*
X397886D01*
X675254Y137430D02*
X676778D01*
X651632D02*
X655442D01*
X642488D02*
X644774D01*
X578480D02*
X580766D01*
X573146D02*
X576956D01*
X567812D02*
X570098D01*
X562478D02*
X566288D01*
X469514D02*
X480944D01*
X394076D02*
X398648D01*
X674492Y136668D02*
X676016D01*
X652394D02*
X656204D01*
X644012D02*
X646298D01*
X579242D02*
X581528D01*
X573908D02*
X577718D01*
X568574D02*
X570860D01*
X563240D02*
X567050D01*
X469514D02*
X471038D01*
X394838D02*
X398648D01*
X674492Y135906D02*
X676016D01*
X652394D02*
X656204D01*
X645536D02*
X647822D01*
X580004D02*
X582290D01*
X574670D02*
X578480D01*
X569336D02*
X570860D01*
X563240D02*
X567812D01*
X464942D02*
X474848D01*
X395600D02*
X399410D01*
X673730Y135144D02*
X676016D01*
X653156D02*
X656966D01*
X647060D02*
X649346D01*
X580766D02*
X583052D01*
X574670D02*
X579242D01*
X570098D02*
X571622D01*
X564002D02*
X568574D01*
X464942D02*
X477896D01*
X396362D02*
X400172D01*
X672968Y134382D02*
X675254D01*
X653918D02*
X657728D01*
X649346D02*
X651632D01*
X581528D02*
X583814D01*
X575432D02*
X580004D01*
X570860D02*
X572384D01*
X564764D02*
X569336D01*
X473324D02*
X479420D01*
X464942D02*
X468752D01*
X396362D02*
X400934D01*
X672206Y133620D02*
X674492D01*
X650870D02*
X658490D01*
X582290D02*
X584576D01*
X576194D02*
X580766D01*
X570860D02*
X573146D01*
X565526D02*
X570098D01*
X475610D02*
X480944D01*
X397124D02*
X401696D01*
X670682Y132858D02*
X673730D01*
X653918D02*
X659252D01*
X583052D02*
X585338D01*
X576956D02*
X580766D01*
X571622D02*
X573908D01*
X566288D02*
X570098D01*
X543428D02*
X545714D01*
X477134D02*
X482468D01*
X439034D02*
X441320D01*
X397886D02*
X402458D01*
X666110Y132096D02*
X672968D01*
X655442D02*
X665348D01*
X583814D02*
X586100D01*
X577718D02*
X581528D01*
X572384D02*
X574670D01*
X566288D02*
X570860D01*
X542666D02*
X546476D01*
X477896D02*
X483230D01*
X439034D02*
X442082D01*
X398648D02*
X403220D01*
X656204Y131334D02*
X670682D01*
X584576D02*
X586862D01*
X577718D02*
X582290D01*
X573146D02*
X575432D01*
X567050D02*
X571622D01*
X542666D02*
X546476D01*
X479420D02*
X484754D01*
X439796D02*
X442844D01*
X399410D02*
X403220D01*
X656966Y130572D02*
X660014D01*
X584576D02*
X586862D01*
X578480D02*
X583052D01*
X573908D02*
X576194D01*
X567812D02*
X572384D01*
X543428D02*
X545714D01*
X480182D02*
X485516D01*
X440558D02*
X443606D01*
X400172D02*
X403982D01*
X656966Y129810D02*
X660776D01*
X585338D02*
X587624D01*
X579242D02*
X583814D01*
X574670D02*
X576956D01*
X568574D02*
X573146D01*
X480944D02*
X486278D01*
X465704D02*
X472562D01*
X441320D02*
X444368D01*
X400934D02*
X404744D01*
X657728Y129048D02*
X661538D01*
X625724D02*
X628010D01*
X586100D02*
X588386D01*
X580004D02*
X584576D01*
X575432D02*
X577718D01*
X569336D02*
X573908D01*
X504566D02*
X506852D01*
X481706D02*
X486278D01*
X464942D02*
X474848D01*
X451988D02*
X454274D01*
X442082D02*
X445130D01*
X401696D02*
X405506D01*
X375788D02*
X378074D01*
X658490Y128286D02*
X662300D01*
X626486D02*
X628772D01*
X586862D02*
X589148D01*
X580004D02*
X584576D01*
X576194D02*
X578480D01*
X569336D02*
X573908D01*
X531236D02*
X534284D01*
X505328D02*
X507614D01*
X482468D02*
X487040D01*
X472562D02*
X476372D01*
X464180D02*
X466466D01*
X452750D02*
X455036D01*
X442082D02*
X445892D01*
X401696D02*
X406268D01*
X376550D02*
X378836D01*
X659252Y127524D02*
X662300D01*
X627248D02*
X630296D01*
X587624D02*
X589910D01*
X580766D02*
X585338D01*
X576956D02*
X578480D01*
X570098D02*
X574670D01*
X531236D02*
X534284D01*
X506090D02*
X509138D01*
X483230D02*
X487802D01*
X474086D02*
X477896D01*
X464180D02*
X465704D01*
X453512D02*
X456560D01*
X442844D02*
X446654D01*
X402458D02*
X407030D01*
X377312D02*
X380360D01*
X660014Y126762D02*
X663062D01*
X642488D02*
X648584D01*
X637154D02*
X640964D01*
X628010D02*
X631058D01*
X588386D02*
X590672D01*
X581528D02*
X586100D01*
X577718D02*
X579242D01*
X570860D02*
X575432D01*
X557906D02*
X563240D01*
X548000D02*
X551810D01*
X538094D02*
X543428D01*
X528950D02*
X534284D01*
X515996D02*
X521330D01*
X506852D02*
X509900D01*
X483992D02*
X487802D01*
X475610D02*
X478658D01*
X464180D02*
X465704D01*
X454274D02*
X457322D01*
X443606D02*
X447416D01*
X438272D02*
X442844D01*
X423794D02*
X429890D01*
X418460D02*
X422270D01*
X408554D02*
X413888D01*
X403220D02*
X407792D01*
X391790D02*
X397886D01*
X386456D02*
X390266D01*
X378074D02*
X381122D01*
X660776Y126000D02*
X663824D01*
X642488D02*
X650108D01*
X637916D02*
X641726D01*
X628010D02*
X632582D01*
X589148D02*
X591434D01*
X582290D02*
X586100D01*
X578480D02*
X580004D01*
X571622D02*
X576194D01*
X557906D02*
X564002D01*
X548000D02*
X552572D01*
X537332D02*
X544952D01*
X528188D02*
X533522D01*
X515996D02*
X522092D01*
X506852D02*
X511424D01*
X483992D02*
X487802D01*
X477134D02*
X479420D01*
X464180D02*
X465704D01*
X454274D02*
X458846D01*
X438272D02*
X448178D01*
X423794D02*
X431414D01*
X419222D02*
X423032D01*
X403982D02*
X415412D01*
X391790D02*
X399410D01*
X387218D02*
X391028D01*
X378074D02*
X382646D01*
X661538Y125238D02*
X664586D01*
X646298D02*
X650870D01*
X638678D02*
X644012D01*
X628010D02*
X633344D01*
X589910D02*
X592196D01*
X582290D02*
X586862D01*
X578480D02*
X580766D01*
X571622D02*
X576194D01*
X560954D02*
X565526D01*
X557906D02*
X560192D01*
X548762D02*
X553334D01*
X541142D02*
X546476D01*
X537332D02*
X538856D01*
X528188D02*
X534284D01*
X519044D02*
X523616D01*
X515996D02*
X518282D01*
X506852D02*
X512186D01*
X484754D02*
X488564D01*
X477896D02*
X480944D01*
X464180D02*
X465704D01*
X454274D02*
X459608D01*
X442082D02*
X448940D01*
X438272D02*
X441320D01*
X427604D02*
X432176D01*
X419984D02*
X425318D01*
X411602D02*
X416936D01*
X404744D02*
X409316D01*
X395600D02*
X400172D01*
X387980D02*
X393314D01*
X378074D02*
X383408D01*
X662300Y124476D02*
X665348D01*
X647822D02*
X652394D01*
X639440D02*
X644012D01*
X631820D02*
X634106D01*
X628010D02*
X630296D01*
X590672D02*
X592958D01*
X583052D02*
X587624D01*
X579242D02*
X581528D01*
X572384D02*
X576956D01*
X561716D02*
X566288D01*
X558668D02*
X560954D01*
X549524D02*
X554858D01*
X542666D02*
X547238D01*
X537332D02*
X538856D01*
X528950D02*
X535046D01*
X519806D02*
X524378D01*
X516758D02*
X519044D01*
X510662D02*
X512948D01*
X506852D02*
X509138D01*
X485516D02*
X488564D01*
X478658D02*
X481706D01*
X464942D02*
X466466D01*
X458084D02*
X460370D01*
X454274D02*
X456560D01*
X443606D02*
X450464D01*
X438272D02*
X442082D01*
X429128D02*
X433700D01*
X420746D02*
X425318D01*
X413126D02*
X417698D01*
X405506D02*
X409316D01*
X397124D02*
X401696D01*
X388742D02*
X393314D01*
X381884D02*
X384170D01*
X378074D02*
X380360D01*
X663062Y123714D02*
X666110D01*
X648584D02*
X653156D01*
X640202D02*
X644012D01*
X632582D02*
X635630D01*
X628010D02*
X631058D01*
X591434D02*
X593720D01*
X583814D02*
X587624D01*
X580004D02*
X582290D01*
X573146D02*
X577718D01*
X559430D02*
X567050D01*
X550286D02*
X555620D01*
X543428D02*
X548000D01*
X537332D02*
X538856D01*
X528950D02*
X535808D01*
X517520D02*
X525140D01*
X511424D02*
X514472D01*
X506852D02*
X509900D01*
X485516D02*
X488564D01*
X480182D02*
X482468D01*
X464942D02*
X466466D01*
X458846D02*
X461894D01*
X454274D02*
X457322D01*
X444368D02*
X451226D01*
X439034D02*
X442844D01*
X429890D02*
X434462D01*
X421508D02*
X425318D01*
X413888D02*
X418460D01*
X406268D02*
X409316D01*
X397886D02*
X402458D01*
X389504D02*
X393314D01*
X382646D02*
X385694D01*
X378074D02*
X381122D01*
X663824Y122952D02*
X666872D01*
X649346D02*
X653918D01*
X640964D02*
X644774D01*
X634106D02*
X636392D01*
X628010D02*
X631058D01*
X605912D02*
X608960D01*
X592196D02*
X594482D01*
X583814D02*
X588386D01*
X580766D02*
X583052D01*
X573908D02*
X577718D01*
X560954D02*
X567812D01*
X551048D02*
X556382D01*
X544190D02*
X548762D01*
X538094D02*
X539618D01*
X529712D02*
X536570D01*
X519044D02*
X525902D01*
X512948D02*
X515234D01*
X506852D02*
X509900D01*
X485516D02*
X488564D01*
X480944D02*
X483230D01*
X465704D02*
X467228D01*
X460370D02*
X462656D01*
X454274D02*
X457322D01*
X445892D02*
X451988D01*
X439034D02*
X442844D01*
X430652D02*
X435224D01*
X422270D02*
X426080D01*
X414650D02*
X419222D01*
X406268D02*
X410078D01*
X398648D02*
X403220D01*
X390266D02*
X394076D01*
X384170D02*
X386456D01*
X378074D02*
X381122D01*
X665348Y122190D02*
X668396D01*
X650108D02*
X653918D01*
X641726D02*
X645536D01*
X634868D02*
X638678D01*
X628010D02*
X631820D01*
X624962D02*
X626486D01*
X605150D02*
X609722D01*
X592958D02*
X596006D01*
X584576D02*
X588386D01*
X581528D02*
X583814D01*
X573908D02*
X578480D01*
X562478D02*
X568574D01*
X551810D02*
X557906D01*
X545714D02*
X548762D01*
X530474D02*
X540380D01*
X520568D02*
X526664D01*
X513710D02*
X515996D01*
X506852D02*
X510662D01*
X503804D02*
X505328D01*
X486278D02*
X488564D01*
X481706D02*
X483230D01*
X465704D02*
X467990D01*
X461132D02*
X463418D01*
X454274D02*
X458084D01*
X446654D02*
X452750D01*
X439796D02*
X443606D01*
X431414D02*
X435986D01*
X423032D02*
X426842D01*
X416174D02*
X419984D01*
X407030D02*
X410840D01*
X399410D02*
X403220D01*
X391028D02*
X394838D01*
X384932D02*
X387980D01*
X378074D02*
X381884D01*
X375026D02*
X376550D01*
X666110Y121428D02*
X669158D01*
X650870D02*
X654680D01*
X642488D02*
X646298D01*
X636392D02*
X639440D01*
X625724D02*
X631820D01*
X605150D02*
X609722D01*
X593720D02*
X596768D01*
X585338D02*
X589148D01*
X582290D02*
X584576D01*
X574670D02*
X578480D01*
X564002D02*
X569336D01*
X552572D02*
X559430D01*
X546476D02*
X550286D01*
X535808D02*
X541142D01*
X531236D02*
X535046D01*
X522092D02*
X528188D01*
X514472D02*
X517520D01*
X504566D02*
X510662D01*
X486278D02*
X488564D01*
X482468D02*
X483992D01*
X466466D02*
X469514D01*
X462656D02*
X463418D01*
X447416D02*
X458084D01*
X439796D02*
X444368D01*
X432176D02*
X436748D01*
X423794D02*
X427604D01*
X416936D02*
X420746D01*
X407792D02*
X411602D01*
X400172D02*
X404744D01*
X391790D02*
X395600D01*
X386456D02*
X388742D01*
X375788D02*
X381884D01*
X676778Y120666D02*
X686684D01*
X667634D02*
X670682D01*
X651632D02*
X656204D01*
X642488D02*
X647060D01*
X637916D02*
X640202D01*
X626486D02*
X632582D01*
X605912D02*
X609722D01*
X595244D02*
X597530D01*
X583052D02*
X589148D01*
X575432D02*
X578480D01*
X565526D02*
X570860D01*
X557906D02*
X560192D01*
X552572D02*
X556382D01*
X546476D02*
X551810D01*
X538856D02*
X542666D01*
X531998D02*
X535808D01*
X523616D02*
X528950D01*
X515996D02*
X518282D01*
X505328D02*
X511424D01*
X485516D02*
X487802D01*
X467990D02*
X471038D01*
X452750D02*
X458846D01*
X448178D02*
X451988D01*
X440558D02*
X444368D01*
X432938D02*
X438272D01*
X423794D02*
X428366D01*
X416936D02*
X421508D01*
X408554D02*
X413126D01*
X400934D02*
X405506D01*
X391790D02*
X396362D01*
X387218D02*
X389504D01*
X376550D02*
X382646D01*
X683636Y119904D02*
X687446D01*
X673730D02*
X682874D01*
X669158D02*
X672206D01*
X652394D02*
X657728D01*
X643250D02*
X648584D01*
X638678D02*
X641726D01*
X634868D02*
X637916D01*
X628772D02*
X633344D01*
X607436D02*
X609722D01*
X596006D02*
X599054D01*
X583814D02*
X589910D01*
X575432D02*
X578480D01*
X566288D02*
X571622D01*
X558668D02*
X561716D01*
X553334D02*
X557144D01*
X550286D02*
X552572D01*
X547238D02*
X549524D01*
X540380D02*
X543428D01*
X532760D02*
X535808D01*
X527426D02*
X530474D01*
X524378D02*
X526664D01*
X513710D02*
X519806D01*
X507614D02*
X512186D01*
X485516D02*
X487802D01*
X468752D02*
X472562D01*
X461132D02*
X464180D01*
X455036D02*
X459608D01*
X448940D02*
X452750D01*
X441320D02*
X445130D01*
X433700D02*
X439034D01*
X424556D02*
X429890D01*
X417698D02*
X423032D01*
X409316D02*
X413888D01*
X401696D02*
X407030D01*
X392552D02*
X397886D01*
X384932D02*
X391028D01*
X378836D02*
X383408D01*
X685922Y119142D02*
X687446D01*
X670682D02*
X676016D01*
X656204D02*
X660014D01*
X652394D02*
X654680D01*
X644012D02*
X650108D01*
X640202D02*
X642488D01*
X634868D02*
X637916D01*
X630296D02*
X634106D01*
X606674D02*
X608960D01*
X596768D02*
X600578D01*
X585338D02*
X589910D01*
X576194D02*
X578480D01*
X570098D02*
X573146D01*
X566288D02*
X568574D01*
X560192D02*
X563240D01*
X551048D02*
X557906D01*
X548000D02*
X549524D01*
X541142D02*
X544952D01*
X533522D02*
X536570D01*
X528950D02*
X531236D01*
X524378D02*
X526664D01*
X518282D02*
X521330D01*
X513710D02*
X516758D01*
X509138D02*
X512948D01*
X483992D02*
X487040D01*
X470276D02*
X474848D01*
X461132D02*
X464180D01*
X456560D02*
X460370D01*
X449702D02*
X453512D01*
X442082D02*
X445130D01*
X437510D02*
X440558D01*
X433700D02*
X435986D01*
X425318D02*
X431414D01*
X421508D02*
X423794D01*
X418460D02*
X419984D01*
X410078D02*
X415412D01*
X405506D02*
X408554D01*
X401696D02*
X403982D01*
X393314D02*
X399410D01*
X389504D02*
X391790D01*
X384932D02*
X387980D01*
X380360D02*
X384170D01*
X657728Y118380D02*
X687446D01*
X647822D02*
X654680D01*
X640964D02*
X647060D01*
X631058D02*
X637916D01*
X598292D02*
X608198D01*
X586100D02*
X589910D01*
X571622D02*
X578480D01*
X560954D02*
X568574D01*
X552572D02*
X558668D01*
X542666D02*
X549524D01*
X530474D02*
X536570D01*
X519044D02*
X526664D01*
X509900D02*
X516758D01*
X471800D02*
X486278D01*
X457322D02*
X464180D01*
X450464D02*
X454274D01*
X439034D02*
X445130D01*
X429128D02*
X435986D01*
X422270D02*
X428366D01*
X413126D02*
X419984D01*
X407030D02*
X412364D01*
X397124D02*
X403982D01*
X390266D02*
X396362D01*
X381122D02*
X387980D01*
X676016Y117618D02*
X686684D01*
X660014D02*
X671444D01*
X649346D02*
X653918D01*
X642488D02*
X647060D01*
X632582D02*
X637916D01*
X599816D02*
X607436D01*
X586862D02*
X589910D01*
X573146D02*
X577718D01*
X562478D02*
X567812D01*
X554096D02*
X559430D01*
X544190D02*
X548762D01*
X531998D02*
X535808D01*
X520568D02*
X525902D01*
X511424D02*
X516758D01*
X474086D02*
X484754D01*
X458846D02*
X464180D01*
X450464D02*
X455036D01*
X440558D02*
X445130D01*
X430652D02*
X435224D01*
X423794D02*
X428366D01*
X414650D02*
X419984D01*
X408554D02*
X412364D01*
X398648D02*
X403220D01*
X391790D02*
X396362D01*
X382646D02*
X387980D01*
X555620Y116856D02*
X560192D01*
X451226D02*
X455036D01*
X557144Y116094D02*
X560954D01*
X451988D02*
X455798D01*
X557906Y115332D02*
X561716D01*
X452750D02*
X456560D01*
X558668Y114570D02*
X564002D01*
X453512D02*
X457322D01*
X559430Y113808D02*
X565526D01*
X454274D02*
X458084D01*
X564764Y113046D02*
X567812D01*
X560192D02*
X563240D01*
X454274D02*
X458846D01*
X566288Y112284D02*
X568574D01*
X560954D02*
X564002D01*
X455036D02*
X458846D01*
X567812Y111522D02*
X570098D01*
X561716D02*
X564764D01*
X455798D02*
X459608D01*
X568574Y110760D02*
X570860D01*
X562478D02*
X565526D01*
X456560D02*
X460370D01*
X570098Y109998D02*
X571622D01*
X563240D02*
X566288D01*
X457322D02*
X461132D01*
X570860Y109236D02*
X572384D01*
X564002D02*
X567050D01*
X458084D02*
X461894D01*
X570860Y108474D02*
X572384D01*
X564764D02*
X567812D01*
X458084D02*
X462656D01*
X571622Y107712D02*
X573146D01*
X565526D02*
X568574D01*
X458846D02*
X462656D01*
X567050Y106950D02*
X573146D01*
X459608D02*
X463418D01*
X567812Y106188D02*
X572384D01*
X460370D02*
X464180D01*
X461132Y105426D02*
X464942D01*
X461894Y104664D02*
X465704D01*
D103*
X593068Y76033D02*
Y81111D01*
X590529Y83650D01*
X587990Y81111D01*
Y76033D01*
Y79841D01*
X593068D01*
X582911Y73493D02*
X581642D01*
X580372Y74763D01*
Y81111D01*
X584181D01*
X585450Y79841D01*
Y77302D01*
X584181Y76033D01*
X580372D01*
X577833Y81111D02*
Y77302D01*
X576563Y76033D01*
X572754D01*
Y81111D01*
X570215Y76033D02*
X566406D01*
X565137Y77302D01*
X566406Y78572D01*
X568946D01*
X570215Y79841D01*
X568946Y81111D01*
X565137D01*
X561328Y82381D02*
Y81111D01*
X562598D01*
X560059D01*
X561328D01*
Y77302D01*
X560059Y76033D01*
X556250D02*
X553711D01*
X554980D01*
Y81111D01*
X556250D01*
X549902Y76033D02*
Y81111D01*
X546093D01*
X544823Y79841D01*
Y76033D01*
X534667Y83650D02*
Y76033D01*
X530858D01*
X529588Y77302D01*
Y82381D01*
X530858Y83650D01*
X534667D01*
X527049Y76033D02*
X524510D01*
X525780D01*
Y81111D01*
X527049D01*
X519432D02*
X516892D01*
X515623Y79841D01*
Y76033D01*
X519432D01*
X520701Y77302D01*
X519432Y78572D01*
X515623D01*
X513084Y81111D02*
X508005D01*
X513084Y76033D01*
X508005D01*
X497849D02*
Y81111D01*
X495309Y83650D01*
X492770Y81111D01*
Y76033D01*
Y79841D01*
X497849D01*
X490231Y76033D02*
Y81111D01*
X486422D01*
X485153Y79841D01*
Y76033D01*
X481344Y82381D02*
Y81111D01*
X482613D01*
X480074D01*
X481344D01*
Y77302D01*
X480074Y76033D01*
X476266Y81111D02*
Y77302D01*
X474996Y76033D01*
X471187D01*
Y81111D01*
X468648Y76033D02*
Y81111D01*
X464839D01*
X463570Y79841D01*
Y76033D01*
X459761Y81111D02*
X457222D01*
X455952Y79841D01*
Y76033D01*
X459761D01*
X461031Y77302D01*
X459761Y78572D01*
X455952D01*
X579102Y58866D02*
Y63944D01*
X576563Y66483D01*
X574024Y63944D01*
Y58866D01*
Y62675D01*
X579102D01*
X571485Y58866D02*
Y63944D01*
X567676D01*
X566407Y62675D01*
Y58866D01*
X558789Y66483D02*
Y58866D01*
X562598D01*
X563867Y60135D01*
Y62675D01*
X562598Y63944D01*
X558789D01*
X556250D02*
Y58866D01*
Y61405D01*
X554980Y62675D01*
X553711Y63944D01*
X552441D01*
X544823Y58866D02*
X547363D01*
X548632Y60135D01*
Y62675D01*
X547363Y63944D01*
X544823D01*
X543554Y62675D01*
Y61405D01*
X548632D01*
X541015Y58866D02*
X537206D01*
X535936Y60135D01*
X537206Y61405D01*
X539745D01*
X541015Y62675D01*
X539745Y63944D01*
X535936D01*
X525780Y66483D02*
Y58866D01*
Y62675D01*
X520701D01*
Y66483D01*
Y58866D01*
X516893D02*
X514353D01*
X513084Y60135D01*
Y62675D01*
X514353Y63944D01*
X516893D01*
X518162Y62675D01*
Y60135D01*
X516893Y58866D01*
X510545Y56327D02*
X509275D01*
X508005Y57596D01*
Y63944D01*
X502927Y58866D02*
Y63944D01*
X499118D01*
X497849Y62675D01*
Y58866D01*
X494040Y63944D02*
X491501D01*
X490231Y62675D01*
Y58866D01*
X494040D01*
X495309Y60135D01*
X494040Y61405D01*
X490231D01*
X482614Y66483D02*
Y58866D01*
X486422D01*
X487692Y60135D01*
Y62675D01*
X486422Y63944D01*
X482614D01*
X476266Y58866D02*
X478805D01*
X480074Y60135D01*
Y62675D01*
X478805Y63944D01*
X476266D01*
X474996Y62675D01*
Y61405D01*
X480074D01*
X472457Y58866D02*
X469918D01*
X471187D01*
Y66483D01*
X472457D01*
X622268Y48047D02*
Y40430D01*
X618460D01*
X617190Y41699D01*
Y42969D01*
X618460Y44239D01*
X622268D01*
X618460D01*
X617190Y45508D01*
Y46778D01*
X618460Y48047D01*
X622268D01*
X610842Y40430D02*
X613381D01*
X614651Y41699D01*
Y44239D01*
X613381Y45508D01*
X610842D01*
X609572Y44239D01*
Y42969D01*
X614651D01*
X607033Y40430D02*
Y45508D01*
X603224D01*
X601955Y44239D01*
Y40430D01*
X599416Y37891D02*
X598146D01*
X596877Y39160D01*
Y45508D01*
X590529D02*
X587989D01*
X586720Y44239D01*
Y40430D01*
X590529D01*
X591798Y41699D01*
X590529Y42969D01*
X586720D01*
X584181Y40430D02*
Y45508D01*
X582911D01*
X581642Y44239D01*
Y40430D01*
Y44239D01*
X580372Y45508D01*
X579102Y44239D01*
Y40430D01*
X576563D02*
X574024D01*
X575294D01*
Y45508D01*
X576563D01*
X570215Y40430D02*
Y45508D01*
X566406D01*
X565137Y44239D01*
Y40430D01*
X553711Y49317D02*
Y46778D01*
X554980Y45508D01*
X548632Y49317D02*
Y46778D01*
X549902Y45508D01*
X541015Y40430D02*
X543554D01*
X544823Y41699D01*
Y44239D01*
X543554Y45508D01*
X541015D01*
X539745Y44239D01*
Y42969D01*
X544823D01*
X537206Y40430D02*
X534667D01*
X535936D01*
Y48047D01*
X537206D01*
X523240D02*
X518162D01*
X520701D01*
Y40430D01*
X515623Y45508D02*
Y41699D01*
X514353Y40430D01*
X510545D01*
Y45508D01*
X502927D02*
X506736D01*
X508005Y44239D01*
Y41699D01*
X506736Y40430D01*
X502927D01*
X500388Y45508D02*
Y41699D01*
X499118Y40430D01*
X495309D01*
Y45508D01*
X491501Y49317D02*
Y46778D01*
X492770Y45508D01*
X486422Y49317D02*
Y46778D01*
X487692Y45508D01*
X469918Y46778D02*
X471187Y48047D01*
X473726D01*
X474996Y46778D01*
Y45508D01*
X473726Y44239D01*
X471187D01*
X469918Y42969D01*
Y41699D01*
X471187Y40430D01*
X473726D01*
X474996Y41699D01*
X466109Y45508D02*
X463570D01*
X462300Y44239D01*
Y40430D01*
X466109D01*
X467379Y41699D01*
X466109Y42969D01*
X462300D01*
X459761Y40430D02*
X457222D01*
X458491D01*
Y48047D01*
X459761D01*
X452143Y45508D02*
X449604D01*
X448335Y44239D01*
Y40430D01*
X452143D01*
X453413Y41699D01*
X452143Y42969D01*
X448335D01*
X445796Y45508D02*
X440717D01*
X445796Y40430D01*
X440717D01*
X436908Y45508D02*
X434369D01*
X433100Y44239D01*
Y40430D01*
X436908D01*
X438178Y41699D01*
X436908Y42969D01*
X433100D01*
X430560Y45508D02*
Y40430D01*
Y42969D01*
X429291Y44239D01*
X428021Y45508D01*
X426752D01*
X587355Y30881D02*
Y23263D01*
X582276D01*
X575928D02*
X578467D01*
X579737Y24533D01*
Y27072D01*
X578467Y28341D01*
X575928D01*
X574659Y27072D01*
Y25802D01*
X579737D01*
X570850Y28341D02*
X568311D01*
X567041Y27072D01*
Y23263D01*
X570850D01*
X572120Y24533D01*
X570850Y25802D01*
X567041D01*
X564502Y23263D02*
Y28341D01*
X560693D01*
X559424Y27072D01*
Y23263D01*
X551806Y30881D02*
Y23263D01*
X555615D01*
X556884Y24533D01*
Y27072D01*
X555615Y28341D01*
X551806D01*
X549267D02*
Y23263D01*
Y25802D01*
X547997Y27072D01*
X546728Y28341D01*
X545458D01*
X540380Y23263D02*
X537841D01*
X536571Y24533D01*
Y27072D01*
X537841Y28341D01*
X540380D01*
X541649Y27072D01*
Y24533D01*
X540380Y23263D01*
X526414Y30881D02*
Y23263D01*
X522606D01*
X521336Y24533D01*
Y25802D01*
X522606Y27072D01*
X526414D01*
X522606D01*
X521336Y28341D01*
Y29611D01*
X522606Y30881D01*
X526414D01*
X517527Y23263D02*
X514988D01*
X513718Y24533D01*
Y27072D01*
X514988Y28341D01*
X517527D01*
X518797Y27072D01*
Y24533D01*
X517527Y23263D01*
X509910Y29611D02*
Y28341D01*
X511179D01*
X508640D01*
X509910D01*
Y24533D01*
X508640Y23263D01*
X503562Y29611D02*
Y28341D01*
X504831D01*
X502292D01*
X503562D01*
Y24533D01*
X502292Y23263D01*
X498483D02*
X495944D01*
X497214D01*
Y28341D01*
X498483D01*
X492136Y23263D02*
Y28341D01*
X488327D01*
X487057Y27072D01*
Y23263D01*
X480709D02*
X483248D01*
X484518Y24533D01*
Y27072D01*
X483248Y28341D01*
X480709D01*
X479440Y27072D01*
Y25802D01*
X484518D01*
X476900Y23263D02*
X474361D01*
X475631D01*
Y30881D01*
X476900D01*
X470552Y23263D02*
X468013D01*
X469283D01*
Y30881D01*
X470552D01*
X464204Y23263D02*
X461665D01*
X462935D01*
Y28341D01*
X464204D01*
X105774Y19048D02*
X110490D01*
Y11430D01*
X105774D01*
X110490Y15421D02*
X107588D01*
X104504Y19048D02*
Y11430D01*
X100151D01*
X87889Y17234D02*
X88252Y17960D01*
X88977Y18686D01*
X89703Y19048D01*
X91154D01*
X91879Y18686D01*
X92605Y17960D01*
X92968Y17234D01*
X93330Y16146D01*
Y14332D01*
X92968Y13244D01*
X92605Y12518D01*
X91879Y11793D01*
X91154Y11430D01*
X89703D01*
X88977Y11793D01*
X88252Y12518D01*
X87889Y13244D01*
Y14332D01*
X89703D02*
X87889D01*
X86147Y19048D02*
Y11430D01*
Y19048D02*
X82882D01*
X81794Y18686D01*
X81431Y18323D01*
X81069Y17597D01*
Y16872D01*
X81431Y16146D01*
X81794Y15783D01*
X82882Y15421D01*
X86147D01*
X83608D02*
X81069Y11430D01*
X73559D02*
X76461Y19048D01*
X79363Y11430D01*
X78275Y13970D02*
X74647D01*
X71781Y19048D02*
Y11430D01*
Y19048D02*
X66702Y11430D01*
Y19048D02*
Y11430D01*
X53171Y17234D02*
X53534Y17960D01*
X54259Y18686D01*
X54985Y19048D01*
X56436D01*
X57161Y18686D01*
X57887Y17960D01*
X58250Y17234D01*
X58612Y16146D01*
Y14332D01*
X58250Y13244D01*
X57887Y12518D01*
X57161Y11793D01*
X56436Y11430D01*
X54985D01*
X54259Y11793D01*
X53534Y12518D01*
X53171Y13244D01*
Y14332D01*
X54985D02*
X53171D01*
X51430Y19048D02*
Y11430D01*
Y19048D02*
X48164D01*
X47076Y18686D01*
X46713Y18323D01*
X46351Y17597D01*
Y16872D01*
X46713Y16146D01*
X47076Y15783D01*
X48164Y15421D01*
X51430D01*
X48890D02*
X46351Y11430D01*
X44646Y19048D02*
Y13607D01*
X44283Y12518D01*
X43557Y11793D01*
X42469Y11430D01*
X41743D01*
X40655Y11793D01*
X39929Y12518D01*
X39567Y13607D01*
Y19048D01*
X37462Y15058D02*
X34197D01*
X33109Y15421D01*
X32746Y15783D01*
X32383Y16509D01*
Y17597D01*
X32746Y18323D01*
X33109Y18686D01*
X34197Y19048D01*
X37462D01*
Y11430D01*
X28502Y19048D02*
X29227Y18686D01*
X29953Y17960D01*
X30316Y17234D01*
X30679Y16146D01*
Y14332D01*
X30316Y13244D01*
X29953Y12518D01*
X29227Y11793D01*
X28502Y11430D01*
X27051D01*
X26325Y11793D01*
X25600Y12518D01*
X25237Y13244D01*
X24874Y14332D01*
Y16146D01*
X25237Y17234D01*
X25600Y17960D01*
X26325Y18686D01*
X27051Y19048D01*
X28502D01*
X12757D02*
X16385D01*
X16748Y15783D01*
X16385Y16146D01*
X15297Y16509D01*
X14208D01*
X13120Y16146D01*
X12394Y15421D01*
X12032Y14332D01*
Y13607D01*
X12394Y12518D01*
X13120Y11793D01*
X14208Y11430D01*
X15297D01*
X16385Y11793D01*
X16748Y12156D01*
X17111Y12881D01*
M02*
