G04 Layer_Color=16711935*
%FSLAX44Y44*%
%MOMM*%
G71*
G01*
G75*
%ADD46C,0.1270*%
%ADD93C,1.4032*%
%ADD94C,1.8432*%
%ADD95C,1.2032*%
%ADD96O,1.8032X1.1032*%
%ADD97C,1.8034*%
%ADD98R,1.8034X1.8034*%
%ADD99C,3.0032*%
%ADD100C,2.9032*%
%ADD101C,0.8032*%
D46*
X0Y0D02*
X1000000D01*
Y600000D01*
X0D02*
X1000000D01*
X0Y0D02*
Y600000D01*
D93*
X83820Y222250D02*
D03*
D94*
X393700Y273050D02*
D03*
X419100D02*
D03*
Y247650D02*
D03*
X393700D02*
D03*
X419100Y323850D02*
D03*
X393700D02*
D03*
D95*
X304800Y57150D02*
D03*
X755650Y19050D02*
D03*
D96*
X36155Y332720D02*
D03*
Y266720D02*
D03*
D97*
X542290Y539750D02*
D03*
Y514350D02*
D03*
X516890Y539750D02*
D03*
Y514350D02*
D03*
X796290D02*
D03*
X770890Y539750D02*
D03*
Y514350D02*
D03*
X745490Y539750D02*
D03*
Y514350D02*
D03*
X720090Y539750D02*
D03*
Y514350D02*
D03*
X694690Y539750D02*
D03*
Y514350D02*
D03*
X669290Y539750D02*
D03*
Y514350D02*
D03*
X643890Y539750D02*
D03*
Y514350D02*
D03*
X618490Y539750D02*
D03*
Y514350D02*
D03*
X593090Y539750D02*
D03*
Y514350D02*
D03*
X567690Y539750D02*
D03*
Y514350D02*
D03*
D98*
X796290Y539750D02*
D03*
D99*
X400400Y82900D02*
D03*
X348900D02*
D03*
X400400Y31400D02*
D03*
X348900D02*
D03*
X692500Y82900D02*
D03*
X641000D02*
D03*
X692500Y31400D02*
D03*
X641000D02*
D03*
D100*
X374650Y57150D02*
D03*
X666750D02*
D03*
D101*
X734060Y121920D02*
D03*
Y217170D02*
D03*
X844550Y30480D02*
D03*
M02*
